<mxfile host="app.diagrams.net" modified="2024-03-16T07:04:59.463Z" agent="Mozilla/5.0 (Windows NT 10.0; Win64; x64) AppleWebKit/537.36 (KHTML, like Gecko) Chrome/99.0.4844.82 Safari/537.36" etag="Xp3n6YfS8wWcH6PlctMV" version="24.0.7" type="github" pages="2">
  <diagram id="uh3VNmTf2n6whxnNDZQd" name="第 1 页">
    <mxGraphModel dx="728" dy="371" grid="1" gridSize="10" guides="1" tooltips="1" connect="1" arrows="1" fold="1" page="1" pageScale="1" pageWidth="827" pageHeight="1169" math="0" shadow="0">
      <root>
        <mxCell id="0" />
        <mxCell id="1" parent="0" />
        <mxCell id="rvX-eDuPCvc2a1IursWo-250" value="" style="rounded=0;whiteSpace=wrap;html=1;" parent="1" vertex="1">
          <mxGeometry x="816" y="1090" width="120" height="60" as="geometry" />
        </mxCell>
        <mxCell id="rvX-eDuPCvc2a1IursWo-251" value="数字仪表控制" style="text;strokeColor=none;fillColor=none;html=1;fontSize=15;fontStyle=0;verticalAlign=middle;align=center;" parent="1" vertex="1">
          <mxGeometry x="826" y="1100" width="102" height="40" as="geometry" />
        </mxCell>
        <mxCell id="rvX-eDuPCvc2a1IursWo-252" value="" style="rounded=0;whiteSpace=wrap;html=1;" parent="1" vertex="1">
          <mxGeometry x="866" y="1320" width="120" height="60" as="geometry" />
        </mxCell>
        <mxCell id="rvX-eDuPCvc2a1IursWo-253" value="接受传感器信号" style="text;strokeColor=none;fillColor=none;html=1;fontSize=15;fontStyle=0;verticalAlign=middle;align=center;" parent="1" vertex="1">
          <mxGeometry x="876" y="1330" width="102" height="40" as="geometry" />
        </mxCell>
        <mxCell id="rvX-eDuPCvc2a1IursWo-254" value="" style="rounded=0;whiteSpace=wrap;html=1;" parent="1" vertex="1">
          <mxGeometry x="1161" y="1440" width="120" height="60" as="geometry" />
        </mxCell>
        <mxCell id="rvX-eDuPCvc2a1IursWo-255" value="数据转换控制" style="text;strokeColor=none;fillColor=none;html=1;fontSize=15;fontStyle=0;verticalAlign=middle;align=center;" parent="1" vertex="1">
          <mxGeometry x="1171" y="1450" width="102" height="40" as="geometry" />
        </mxCell>
        <mxCell id="rvX-eDuPCvc2a1IursWo-256" value="" style="rounded=0;whiteSpace=wrap;html=1;" parent="1" vertex="1">
          <mxGeometry x="1274" y="1060" width="120" height="60" as="geometry" />
        </mxCell>
        <mxCell id="rvX-eDuPCvc2a1IursWo-257" value="驱动仪表盘" style="text;strokeColor=none;fillColor=none;html=1;fontSize=15;fontStyle=0;verticalAlign=middle;align=center;" parent="1" vertex="1">
          <mxGeometry x="1284" y="1070" width="102" height="40" as="geometry" />
        </mxCell>
        <mxCell id="rvX-eDuPCvc2a1IursWo-258" value="" style="endArrow=none;html=1;rounded=0;entryX=0.5;entryY=1;entryDx=0;entryDy=0;exitX=0.5;exitY=0;exitDx=0;exitDy=0;" parent="1" source="rvX-eDuPCvc2a1IursWo-254" target="rvX-eDuPCvc2a1IursWo-250" edge="1">
          <mxGeometry width="50" height="50" relative="1" as="geometry">
            <mxPoint x="880" y="1250" as="sourcePoint" />
            <mxPoint x="880" y="1110" as="targetPoint" />
          </mxGeometry>
        </mxCell>
        <mxCell id="rvX-eDuPCvc2a1IursWo-259" value="" style="endArrow=none;html=1;rounded=0;entryX=0.5;entryY=0;entryDx=0;entryDy=0;exitX=0.458;exitY=0;exitDx=0;exitDy=0;exitPerimeter=0;" parent="1" source="rvX-eDuPCvc2a1IursWo-252" target="rvX-eDuPCvc2a1IursWo-256" edge="1">
          <mxGeometry width="50" height="50" relative="1" as="geometry">
            <mxPoint x="742" y="1280" as="sourcePoint" />
            <mxPoint x="1100" y="1190" as="targetPoint" />
            <Array as="points">
              <mxPoint x="850" y="1230" />
              <mxPoint x="927" y="1210" />
              <mxPoint x="990" y="1210" />
              <mxPoint x="1240" y="1210" />
            </Array>
          </mxGeometry>
        </mxCell>
        <mxCell id="rvX-eDuPCvc2a1IursWo-260" value="" style="rounded=0;whiteSpace=wrap;html=1;" parent="1" vertex="1">
          <mxGeometry x="796" y="1480" width="120" height="60" as="geometry" />
        </mxCell>
        <mxCell id="rvX-eDuPCvc2a1IursWo-261" value="读旋转信号" style="text;strokeColor=none;fillColor=none;html=1;fontSize=15;fontStyle=0;verticalAlign=middle;align=center;" parent="1" vertex="1">
          <mxGeometry x="806" y="1490" width="102" height="40" as="geometry" />
        </mxCell>
        <mxCell id="rvX-eDuPCvc2a1IursWo-262" value="" style="rounded=0;whiteSpace=wrap;html=1;" parent="1" vertex="1">
          <mxGeometry x="936" y="1480" width="120" height="60" as="geometry" />
        </mxCell>
        <mxCell id="rvX-eDuPCvc2a1IursWo-263" value="读和校核燃料流" style="text;strokeColor=none;fillColor=none;html=1;fontSize=15;fontStyle=0;verticalAlign=middle;align=center;" parent="1" vertex="1">
          <mxGeometry x="946" y="1490" width="102" height="40" as="geometry" />
        </mxCell>
        <mxCell id="rvX-eDuPCvc2a1IursWo-264" value="" style="rounded=0;whiteSpace=wrap;html=1;" parent="1" vertex="1">
          <mxGeometry x="1047" y="1600" width="90" height="60" as="geometry" />
        </mxCell>
        <mxCell id="rvX-eDuPCvc2a1IursWo-265" value="计算mph" style="text;strokeColor=none;fillColor=none;html=1;fontSize=15;fontStyle=0;verticalAlign=middle;align=center;" parent="1" vertex="1">
          <mxGeometry x="1041" y="1610" width="102" height="40" as="geometry" />
        </mxCell>
        <mxCell id="rvX-eDuPCvc2a1IursWo-266" value="" style="rounded=0;whiteSpace=wrap;html=1;" parent="1" vertex="1">
          <mxGeometry x="1093" y="1710" width="120" height="60" as="geometry" />
        </mxCell>
        <mxCell id="rvX-eDuPCvc2a1IursWo-267" value="确定加速/减速" style="text;strokeColor=none;fillColor=none;html=1;fontSize=15;fontStyle=0;verticalAlign=middle;align=center;" parent="1" vertex="1">
          <mxGeometry x="1103" y="1720" width="102" height="40" as="geometry" />
        </mxCell>
        <mxCell id="rvX-eDuPCvc2a1IursWo-268" value="" style="rounded=0;whiteSpace=wrap;html=1;" parent="1" vertex="1">
          <mxGeometry x="1153" y="1600" width="100" height="60" as="geometry" />
        </mxCell>
        <mxCell id="rvX-eDuPCvc2a1IursWo-269" value="计算超速值" style="text;strokeColor=none;fillColor=none;html=1;fontSize=15;fontStyle=0;verticalAlign=middle;align=center;" parent="1" vertex="1">
          <mxGeometry x="1152" y="1610" width="102" height="40" as="geometry" />
        </mxCell>
        <mxCell id="rvX-eDuPCvc2a1IursWo-270" value="" style="rounded=0;whiteSpace=wrap;html=1;" parent="1" vertex="1">
          <mxGeometry x="1264" y="1600" width="80" height="60" as="geometry" />
        </mxCell>
        <mxCell id="rvX-eDuPCvc2a1IursWo-271" value="计算mpg" style="text;strokeColor=none;fillColor=none;html=1;fontSize=15;fontStyle=0;verticalAlign=middle;align=center;" parent="1" vertex="1">
          <mxGeometry x="1254" y="1610" width="102" height="40" as="geometry" />
        </mxCell>
        <mxCell id="rvX-eDuPCvc2a1IursWo-272" value="" style="rounded=0;whiteSpace=wrap;html=1;" parent="1" vertex="1">
          <mxGeometry x="1371" y="1600" width="80" height="60" as="geometry" />
        </mxCell>
        <mxCell id="rvX-eDuPCvc2a1IursWo-273" value="计算里程" style="text;strokeColor=none;fillColor=none;html=1;fontSize=15;fontStyle=0;verticalAlign=middle;align=center;" parent="1" vertex="1">
          <mxGeometry x="1356" y="1610" width="102" height="40" as="geometry" />
        </mxCell>
        <mxCell id="rvX-eDuPCvc2a1IursWo-274" value="" style="rounded=0;whiteSpace=wrap;html=1;" parent="1" vertex="1">
          <mxGeometry x="1418" y="1210" width="80" height="60" as="geometry" />
        </mxCell>
        <mxCell id="rvX-eDuPCvc2a1IursWo-275" value="mph显示" style="text;strokeColor=none;fillColor=none;html=1;fontSize=15;fontStyle=0;verticalAlign=middle;align=center;" parent="1" vertex="1">
          <mxGeometry x="1408" y="1220" width="102" height="40" as="geometry" />
        </mxCell>
        <mxCell id="rvX-eDuPCvc2a1IursWo-276" value="" style="rounded=0;whiteSpace=wrap;html=1;" parent="1" vertex="1">
          <mxGeometry x="1234" y="1210" width="80" height="60" as="geometry" />
        </mxCell>
        <mxCell id="rvX-eDuPCvc2a1IursWo-277" value="发出铃声" style="text;strokeColor=none;fillColor=none;html=1;fontSize=15;fontStyle=0;verticalAlign=middle;align=center;" parent="1" vertex="1">
          <mxGeometry x="1224" y="1220" width="102" height="40" as="geometry" />
        </mxCell>
        <mxCell id="rvX-eDuPCvc2a1IursWo-278" value="" style="rounded=0;whiteSpace=wrap;html=1;" parent="1" vertex="1">
          <mxGeometry x="1508" y="1210" width="80" height="60" as="geometry" />
        </mxCell>
        <mxCell id="rvX-eDuPCvc2a1IursWo-279" value="mpg显示" style="text;strokeColor=none;fillColor=none;html=1;fontSize=15;fontStyle=0;verticalAlign=middle;align=center;" parent="1" vertex="1">
          <mxGeometry x="1498" y="1220" width="102" height="40" as="geometry" />
        </mxCell>
        <mxCell id="rvX-eDuPCvc2a1IursWo-280" value="" style="rounded=0;whiteSpace=wrap;html=1;" parent="1" vertex="1">
          <mxGeometry x="1326" y="1210" width="80" height="60" as="geometry" />
        </mxCell>
        <mxCell id="rvX-eDuPCvc2a1IursWo-281" value="里程显示" style="text;strokeColor=none;fillColor=none;html=1;fontSize=15;fontStyle=0;verticalAlign=middle;align=center;" parent="1" vertex="1">
          <mxGeometry x="1316" y="1220" width="102" height="40" as="geometry" />
        </mxCell>
        <mxCell id="rvX-eDuPCvc2a1IursWo-282" value="" style="rounded=0;whiteSpace=wrap;html=1;" parent="1" vertex="1">
          <mxGeometry x="1254" y="1330" width="120" height="60" as="geometry" />
        </mxCell>
        <mxCell id="rvX-eDuPCvc2a1IursWo-283" value="加速/减速显示" style="text;strokeColor=none;fillColor=none;html=1;fontSize=15;fontStyle=0;verticalAlign=middle;align=center;" parent="1" vertex="1">
          <mxGeometry x="1264" y="1340" width="102" height="40" as="geometry" />
        </mxCell>
        <mxCell id="rvX-eDuPCvc2a1IursWo-284" value="" style="rounded=0;whiteSpace=wrap;html=1;" parent="1" vertex="1">
          <mxGeometry x="1418" y="1330" width="120" height="60" as="geometry" />
        </mxCell>
        <mxCell id="rvX-eDuPCvc2a1IursWo-285" value="二极管显示" style="text;strokeColor=none;fillColor=none;html=1;fontSize=15;fontStyle=0;verticalAlign=middle;align=center;" parent="1" vertex="1">
          <mxGeometry x="1428" y="1340" width="102" height="40" as="geometry" />
        </mxCell>
        <mxCell id="rvX-eDuPCvc2a1IursWo-286" value="" style="endArrow=none;html=1;rounded=0;exitX=0.5;exitY=0;exitDx=0;exitDy=0;entryX=0.5;entryY=0;entryDx=0;entryDy=0;" parent="1" source="rvX-eDuPCvc2a1IursWo-260" target="rvX-eDuPCvc2a1IursWo-262" edge="1">
          <mxGeometry width="50" height="50" relative="1" as="geometry">
            <mxPoint x="856" y="1430" as="sourcePoint" />
            <mxPoint x="996" y="1430" as="targetPoint" />
            <Array as="points">
              <mxPoint x="856" y="1430" />
              <mxPoint x="886" y="1430" />
              <mxPoint x="996" y="1430" />
            </Array>
          </mxGeometry>
        </mxCell>
        <mxCell id="rvX-eDuPCvc2a1IursWo-287" value="" style="endArrow=none;html=1;rounded=0;entryX=0.5;entryY=1;entryDx=0;entryDy=0;" parent="1" target="rvX-eDuPCvc2a1IursWo-252" edge="1">
          <mxGeometry width="50" height="50" relative="1" as="geometry">
            <mxPoint x="926" y="1430" as="sourcePoint" />
            <mxPoint x="946" y="1390" as="targetPoint" />
          </mxGeometry>
        </mxCell>
        <mxCell id="rvX-eDuPCvc2a1IursWo-288" value="" style="endArrow=none;html=1;rounded=0;exitX=0.468;exitY=-0.015;exitDx=0;exitDy=0;entryX=0.412;entryY=0.019;entryDx=0;entryDy=0;exitPerimeter=0;entryPerimeter=0;" parent="1" source="rvX-eDuPCvc2a1IursWo-268" target="rvX-eDuPCvc2a1IursWo-270" edge="1">
          <mxGeometry width="50" height="50" relative="1" as="geometry">
            <mxPoint x="1151" y="1600" as="sourcePoint" />
            <mxPoint x="1291" y="1600" as="targetPoint" />
            <Array as="points">
              <mxPoint x="1200" y="1550" />
              <mxPoint x="1297" y="1550" />
            </Array>
          </mxGeometry>
        </mxCell>
        <mxCell id="rvX-eDuPCvc2a1IursWo-289" value="" style="endArrow=none;html=1;rounded=0;entryX=0.5;entryY=1;entryDx=0;entryDy=0;" parent="1" edge="1">
          <mxGeometry width="50" height="50" relative="1" as="geometry">
            <mxPoint x="1221" y="1550" as="sourcePoint" />
            <mxPoint x="1221" y="1500" as="targetPoint" />
          </mxGeometry>
        </mxCell>
        <mxCell id="rvX-eDuPCvc2a1IursWo-290" value="" style="endArrow=none;html=1;rounded=0;exitX=0.454;exitY=-0.002;exitDx=0;exitDy=0;exitPerimeter=0;" parent="1" source="rvX-eDuPCvc2a1IursWo-264" edge="1">
          <mxGeometry width="50" height="50" relative="1" as="geometry">
            <mxPoint x="1096" y="1550" as="sourcePoint" />
            <mxPoint x="1206" y="1550" as="targetPoint" />
            <Array as="points">
              <mxPoint x="1088" y="1550" />
            </Array>
          </mxGeometry>
        </mxCell>
        <mxCell id="rvX-eDuPCvc2a1IursWo-291" value="" style="endArrow=none;html=1;rounded=0;entryX=0.5;entryY=0;entryDx=0;entryDy=0;" parent="1" target="rvX-eDuPCvc2a1IursWo-272" edge="1">
          <mxGeometry width="50" height="50" relative="1" as="geometry">
            <mxPoint x="1296" y="1550" as="sourcePoint" />
            <mxPoint x="1406" y="1550" as="targetPoint" />
            <Array as="points">
              <mxPoint x="1411" y="1550" />
            </Array>
          </mxGeometry>
        </mxCell>
        <mxCell id="rvX-eDuPCvc2a1IursWo-292" value="" style="endArrow=none;html=1;rounded=0;exitX=0.469;exitY=-0.025;exitDx=0;exitDy=0;entryX=0.448;entryY=-0.003;entryDx=0;entryDy=0;exitPerimeter=0;entryPerimeter=0;" parent="1" source="rvX-eDuPCvc2a1IursWo-280" target="rvX-eDuPCvc2a1IursWo-274" edge="1">
          <mxGeometry width="50" height="50" relative="1" as="geometry">
            <mxPoint x="1311" y="1209" as="sourcePoint" />
            <mxPoint x="1408" y="1211" as="targetPoint" />
            <Array as="points">
              <mxPoint x="1364" y="1160" />
              <mxPoint x="1311" y="1160" />
              <mxPoint x="1454" y="1160" />
            </Array>
          </mxGeometry>
        </mxCell>
        <mxCell id="rvX-eDuPCvc2a1IursWo-293" value="" style="endArrow=none;html=1;rounded=0;" parent="1" edge="1">
          <mxGeometry width="50" height="50" relative="1" as="geometry">
            <mxPoint x="1332" y="1160" as="sourcePoint" />
            <mxPoint x="1332" y="1120" as="targetPoint" />
          </mxGeometry>
        </mxCell>
        <mxCell id="rvX-eDuPCvc2a1IursWo-294" value="" style="endArrow=none;html=1;rounded=0;exitX=0.5;exitY=0;exitDx=0;exitDy=0;" parent="1" source="rvX-eDuPCvc2a1IursWo-276" edge="1">
          <mxGeometry width="50" height="50" relative="1" as="geometry">
            <mxPoint x="1249" y="1210" as="sourcePoint" />
            <mxPoint x="1317" y="1160" as="targetPoint" />
            <Array as="points">
              <mxPoint x="1274" y="1160" />
            </Array>
          </mxGeometry>
        </mxCell>
        <mxCell id="rvX-eDuPCvc2a1IursWo-295" value="" style="endArrow=none;html=1;rounded=0;entryX=0.459;entryY=0.019;entryDx=0;entryDy=0;entryPerimeter=0;" parent="1" target="rvX-eDuPCvc2a1IursWo-278" edge="1">
          <mxGeometry width="50" height="50" relative="1" as="geometry">
            <mxPoint x="1407" y="1160" as="sourcePoint" />
            <mxPoint x="1522" y="1210" as="targetPoint" />
            <Array as="points">
              <mxPoint x="1544" y="1160" />
            </Array>
          </mxGeometry>
        </mxCell>
        <mxCell id="rvX-eDuPCvc2a1IursWo-296" value="" style="endArrow=none;html=1;rounded=0;" parent="1" edge="1">
          <mxGeometry width="50" height="50" relative="1" as="geometry">
            <mxPoint x="1146" y="1710" as="sourcePoint" />
            <mxPoint x="1196" y="1660" as="targetPoint" />
          </mxGeometry>
        </mxCell>
        <mxCell id="rvX-eDuPCvc2a1IursWo-297" value="" style="endArrow=none;html=1;rounded=0;entryX=0.5;entryY=1;entryDx=0;entryDy=0;exitX=0.436;exitY=0.001;exitDx=0;exitDy=0;exitPerimeter=0;" parent="1" source="rvX-eDuPCvc2a1IursWo-266" target="rvX-eDuPCvc2a1IursWo-264" edge="1">
          <mxGeometry width="50" height="50" relative="1" as="geometry">
            <mxPoint x="1046" y="1710" as="sourcePoint" />
            <mxPoint x="1096" y="1660" as="targetPoint" />
          </mxGeometry>
        </mxCell>
        <mxCell id="rvX-eDuPCvc2a1IursWo-298" value="" style="endArrow=none;html=1;rounded=0;exitX=0.528;exitY=0.019;exitDx=0;exitDy=0;exitPerimeter=0;" parent="1" source="rvX-eDuPCvc2a1IursWo-284" edge="1">
          <mxGeometry width="50" height="50" relative="1" as="geometry">
            <mxPoint x="1514" y="1320" as="sourcePoint" />
            <mxPoint x="1564" y="1270" as="targetPoint" />
          </mxGeometry>
        </mxCell>
        <mxCell id="rvX-eDuPCvc2a1IursWo-299" value="" style="endArrow=none;html=1;rounded=0;exitX=0.531;exitY=0.014;exitDx=0;exitDy=0;exitPerimeter=0;" parent="1" source="rvX-eDuPCvc2a1IursWo-284" edge="1">
          <mxGeometry width="50" height="50" relative="1" as="geometry">
            <mxPoint x="1414" y="1320" as="sourcePoint" />
            <mxPoint x="1464" y="1270" as="targetPoint" />
          </mxGeometry>
        </mxCell>
        <mxCell id="rvX-eDuPCvc2a1IursWo-300" value="" style="endArrow=none;html=1;rounded=0;exitX=0.531;exitY=0.001;exitDx=0;exitDy=0;exitPerimeter=0;" parent="1" source="rvX-eDuPCvc2a1IursWo-284" edge="1">
          <mxGeometry width="50" height="50" relative="1" as="geometry">
            <mxPoint x="1324" y="1320" as="sourcePoint" />
            <mxPoint x="1374" y="1270" as="targetPoint" />
          </mxGeometry>
        </mxCell>
        <mxCell id="rvX-eDuPCvc2a1IursWo-301" value="" style="endArrow=none;html=1;rounded=0;exitX=0.5;exitY=0;exitDx=0;exitDy=0;" parent="1" source="rvX-eDuPCvc2a1IursWo-282" edge="1">
          <mxGeometry width="50" height="50" relative="1" as="geometry">
            <mxPoint x="1314" y="1320" as="sourcePoint" />
            <mxPoint x="1364" y="1270" as="targetPoint" />
          </mxGeometry>
        </mxCell>
        <mxCell id="rvX-eDuPCvc2a1IursWo-302" value="" style="endArrow=none;html=1;rounded=0;exitX=0.5;exitY=0;exitDx=0;exitDy=0;" parent="1" source="rvX-eDuPCvc2a1IursWo-282" edge="1">
          <mxGeometry width="50" height="50" relative="1" as="geometry">
            <mxPoint x="1226" y="1320" as="sourcePoint" />
            <mxPoint x="1276" y="1270" as="targetPoint" />
          </mxGeometry>
        </mxCell>
        <mxCell id="rvX-eDuPCvc2a1IursWo-303" value="" style="rounded=0;whiteSpace=wrap;html=1;" parent="1" vertex="1">
          <mxGeometry x="2136" y="1090" width="120" height="60" as="geometry" />
        </mxCell>
        <mxCell id="rvX-eDuPCvc2a1IursWo-304" value="显示屏" style="text;strokeColor=none;fillColor=none;html=1;fontSize=15;fontStyle=0;verticalAlign=middle;align=center;" parent="1" vertex="1">
          <mxGeometry x="2146" y="1100" width="102" height="40" as="geometry" />
        </mxCell>
        <mxCell id="rvX-eDuPCvc2a1IursWo-305" value="" style="rounded=0;whiteSpace=wrap;html=1;" parent="1" vertex="1">
          <mxGeometry x="1890" y="1210" width="120" height="60" as="geometry" />
        </mxCell>
        <mxCell id="rvX-eDuPCvc2a1IursWo-306" value="接受查询" style="text;strokeColor=none;fillColor=none;html=1;fontSize=15;fontStyle=0;verticalAlign=middle;align=center;" parent="1" vertex="1">
          <mxGeometry x="1900" y="1220" width="102" height="40" as="geometry" />
        </mxCell>
        <mxCell id="rvX-eDuPCvc2a1IursWo-307" value="" style="rounded=0;whiteSpace=wrap;html=1;" parent="1" vertex="1">
          <mxGeometry x="2359.5" y="1210" width="120" height="60" as="geometry" />
        </mxCell>
        <mxCell id="rvX-eDuPCvc2a1IursWo-308" value="分析查询" style="text;strokeColor=none;fillColor=none;html=1;fontSize=15;fontStyle=0;verticalAlign=middle;align=center;" parent="1" vertex="1">
          <mxGeometry x="2369.5" y="1220" width="102" height="40" as="geometry" />
        </mxCell>
        <mxCell id="rvX-eDuPCvc2a1IursWo-309" value="" style="endArrow=none;html=1;rounded=0;entryX=0.5;entryY=1;entryDx=0;entryDy=0;" parent="1" target="rvX-eDuPCvc2a1IursWo-303" edge="1">
          <mxGeometry width="50" height="50" relative="1" as="geometry">
            <mxPoint x="2196" y="1210" as="sourcePoint" />
            <mxPoint x="2200" y="1110" as="targetPoint" />
          </mxGeometry>
        </mxCell>
        <mxCell id="rvX-eDuPCvc2a1IursWo-310" value="" style="endArrow=none;html=1;rounded=0;entryX=0.5;entryY=0;entryDx=0;entryDy=0;exitX=0.458;exitY=0;exitDx=0;exitDy=0;exitPerimeter=0;" parent="1" source="rvX-eDuPCvc2a1IursWo-305" target="rvX-eDuPCvc2a1IursWo-307" edge="1">
          <mxGeometry width="50" height="50" relative="1" as="geometry">
            <mxPoint x="2062" y="1280" as="sourcePoint" />
            <mxPoint x="2420" y="1190" as="targetPoint" />
            <Array as="points">
              <mxPoint x="1995" y="1210" />
              <mxPoint x="2247" y="1210" />
              <mxPoint x="2310" y="1210" />
              <mxPoint x="2417" y="1210" />
            </Array>
          </mxGeometry>
        </mxCell>
        <mxCell id="rvX-eDuPCvc2a1IursWo-311" value="" style="rounded=0;whiteSpace=wrap;html=1;" parent="1" vertex="1">
          <mxGeometry x="1891" y="1340" width="120" height="60" as="geometry" />
        </mxCell>
        <mxCell id="rvX-eDuPCvc2a1IursWo-312" value="接收查询信息" style="text;strokeColor=none;fillColor=none;html=1;fontSize=15;fontStyle=0;verticalAlign=middle;align=center;" parent="1" vertex="1">
          <mxGeometry x="1901" y="1350" width="102" height="40" as="geometry" />
        </mxCell>
        <mxCell id="rvX-eDuPCvc2a1IursWo-313" value="" style="endArrow=none;html=1;rounded=0;exitX=0.451;exitY=-0.005;exitDx=0;exitDy=0;exitPerimeter=0;" parent="1" source="rvX-eDuPCvc2a1IursWo-311" edge="1">
          <mxGeometry width="50" height="50" relative="1" as="geometry">
            <mxPoint x="1895" y="1320" as="sourcePoint" />
            <mxPoint x="1945" y="1270" as="targetPoint" />
          </mxGeometry>
        </mxCell>
        <mxCell id="rvX-eDuPCvc2a1IursWo-314" value="" style="rounded=0;whiteSpace=wrap;html=1;" parent="1" vertex="1">
          <mxGeometry x="2360.5" y="1460" width="120" height="60" as="geometry" />
        </mxCell>
        <mxCell id="rvX-eDuPCvc2a1IursWo-315" value="查询显示" style="text;strokeColor=none;fillColor=none;html=1;fontSize=15;fontStyle=0;verticalAlign=middle;align=center;" parent="1" vertex="1">
          <mxGeometry x="2370.5" y="1470" width="102" height="40" as="geometry" />
        </mxCell>
        <mxCell id="rvX-eDuPCvc2a1IursWo-316" value="" style="endArrow=none;html=1;rounded=0;entryX=0.5;entryY=1;entryDx=0;entryDy=0;exitX=0.5;exitY=0;exitDx=0;exitDy=0;" parent="1" source="rvX-eDuPCvc2a1IursWo-314" edge="1">
          <mxGeometry width="50" height="50" relative="1" as="geometry">
            <mxPoint x="2376.5" y="1460" as="sourcePoint" />
            <mxPoint x="2420.5" y="1400" as="targetPoint" />
          </mxGeometry>
        </mxCell>
        <mxCell id="rvX-eDuPCvc2a1IursWo-317" value="" style="rounded=0;whiteSpace=wrap;html=1;" parent="1" vertex="1">
          <mxGeometry x="2495" y="1340" width="120" height="60" as="geometry" />
        </mxCell>
        <mxCell id="rvX-eDuPCvc2a1IursWo-318" value="按线路查询" style="text;strokeColor=none;fillColor=none;html=1;fontSize=15;fontStyle=0;verticalAlign=middle;align=center;" parent="1" vertex="1">
          <mxGeometry x="2530" y="1350" width="102" height="40" as="geometry" />
        </mxCell>
        <mxCell id="rvX-eDuPCvc2a1IursWo-319" value="" style="rounded=0;whiteSpace=wrap;html=1;" parent="1" vertex="1">
          <mxGeometry x="2231" y="1340" width="120" height="60" as="geometry" />
        </mxCell>
        <mxCell id="rvX-eDuPCvc2a1IursWo-320" value="按日期查询" style="text;strokeColor=none;fillColor=none;html=1;fontSize=15;fontStyle=0;verticalAlign=middle;align=center;" parent="1" vertex="1">
          <mxGeometry x="2240" y="1350" width="102" height="40" as="geometry" />
        </mxCell>
        <mxCell id="rvX-eDuPCvc2a1IursWo-321" value="" style="rounded=0;whiteSpace=wrap;html=1;" parent="1" vertex="1">
          <mxGeometry x="2367" y="1340" width="120" height="60" as="geometry" />
        </mxCell>
        <mxCell id="rvX-eDuPCvc2a1IursWo-322" value="按班次查询" style="text;strokeColor=none;fillColor=none;html=1;fontSize=15;fontStyle=0;verticalAlign=middle;align=center;" parent="1" vertex="1">
          <mxGeometry x="2377" y="1350" width="102" height="40" as="geometry" />
        </mxCell>
        <mxCell id="rvX-eDuPCvc2a1IursWo-323" value="" style="endArrow=none;html=1;rounded=0;exitX=0.42;exitY=0.018;exitDx=0;exitDy=0;exitPerimeter=0;" parent="1" edge="1">
          <mxGeometry width="50" height="50" relative="1" as="geometry">
            <mxPoint x="2419.85" y="1340" as="sourcePoint" />
            <mxPoint x="2420" y="1270" as="targetPoint" />
          </mxGeometry>
        </mxCell>
        <mxCell id="rvX-eDuPCvc2a1IursWo-324" value="" style="endArrow=none;html=1;rounded=0;entryX=0.577;entryY=-0.009;entryDx=0;entryDy=0;exitX=0.5;exitY=0;exitDx=0;exitDy=0;entryPerimeter=0;" parent="1" edge="1">
          <mxGeometry width="50" height="50" relative="1" as="geometry">
            <mxPoint x="2289.9999999999995" y="1340" as="sourcePoint" />
            <mxPoint x="2572.2400000000002" y="1339.46" as="targetPoint" />
            <Array as="points">
              <mxPoint x="2290" y="1300" />
              <mxPoint x="2466.5" y="1300" />
              <mxPoint x="2529.5" y="1300" />
              <mxPoint x="2572" y="1300" />
            </Array>
          </mxGeometry>
        </mxCell>
        <mxCell id="rvX-eDuPCvc2a1IursWo-325" value="" style="rounded=0;whiteSpace=wrap;html=1;" parent="1" vertex="1">
          <mxGeometry x="965" y="2400" width="120" height="60" as="geometry" />
        </mxCell>
        <mxCell id="rvX-eDuPCvc2a1IursWo-326" value="学生选课系统" style="text;strokeColor=none;fillColor=none;html=1;fontSize=15;fontStyle=0;verticalAlign=middle;align=center;" parent="1" vertex="1">
          <mxGeometry x="975" y="2410" width="102" height="40" as="geometry" />
        </mxCell>
        <mxCell id="rvX-eDuPCvc2a1IursWo-327" value="" style="rounded=0;whiteSpace=wrap;html=1;" parent="1" vertex="1">
          <mxGeometry x="966" y="2580" width="120" height="60" as="geometry" />
        </mxCell>
        <mxCell id="rvX-eDuPCvc2a1IursWo-328" value="选课处理" style="text;strokeColor=none;fillColor=none;html=1;fontSize=15;fontStyle=0;verticalAlign=middle;align=center;" parent="1" vertex="1">
          <mxGeometry x="976" y="2590" width="102" height="40" as="geometry" />
        </mxCell>
        <mxCell id="rvX-eDuPCvc2a1IursWo-329" value="" style="endArrow=none;html=1;rounded=0;exitX=0.484;exitY=-0.004;exitDx=0;exitDy=0;exitPerimeter=0;" parent="1" source="rvX-eDuPCvc2a1IursWo-327" edge="1">
          <mxGeometry width="50" height="50" relative="1" as="geometry">
            <mxPoint x="973" y="2510" as="sourcePoint" />
            <mxPoint x="1023" y="2460" as="targetPoint" />
          </mxGeometry>
        </mxCell>
        <mxCell id="rvX-eDuPCvc2a1IursWo-330" value="" style="endArrow=none;html=1;rounded=0;entryX=0.5;entryY=1;entryDx=0;entryDy=0;exitX=0.5;exitY=0;exitDx=0;exitDy=0;" parent="1" source="rvX-eDuPCvc2a1IursWo-314" edge="1">
          <mxGeometry width="50" height="50" relative="1" as="geometry">
            <mxPoint x="2302.5" y="1480" as="sourcePoint" />
            <mxPoint x="2289.9999999999995" y="1400" as="targetPoint" />
          </mxGeometry>
        </mxCell>
        <mxCell id="rvX-eDuPCvc2a1IursWo-331" value="" style="endArrow=none;html=1;rounded=0;exitX=0.5;exitY=0;exitDx=0;exitDy=0;" parent="1" source="rvX-eDuPCvc2a1IursWo-314" edge="1">
          <mxGeometry width="50" height="50" relative="1" as="geometry">
            <mxPoint x="2522.5" y="1450" as="sourcePoint" />
            <mxPoint x="2572.5" y="1400" as="targetPoint" />
          </mxGeometry>
        </mxCell>
        <mxCell id="rvX-eDuPCvc2a1IursWo-332" value="" style="rounded=0;whiteSpace=wrap;html=1;" parent="1" vertex="1">
          <mxGeometry x="1892" y="1470" width="120" height="60" as="geometry" />
        </mxCell>
        <mxCell id="rvX-eDuPCvc2a1IursWo-333" value="查询" style="text;strokeColor=none;fillColor=none;html=1;fontSize=15;fontStyle=0;verticalAlign=middle;align=center;" parent="1" vertex="1">
          <mxGeometry x="1902" y="1480" width="102" height="40" as="geometry" />
        </mxCell>
        <mxCell id="rvX-eDuPCvc2a1IursWo-334" value="" style="endArrow=none;html=1;rounded=0;exitX=0.451;exitY=-0.005;exitDx=0;exitDy=0;exitPerimeter=0;" parent="1" source="rvX-eDuPCvc2a1IursWo-332" edge="1">
          <mxGeometry width="50" height="50" relative="1" as="geometry">
            <mxPoint x="1896" y="1450" as="sourcePoint" />
            <mxPoint x="1946" y="1400" as="targetPoint" />
          </mxGeometry>
        </mxCell>
        <mxCell id="rvX-eDuPCvc2a1IursWo-335" value="" style="rounded=0;whiteSpace=wrap;html=1;" parent="1" vertex="1">
          <mxGeometry x="2367" y="1590" width="120" height="60" as="geometry" />
        </mxCell>
        <mxCell id="rvX-eDuPCvc2a1IursWo-336" value="旅客" style="text;strokeColor=none;fillColor=none;html=1;fontSize=15;fontStyle=0;verticalAlign=middle;align=center;" parent="1" vertex="1">
          <mxGeometry x="2375" y="1600" width="102" height="40" as="geometry" />
        </mxCell>
        <mxCell id="rvX-eDuPCvc2a1IursWo-337" value="" style="endArrow=none;html=1;rounded=0;exitX=0.451;exitY=-0.005;exitDx=0;exitDy=0;exitPerimeter=0;" parent="1" source="rvX-eDuPCvc2a1IursWo-335" edge="1">
          <mxGeometry width="50" height="50" relative="1" as="geometry">
            <mxPoint x="2371" y="1570" as="sourcePoint" />
            <mxPoint x="2421" y="1520" as="targetPoint" />
          </mxGeometry>
        </mxCell>
        <mxCell id="rvX-eDuPCvc2a1IursWo-338" value="" style="rounded=0;whiteSpace=wrap;html=1;" parent="1" vertex="1">
          <mxGeometry x="1284" y="2580" width="120" height="60" as="geometry" />
        </mxCell>
        <mxCell id="rvX-eDuPCvc2a1IursWo-339" value="课表输出" style="text;strokeColor=none;fillColor=none;html=1;fontSize=15;fontStyle=0;verticalAlign=middle;align=center;" parent="1" vertex="1">
          <mxGeometry x="1294" y="2590" width="102" height="40" as="geometry" />
        </mxCell>
        <mxCell id="rvX-eDuPCvc2a1IursWo-340" value="" style="endArrow=none;html=1;rounded=0;exitX=0.451;exitY=-0.005;exitDx=0;exitDy=0;exitPerimeter=0;entryX=0.832;entryY=1.014;entryDx=0;entryDy=0;entryPerimeter=0;" parent="1" source="rvX-eDuPCvc2a1IursWo-338" target="rvX-eDuPCvc2a1IursWo-325" edge="1">
          <mxGeometry width="50" height="50" relative="1" as="geometry">
            <mxPoint x="1231" y="2520" as="sourcePoint" />
            <mxPoint x="1281" y="2470" as="targetPoint" />
          </mxGeometry>
        </mxCell>
        <mxCell id="rvX-eDuPCvc2a1IursWo-341" value="" style="rounded=0;whiteSpace=wrap;html=1;" parent="1" vertex="1">
          <mxGeometry x="668" y="2580" width="120" height="60" as="geometry" />
        </mxCell>
        <mxCell id="rvX-eDuPCvc2a1IursWo-342" value="学生登录" style="text;strokeColor=none;fillColor=none;html=1;fontSize=15;fontStyle=0;verticalAlign=middle;align=center;" parent="1" vertex="1">
          <mxGeometry x="678" y="2590" width="102" height="40" as="geometry" />
        </mxCell>
        <mxCell id="rvX-eDuPCvc2a1IursWo-343" value="" style="endArrow=none;html=1;rounded=0;exitX=0.58;exitY=-0.008;exitDx=0;exitDy=0;exitPerimeter=0;entryX=0.166;entryY=0.99;entryDx=0;entryDy=0;entryPerimeter=0;" parent="1" source="rvX-eDuPCvc2a1IursWo-341" target="rvX-eDuPCvc2a1IursWo-325" edge="1">
          <mxGeometry width="50" height="50" relative="1" as="geometry">
            <mxPoint x="702" y="2510" as="sourcePoint" />
            <mxPoint x="752" y="2470" as="targetPoint" />
          </mxGeometry>
        </mxCell>
        <mxCell id="rvX-eDuPCvc2a1IursWo-344" value="" style="rounded=0;whiteSpace=wrap;html=1;" parent="1" vertex="1">
          <mxGeometry x="548" y="2730" width="120" height="60" as="geometry" />
        </mxCell>
        <mxCell id="rvX-eDuPCvc2a1IursWo-345" value="获取学生密码" style="text;strokeColor=none;fillColor=none;html=1;fontSize=15;fontStyle=0;verticalAlign=middle;align=center;" parent="1" vertex="1">
          <mxGeometry x="558" y="2740" width="102" height="40" as="geometry" />
        </mxCell>
        <mxCell id="rvX-eDuPCvc2a1IursWo-346" value="" style="endArrow=classic;html=1;rounded=0;movable=1;resizable=1;rotatable=1;deletable=1;editable=1;locked=0;connectable=1;exitX=0.855;exitY=0.145;exitDx=0;exitDy=0;exitPerimeter=0;entryX=0.205;entryY=1.015;entryDx=0;entryDy=0;entryPerimeter=0;" parent="1" source="rvX-eDuPCvc2a1IursWo-348" target="rvX-eDuPCvc2a1IursWo-341" edge="1">
          <mxGeometry width="50" height="50" relative="1" as="geometry">
            <mxPoint x="694.695" y="2711.45" as="sourcePoint" />
            <mxPoint x="718" y="2640" as="targetPoint" />
          </mxGeometry>
        </mxCell>
        <mxCell id="rvX-eDuPCvc2a1IursWo-347" value="" style="strokeWidth=2;html=1;shape=mxgraph.flowchart.start_2;whiteSpace=wrap;movable=1;resizable=1;rotatable=1;deletable=1;editable=1;locked=0;connectable=1;container=0;" parent="1" vertex="1">
          <mxGeometry x="709" y="2700" width="10" as="geometry" />
        </mxCell>
        <mxCell id="rvX-eDuPCvc2a1IursWo-348" value="" style="verticalLabelPosition=bottom;verticalAlign=top;html=1;shape=mxgraph.flowchart.on-page_reference;movable=1;resizable=1;rotatable=1;deletable=1;editable=1;locked=0;connectable=1;container=0;" parent="1" vertex="1">
          <mxGeometry x="603.5" y="2710" width="9" height="10" as="geometry" />
        </mxCell>
        <mxCell id="rvX-eDuPCvc2a1IursWo-349" value="&lt;font style=&quot;font-size: 14px;&quot;&gt;密码&lt;/font&gt;" style="text;strokeColor=none;fillColor=none;html=1;fontSize=15;fontStyle=0;verticalAlign=middle;align=center;rotation=55;" parent="1" vertex="1">
          <mxGeometry x="718" y="2679" width="51.5" height="40" as="geometry" />
        </mxCell>
        <mxCell id="rvX-eDuPCvc2a1IursWo-350" value="" style="endArrow=none;html=1;rounded=0;exitX=0.538;exitY=-0.008;exitDx=0;exitDy=0;exitPerimeter=0;entryX=0.401;entryY=1.015;entryDx=0;entryDy=0;entryPerimeter=0;" parent="1" source="rvX-eDuPCvc2a1IursWo-344" target="rvX-eDuPCvc2a1IursWo-341" edge="1">
          <mxGeometry width="50" height="50" relative="1" as="geometry">
            <mxPoint x="673" y="2690" as="sourcePoint" />
            <mxPoint x="723" y="2640" as="targetPoint" />
          </mxGeometry>
        </mxCell>
        <mxCell id="rvX-eDuPCvc2a1IursWo-351" value="" style="rounded=0;whiteSpace=wrap;html=1;" parent="1" vertex="1">
          <mxGeometry x="739" y="2730" width="120" height="60" as="geometry" />
        </mxCell>
        <mxCell id="rvX-eDuPCvc2a1IursWo-352" value="验证身份" style="text;strokeColor=none;fillColor=none;html=1;fontSize=15;fontStyle=0;verticalAlign=middle;align=center;" parent="1" vertex="1">
          <mxGeometry x="749" y="2740" width="102" height="40" as="geometry" />
        </mxCell>
        <mxCell id="rvX-eDuPCvc2a1IursWo-353" value="" style="verticalLabelPosition=bottom;verticalAlign=top;html=1;shape=mxgraph.flowchart.on-page_reference;movable=1;resizable=1;rotatable=1;deletable=1;editable=1;locked=0;connectable=1;container=0;" parent="1" vertex="1">
          <mxGeometry x="718" y="2650" width="9" height="10" as="geometry" />
        </mxCell>
        <mxCell id="rvX-eDuPCvc2a1IursWo-354" value="" style="endArrow=none;html=1;rounded=0;exitX=0.477;exitY=1.001;exitDx=0;exitDy=0;exitPerimeter=0;entryX=0.5;entryY=0;entryDx=0;entryDy=0;" parent="1" source="rvX-eDuPCvc2a1IursWo-341" target="rvX-eDuPCvc2a1IursWo-351" edge="1">
          <mxGeometry width="50" height="50" relative="1" as="geometry">
            <mxPoint x="753" y="2700" as="sourcePoint" />
            <mxPoint x="803" y="2650" as="targetPoint" />
          </mxGeometry>
        </mxCell>
        <mxCell id="rvX-eDuPCvc2a1IursWo-355" value="" style="endArrow=classic;html=1;rounded=0;exitX=0.855;exitY=0.855;exitDx=0;exitDy=0;exitPerimeter=0;" parent="1" source="rvX-eDuPCvc2a1IursWo-353" edge="1">
          <mxGeometry width="50" height="50" relative="1" as="geometry">
            <mxPoint x="733" y="2669" as="sourcePoint" />
            <mxPoint x="783.3" y="2730" as="targetPoint" />
          </mxGeometry>
        </mxCell>
        <mxCell id="rvX-eDuPCvc2a1IursWo-356" value="&lt;font style=&quot;font-size: 14px;&quot;&gt;密码&lt;/font&gt;" style="text;strokeColor=none;fillColor=none;html=1;fontSize=15;fontStyle=0;verticalAlign=middle;align=center;rotation=-40;" parent="1" vertex="1">
          <mxGeometry x="603.5" y="2651" width="51.5" height="40" as="geometry" />
        </mxCell>
        <mxCell id="rvX-eDuPCvc2a1IursWo-357" value="" style="verticalLabelPosition=bottom;verticalAlign=top;html=1;shape=mxgraph.flowchart.on-page_reference;movable=1;resizable=1;rotatable=1;deletable=1;editable=1;locked=0;connectable=1;container=0;" parent="1" vertex="1">
          <mxGeometry x="1001" y="2470" width="9" height="10" as="geometry" />
        </mxCell>
        <mxCell id="rvX-eDuPCvc2a1IursWo-358" value="" style="verticalLabelPosition=bottom;verticalAlign=top;html=1;shape=mxgraph.flowchart.on-page_reference;movable=1;resizable=1;rotatable=1;deletable=1;editable=1;locked=0;connectable=1;container=0;" parent="1" vertex="1">
          <mxGeometry x="803" y="2710" width="9" height="10" as="geometry" />
        </mxCell>
        <mxCell id="rvX-eDuPCvc2a1IursWo-359" value="" style="endArrow=classic;html=1;rounded=0;exitX=0.145;exitY=0.145;exitDx=0;exitDy=0;exitPerimeter=0;" parent="1" source="rvX-eDuPCvc2a1IursWo-358" edge="1">
          <mxGeometry width="50" height="50" relative="1" as="geometry">
            <mxPoint x="797.9950000000001" y="2711.45" as="sourcePoint" />
            <mxPoint x="747.79" y="2641" as="targetPoint" />
          </mxGeometry>
        </mxCell>
        <mxCell id="rvX-eDuPCvc2a1IursWo-360" value="&lt;font style=&quot;font-size: 14px;&quot;&gt;学生档案&lt;/font&gt;" style="text;strokeColor=none;fillColor=none;html=1;fontSize=15;fontStyle=0;verticalAlign=middle;align=center;rotation=45;" parent="1" vertex="1">
          <mxGeometry x="771.5" y="2651" width="51.5" height="40" as="geometry" />
        </mxCell>
        <mxCell id="rvX-eDuPCvc2a1IursWo-361" value="&lt;font style=&quot;font-size: 14px;&quot;&gt;学生档案&lt;/font&gt;" style="text;strokeColor=none;fillColor=none;html=1;fontSize=15;fontStyle=0;verticalAlign=middle;align=center;" parent="1" vertex="1">
          <mxGeometry x="950.5" y="2508" width="51.5" height="40" as="geometry" />
        </mxCell>
        <mxCell id="rvX-eDuPCvc2a1IursWo-362" value="" style="verticalLabelPosition=bottom;verticalAlign=top;html=1;shape=mxgraph.flowchart.on-page_reference;movable=1;resizable=1;rotatable=1;deletable=1;editable=1;locked=0;connectable=1;container=0;" parent="1" vertex="1">
          <mxGeometry x="771.5" y="2548" width="9" height="10" as="geometry" />
        </mxCell>
        <mxCell id="rvX-eDuPCvc2a1IursWo-363" value="" style="endArrow=classic;html=1;rounded=0;exitX=0.91;exitY=0.284;exitDx=0;exitDy=0;exitPerimeter=0;" parent="1" source="rvX-eDuPCvc2a1IursWo-362" edge="1">
          <mxGeometry width="50" height="50" relative="1" as="geometry">
            <mxPoint x="782.1220000000001" y="2552.76" as="sourcePoint" />
            <mxPoint x="965" y="2460" as="targetPoint" />
          </mxGeometry>
        </mxCell>
        <mxCell id="rvX-eDuPCvc2a1IursWo-364" value="" style="endArrow=classic;html=1;rounded=0;entryX=0.333;entryY=-0.056;entryDx=0;entryDy=0;entryPerimeter=0;exitX=0.5;exitY=1;exitDx=0;exitDy=0;exitPerimeter=0;" parent="1" source="rvX-eDuPCvc2a1IursWo-357" target="rvX-eDuPCvc2a1IursWo-327" edge="1">
          <mxGeometry width="50" height="50" relative="1" as="geometry">
            <mxPoint x="930" y="2560" as="sourcePoint" />
            <mxPoint x="980" y="2510" as="targetPoint" />
          </mxGeometry>
        </mxCell>
        <mxCell id="rvX-eDuPCvc2a1IursWo-365" value="&lt;font style=&quot;font-size: 14px;&quot;&gt;学生档案&lt;/font&gt;" style="text;strokeColor=none;fillColor=none;html=1;fontSize=15;fontStyle=0;verticalAlign=middle;align=center;rotation=-30;" parent="1" vertex="1">
          <mxGeometry x="812" y="2480" width="51.5" height="40" as="geometry" />
        </mxCell>
        <mxCell id="rvX-eDuPCvc2a1IursWo-366" value="" style="rounded=0;whiteSpace=wrap;html=1;" parent="1" vertex="1">
          <mxGeometry x="890" y="2730" width="120" height="60" as="geometry" />
        </mxCell>
        <mxCell id="rvX-eDuPCvc2a1IursWo-367" value="选择查询课程" style="text;strokeColor=none;fillColor=none;html=1;fontSize=15;fontStyle=0;verticalAlign=middle;align=center;" parent="1" vertex="1">
          <mxGeometry x="900" y="2740" width="102" height="40" as="geometry" />
        </mxCell>
        <mxCell id="rvX-eDuPCvc2a1IursWo-368" value="" style="verticalLabelPosition=bottom;verticalAlign=top;html=1;shape=mxgraph.flowchart.on-page_reference;movable=1;resizable=1;rotatable=1;deletable=1;editable=1;locked=0;connectable=1;container=0;" parent="1" vertex="1">
          <mxGeometry x="973" y="2641" width="9" height="10" as="geometry" />
        </mxCell>
        <mxCell id="rvX-eDuPCvc2a1IursWo-369" value="" style="endArrow=classic;html=1;rounded=0;exitX=0.145;exitY=0.855;exitDx=0;exitDy=0;exitPerimeter=0;entryX=0.385;entryY=0;entryDx=0;entryDy=0;entryPerimeter=0;" parent="1" source="rvX-eDuPCvc2a1IursWo-368" edge="1">
          <mxGeometry width="50" height="50" relative="1" as="geometry">
            <mxPoint x="973" y="2690" as="sourcePoint" />
            <mxPoint x="929.2" y="2729.9999999999995" as="targetPoint" />
          </mxGeometry>
        </mxCell>
        <mxCell id="rvX-eDuPCvc2a1IursWo-370" value="&lt;font style=&quot;font-size: 14px;&quot;&gt;学生档案&lt;/font&gt;" style="text;strokeColor=none;fillColor=none;html=1;fontSize=15;fontStyle=0;verticalAlign=middle;align=center;rotation=-55;" parent="1" vertex="1">
          <mxGeometry x="913.5" y="2670" width="51.5" height="21" as="geometry" />
        </mxCell>
        <mxCell id="rvX-eDuPCvc2a1IursWo-371" value="" style="endArrow=none;html=1;rounded=0;entryX=0.23;entryY=1.029;entryDx=0;entryDy=0;entryPerimeter=0;exitX=0.45;exitY=-0.019;exitDx=0;exitDy=0;exitPerimeter=0;" parent="1" source="rvX-eDuPCvc2a1IursWo-366" target="rvX-eDuPCvc2a1IursWo-327" edge="1">
          <mxGeometry width="50" height="50" relative="1" as="geometry">
            <mxPoint x="965" y="2706" as="sourcePoint" />
            <mxPoint x="1015" y="2656" as="targetPoint" />
          </mxGeometry>
        </mxCell>
        <mxCell id="rvX-eDuPCvc2a1IursWo-372" value="" style="verticalLabelPosition=bottom;verticalAlign=top;html=1;shape=mxgraph.flowchart.on-page_reference;movable=1;resizable=1;rotatable=1;deletable=1;editable=1;locked=0;connectable=1;container=0;" parent="1" vertex="1">
          <mxGeometry x="957" y="2720" width="9" height="10" as="geometry" />
        </mxCell>
        <mxCell id="rvX-eDuPCvc2a1IursWo-373" value="" style="endArrow=classic;html=1;rounded=0;exitX=0.855;exitY=0.145;exitDx=0;exitDy=0;exitPerimeter=0;entryX=0.356;entryY=1.044;entryDx=0;entryDy=0;entryPerimeter=0;" parent="1" source="rvX-eDuPCvc2a1IursWo-372" target="rvX-eDuPCvc2a1IursWo-327" edge="1">
          <mxGeometry width="50" height="50" relative="1" as="geometry">
            <mxPoint x="970" y="2710" as="sourcePoint" />
            <mxPoint x="1020" y="2660" as="targetPoint" />
          </mxGeometry>
        </mxCell>
        <mxCell id="rvX-eDuPCvc2a1IursWo-374" value="&lt;span style=&quot;font-size: 14px;&quot;&gt;课程文件&lt;/span&gt;" style="text;strokeColor=none;fillColor=none;html=1;fontSize=15;fontStyle=0;verticalAlign=middle;align=center;rotation=-60;" parent="1" vertex="1">
          <mxGeometry x="966" y="2690" width="51.5" height="20" as="geometry" />
        </mxCell>
        <mxCell id="rvX-eDuPCvc2a1IursWo-375" value="" style="rounded=0;whiteSpace=wrap;html=1;" parent="1" vertex="1">
          <mxGeometry x="1041" y="2730" width="120" height="60" as="geometry" />
        </mxCell>
        <mxCell id="rvX-eDuPCvc2a1IursWo-376" value="登记选课" style="text;strokeColor=none;fillColor=none;html=1;fontSize=15;fontStyle=0;verticalAlign=middle;align=center;" parent="1" vertex="1">
          <mxGeometry x="1051" y="2740" width="102" height="40" as="geometry" />
        </mxCell>
        <mxCell id="rvX-eDuPCvc2a1IursWo-377" value="" style="endArrow=none;html=1;rounded=0;entryX=0.697;entryY=1.006;entryDx=0;entryDy=0;entryPerimeter=0;exitX=0.5;exitY=0;exitDx=0;exitDy=0;" parent="1" source="rvX-eDuPCvc2a1IursWo-375" target="rvX-eDuPCvc2a1IursWo-327" edge="1">
          <mxGeometry width="50" height="50" relative="1" as="geometry">
            <mxPoint x="1080" y="2710" as="sourcePoint" />
            <mxPoint x="1130" y="2660" as="targetPoint" />
          </mxGeometry>
        </mxCell>
        <mxCell id="rvX-eDuPCvc2a1IursWo-378" value="" style="verticalLabelPosition=bottom;verticalAlign=top;html=1;shape=mxgraph.flowchart.on-page_reference;movable=1;resizable=1;rotatable=1;deletable=1;editable=1;locked=0;connectable=1;container=0;" parent="1" vertex="1">
          <mxGeometry x="1035" y="2641" width="9" height="9" as="geometry" />
        </mxCell>
        <mxCell id="rvX-eDuPCvc2a1IursWo-379" value="" style="endArrow=classic;html=1;rounded=0;entryX=0.396;entryY=-0.014;entryDx=0;entryDy=0;entryPerimeter=0;exitX=0.814;exitY=1.066;exitDx=0;exitDy=0;exitPerimeter=0;" parent="1" source="rvX-eDuPCvc2a1IursWo-378" target="rvX-eDuPCvc2a1IursWo-375" edge="1">
          <mxGeometry width="50" height="50" relative="1" as="geometry">
            <mxPoint x="1050" y="2650" as="sourcePoint" />
            <mxPoint x="1085.28" y="2566.68" as="targetPoint" />
          </mxGeometry>
        </mxCell>
        <mxCell id="rvX-eDuPCvc2a1IursWo-380" value="&lt;span style=&quot;font-size: 14px;&quot;&gt;课程文件&lt;/span&gt;" style="text;strokeColor=none;fillColor=none;html=1;fontSize=15;fontStyle=0;verticalAlign=middle;align=center;rotation=55;" parent="1" vertex="1">
          <mxGeometry x="1025.5" y="2680" width="51.5" height="20" as="geometry" />
        </mxCell>
        <mxCell id="rvX-eDuPCvc2a1IursWo-381" value="" style="verticalLabelPosition=bottom;verticalAlign=top;html=1;shape=mxgraph.flowchart.on-page_reference;movable=1;resizable=1;rotatable=1;deletable=1;editable=1;locked=0;connectable=1;container=0;" parent="1" vertex="1">
          <mxGeometry x="1109" y="2719" width="9" height="9" as="geometry" />
        </mxCell>
        <mxCell id="rvX-eDuPCvc2a1IursWo-382" value="" style="endArrow=classic;html=1;rounded=0;entryX=0.834;entryY=1.039;entryDx=0;entryDy=0;entryPerimeter=0;" parent="1" target="rvX-eDuPCvc2a1IursWo-327" edge="1">
          <mxGeometry width="50" height="50" relative="1" as="geometry">
            <mxPoint x="1112" y="2718.36" as="sourcePoint" />
            <mxPoint x="1073.24" y="2641" as="targetPoint" />
          </mxGeometry>
        </mxCell>
        <mxCell id="rvX-eDuPCvc2a1IursWo-383" value="&lt;span style=&quot;font-size: 14px;&quot;&gt;选课记录&lt;/span&gt;" style="text;strokeColor=none;fillColor=none;html=1;fontSize=15;fontStyle=0;verticalAlign=middle;align=center;rotation=60;" parent="1" vertex="1">
          <mxGeometry x="1078.5" y="2670" width="51.5" height="20" as="geometry" />
        </mxCell>
        <mxCell id="rvX-eDuPCvc2a1IursWo-384" value="" style="verticalLabelPosition=bottom;verticalAlign=top;html=1;shape=mxgraph.flowchart.on-page_reference;movable=1;resizable=1;rotatable=1;deletable=1;editable=1;locked=0;connectable=1;container=0;" parent="1" vertex="1">
          <mxGeometry x="1040" y="2563" width="9" height="9" as="geometry" />
        </mxCell>
        <mxCell id="rvX-eDuPCvc2a1IursWo-385" value="" style="endArrow=classic;html=1;rounded=0;entryX=0.658;entryY=1;entryDx=0;entryDy=0;entryPerimeter=0;exitX=0.5;exitY=0;exitDx=0;exitDy=0;exitPerimeter=0;" parent="1" target="rvX-eDuPCvc2a1IursWo-325" edge="1">
          <mxGeometry width="50" height="50" relative="1" as="geometry">
            <mxPoint x="1044" y="2563" as="sourcePoint" />
            <mxPoint x="1047.5" y="2472" as="targetPoint" />
          </mxGeometry>
        </mxCell>
        <mxCell id="rvX-eDuPCvc2a1IursWo-386" value="&lt;span style=&quot;font-size: 14px;&quot;&gt;选课记录&lt;/span&gt;" style="text;strokeColor=none;fillColor=none;html=1;fontSize=15;fontStyle=0;verticalAlign=middle;align=center;rotation=0;" parent="1" vertex="1">
          <mxGeometry x="1049" y="2518" width="51.5" height="20" as="geometry" />
        </mxCell>
        <mxCell id="rvX-eDuPCvc2a1IursWo-387" value="" style="verticalLabelPosition=bottom;verticalAlign=top;html=1;shape=mxgraph.flowchart.on-page_reference;movable=1;resizable=1;rotatable=1;deletable=1;editable=1;locked=0;connectable=1;container=0;" parent="1" vertex="1">
          <mxGeometry x="1106" y="2460" width="9" height="10" as="geometry" />
        </mxCell>
        <mxCell id="rvX-eDuPCvc2a1IursWo-388" value="" style="endArrow=classic;html=1;rounded=0;exitX=0.883;exitY=0.694;exitDx=0;exitDy=0;exitPerimeter=0;entryX=0.585;entryY=-0.033;entryDx=0;entryDy=0;entryPerimeter=0;" parent="1" source="rvX-eDuPCvc2a1IursWo-387" target="rvX-eDuPCvc2a1IursWo-338" edge="1">
          <mxGeometry width="50" height="50" relative="1" as="geometry">
            <mxPoint x="1141.122" y="2464.76" as="sourcePoint" />
            <mxPoint x="1300" y="2520" as="targetPoint" />
          </mxGeometry>
        </mxCell>
        <mxCell id="rvX-eDuPCvc2a1IursWo-389" value="&lt;span style=&quot;font-size: 14px;&quot;&gt;选课记录&lt;/span&gt;" style="text;strokeColor=none;fillColor=none;html=1;fontSize=15;fontStyle=0;verticalAlign=middle;align=center;rotation=30;" parent="1" vertex="1">
          <mxGeometry x="1200" y="2478" width="51.5" height="40" as="geometry" />
        </mxCell>
        <mxCell id="rvX-eDuPCvc2a1IursWo-390" value="" style="rounded=0;whiteSpace=wrap;html=1;" parent="1" vertex="1">
          <mxGeometry x="1396" y="2730" width="120" height="60" as="geometry" />
        </mxCell>
        <mxCell id="rvX-eDuPCvc2a1IursWo-391" value="打印课表" style="text;strokeColor=none;fillColor=none;html=1;fontSize=15;fontStyle=0;verticalAlign=middle;align=center;" parent="1" vertex="1">
          <mxGeometry x="1406" y="2740" width="102" height="40" as="geometry" />
        </mxCell>
        <mxCell id="rvX-eDuPCvc2a1IursWo-392" value="" style="rounded=0;whiteSpace=wrap;html=1;" parent="1" vertex="1">
          <mxGeometry x="1214" y="2730" width="120" height="60" as="geometry" />
        </mxCell>
        <mxCell id="rvX-eDuPCvc2a1IursWo-393" value="课表显示" style="text;strokeColor=none;fillColor=none;html=1;fontSize=15;fontStyle=0;verticalAlign=middle;align=center;" parent="1" vertex="1">
          <mxGeometry x="1224" y="2740" width="102" height="40" as="geometry" />
        </mxCell>
        <mxCell id="rvX-eDuPCvc2a1IursWo-394" value="" style="verticalLabelPosition=bottom;verticalAlign=top;html=1;shape=mxgraph.flowchart.on-page_reference;movable=1;resizable=1;rotatable=1;deletable=1;editable=1;locked=0;connectable=1;container=0;" parent="1" vertex="1">
          <mxGeometry x="1300" y="2642" width="9" height="9" as="geometry" />
        </mxCell>
        <mxCell id="rvX-eDuPCvc2a1IursWo-395" value="" style="endArrow=classic;html=1;rounded=0;entryX=0.209;entryY=1.021;entryDx=0;entryDy=0;entryPerimeter=0;exitX=0.25;exitY=0.929;exitDx=0;exitDy=0;exitPerimeter=0;" parent="1" source="rvX-eDuPCvc2a1IursWo-394" edge="1">
          <mxGeometry width="50" height="50" relative="1" as="geometry">
            <mxPoint x="1300" y="2650" as="sourcePoint" />
            <mxPoint x="1258.8899999999999" y="2728" as="targetPoint" />
          </mxGeometry>
        </mxCell>
        <mxCell id="rvX-eDuPCvc2a1IursWo-396" value="" style="verticalLabelPosition=bottom;verticalAlign=top;html=1;shape=mxgraph.flowchart.on-page_reference;movable=1;resizable=1;rotatable=1;deletable=1;editable=1;locked=0;connectable=1;container=0;" parent="1" vertex="1">
          <mxGeometry x="1998.5" y="2600" width="9" height="9" as="geometry" />
        </mxCell>
        <mxCell id="rvX-eDuPCvc2a1IursWo-397" value="" style="endArrow=classic;html=1;rounded=0;entryX=0.658;entryY=1;entryDx=0;entryDy=0;entryPerimeter=0;exitX=0.5;exitY=0;exitDx=0;exitDy=0;exitPerimeter=0;" parent="1" edge="1">
          <mxGeometry width="50" height="50" relative="1" as="geometry">
            <mxPoint x="2002.5" y="2600" as="sourcePoint" />
            <mxPoint x="2002.5" y="2497" as="targetPoint" />
          </mxGeometry>
        </mxCell>
        <mxCell id="rvX-eDuPCvc2a1IursWo-398" value="" style="endArrow=none;html=1;rounded=0;entryX=0.31;entryY=1.028;entryDx=0;entryDy=0;entryPerimeter=0;" parent="1" target="rvX-eDuPCvc2a1IursWo-338" edge="1">
          <mxGeometry width="50" height="50" relative="1" as="geometry">
            <mxPoint x="1270" y="2730" as="sourcePoint" />
            <mxPoint x="1320" y="2680" as="targetPoint" />
          </mxGeometry>
        </mxCell>
        <mxCell id="rvX-eDuPCvc2a1IursWo-399" value="" style="endArrow=none;html=1;rounded=0;entryX=0.439;entryY=-0.028;entryDx=0;entryDy=0;entryPerimeter=0;exitX=0.782;exitY=1.035;exitDx=0;exitDy=0;exitPerimeter=0;" parent="1" source="rvX-eDuPCvc2a1IursWo-338" target="rvX-eDuPCvc2a1IursWo-390" edge="1">
          <mxGeometry width="50" height="50" relative="1" as="geometry">
            <mxPoint x="1390" y="2720" as="sourcePoint" />
            <mxPoint x="1440" y="2670" as="targetPoint" />
          </mxGeometry>
        </mxCell>
        <mxCell id="rvX-eDuPCvc2a1IursWo-400" value="&lt;span style=&quot;font-size: 14px;&quot;&gt;选课记录&lt;/span&gt;" style="text;strokeColor=none;fillColor=none;html=1;fontSize=15;fontStyle=0;verticalAlign=middle;align=center;rotation=-60;" parent="1" vertex="1">
          <mxGeometry x="1242.5" y="2651" width="51.5" height="40" as="geometry" />
        </mxCell>
        <mxCell id="rvX-eDuPCvc2a1IursWo-401" value="" style="verticalLabelPosition=bottom;verticalAlign=top;html=1;shape=mxgraph.flowchart.on-page_reference;movable=1;resizable=1;rotatable=1;deletable=1;editable=1;locked=0;connectable=1;container=0;" parent="1" vertex="1">
          <mxGeometry x="1285" y="2721" width="9" height="9" as="geometry" />
        </mxCell>
        <mxCell id="rvX-eDuPCvc2a1IursWo-402" value="" style="endArrow=classic;html=1;rounded=0;entryX=0.391;entryY=1.039;entryDx=0;entryDy=0;entryPerimeter=0;exitX=0.5;exitY=0;exitDx=0;exitDy=0;exitPerimeter=0;" parent="1" target="rvX-eDuPCvc2a1IursWo-338" edge="1">
          <mxGeometry width="50" height="50" relative="1" as="geometry">
            <mxPoint x="1289" y="2721" as="sourcePoint" />
            <mxPoint x="1289" y="2618" as="targetPoint" />
          </mxGeometry>
        </mxCell>
        <mxCell id="rvX-eDuPCvc2a1IursWo-403" value="&lt;span style=&quot;font-size: 14px;&quot;&gt;课表&lt;/span&gt;" style="text;strokeColor=none;fillColor=none;html=1;fontSize=15;fontStyle=0;verticalAlign=middle;align=center;rotation=-60;" parent="1" vertex="1">
          <mxGeometry x="1294" y="2670" width="51.5" height="40" as="geometry" />
        </mxCell>
        <mxCell id="rvX-eDuPCvc2a1IursWo-404" value="" style="verticalLabelPosition=bottom;verticalAlign=top;html=1;shape=mxgraph.flowchart.on-page_reference;movable=1;resizable=1;rotatable=1;deletable=1;editable=1;locked=0;connectable=1;container=0;" parent="1" vertex="1">
          <mxGeometry x="1397" y="2641" width="9" height="9" as="geometry" />
        </mxCell>
        <mxCell id="rvX-eDuPCvc2a1IursWo-405" value="" style="endArrow=classic;html=1;rounded=0;exitX=0.5;exitY=0;exitDx=0;exitDy=0;exitPerimeter=0;" parent="1" edge="1">
          <mxGeometry width="50" height="50" relative="1" as="geometry">
            <mxPoint x="1406" y="2649" as="sourcePoint" />
            <mxPoint x="1472.5" y="2728" as="targetPoint" />
          </mxGeometry>
        </mxCell>
        <mxCell id="rvX-eDuPCvc2a1IursWo-406" value="&lt;span style=&quot;font-size: 14px;&quot;&gt;课表&lt;/span&gt;" style="text;strokeColor=none;fillColor=none;html=1;fontSize=15;fontStyle=0;verticalAlign=middle;align=center;rotation=45;" parent="1" vertex="1">
          <mxGeometry x="1416" y="2651" width="51.5" height="40" as="geometry" />
        </mxCell>
        <mxCell id="rvX-eDuPCvc2a1IursWo-407" value="" style="rounded=0;whiteSpace=wrap;html=1;" parent="1" vertex="1">
          <mxGeometry x="1585" y="2940" width="120" height="60" as="geometry" />
        </mxCell>
        <mxCell id="rvX-eDuPCvc2a1IursWo-408" value="数据求解系统" style="text;strokeColor=none;fillColor=none;html=1;fontSize=15;fontStyle=0;verticalAlign=middle;align=center;" parent="1" vertex="1">
          <mxGeometry x="1595" y="2950" width="102" height="40" as="geometry" />
        </mxCell>
        <mxCell id="rvX-eDuPCvc2a1IursWo-409" value="" style="rounded=0;whiteSpace=wrap;html=1;" parent="1" vertex="1">
          <mxGeometry x="1586" y="3120" width="120" height="60" as="geometry" />
        </mxCell>
        <mxCell id="rvX-eDuPCvc2a1IursWo-410" value="数据求解" style="text;strokeColor=none;fillColor=none;html=1;fontSize=15;fontStyle=0;verticalAlign=middle;align=center;" parent="1" vertex="1">
          <mxGeometry x="1596" y="3130" width="102" height="40" as="geometry" />
        </mxCell>
        <mxCell id="rvX-eDuPCvc2a1IursWo-411" value="" style="endArrow=none;html=1;rounded=0;exitX=0.484;exitY=-0.004;exitDx=0;exitDy=0;exitPerimeter=0;" parent="1" source="rvX-eDuPCvc2a1IursWo-409" edge="1">
          <mxGeometry width="50" height="50" relative="1" as="geometry">
            <mxPoint x="1593" y="3050" as="sourcePoint" />
            <mxPoint x="1643" y="3000" as="targetPoint" />
          </mxGeometry>
        </mxCell>
        <mxCell id="rvX-eDuPCvc2a1IursWo-412" value="" style="rounded=0;whiteSpace=wrap;html=1;" parent="1" vertex="1">
          <mxGeometry x="1904" y="3120" width="120" height="60" as="geometry" />
        </mxCell>
        <mxCell id="rvX-eDuPCvc2a1IursWo-413" value="逻辑输出" style="text;strokeColor=none;fillColor=none;html=1;fontSize=15;fontStyle=0;verticalAlign=middle;align=center;" parent="1" vertex="1">
          <mxGeometry x="1914" y="3130" width="102" height="40" as="geometry" />
        </mxCell>
        <mxCell id="rvX-eDuPCvc2a1IursWo-414" value="" style="endArrow=none;html=1;rounded=0;exitX=0.451;exitY=-0.005;exitDx=0;exitDy=0;exitPerimeter=0;entryX=0.832;entryY=1.014;entryDx=0;entryDy=0;entryPerimeter=0;" parent="1" source="rvX-eDuPCvc2a1IursWo-412" target="rvX-eDuPCvc2a1IursWo-407" edge="1">
          <mxGeometry width="50" height="50" relative="1" as="geometry">
            <mxPoint x="1851" y="3060" as="sourcePoint" />
            <mxPoint x="1901" y="3010" as="targetPoint" />
          </mxGeometry>
        </mxCell>
        <mxCell id="rvX-eDuPCvc2a1IursWo-415" value="" style="rounded=0;whiteSpace=wrap;html=1;" parent="1" vertex="1">
          <mxGeometry x="1288" y="3120" width="120" height="60" as="geometry" />
        </mxCell>
        <mxCell id="rvX-eDuPCvc2a1IursWo-416" value="逻辑输入" style="text;strokeColor=none;fillColor=none;html=1;fontSize=15;fontStyle=0;verticalAlign=middle;align=center;" parent="1" vertex="1">
          <mxGeometry x="1298" y="3130" width="102" height="40" as="geometry" />
        </mxCell>
        <mxCell id="rvX-eDuPCvc2a1IursWo-417" value="" style="endArrow=none;html=1;rounded=0;exitX=0.58;exitY=-0.008;exitDx=0;exitDy=0;exitPerimeter=0;entryX=0.166;entryY=0.99;entryDx=0;entryDy=0;entryPerimeter=0;" parent="1" source="rvX-eDuPCvc2a1IursWo-415" target="rvX-eDuPCvc2a1IursWo-407" edge="1">
          <mxGeometry width="50" height="50" relative="1" as="geometry">
            <mxPoint x="1322" y="3050" as="sourcePoint" />
            <mxPoint x="1372" y="3010" as="targetPoint" />
          </mxGeometry>
        </mxCell>
        <mxCell id="rvX-eDuPCvc2a1IursWo-418" value="" style="rounded=0;whiteSpace=wrap;html=1;" parent="1" vertex="1">
          <mxGeometry x="1168" y="3270" width="120" height="60" as="geometry" />
        </mxCell>
        <mxCell id="rvX-eDuPCvc2a1IursWo-419" value="读入数据" style="text;strokeColor=none;fillColor=none;html=1;fontSize=15;fontStyle=0;verticalAlign=middle;align=center;" parent="1" vertex="1">
          <mxGeometry x="1178" y="3280" width="102" height="40" as="geometry" />
        </mxCell>
        <mxCell id="rvX-eDuPCvc2a1IursWo-420" value="" style="endArrow=classic;html=1;rounded=0;movable=1;resizable=1;rotatable=1;deletable=1;editable=1;locked=0;connectable=1;exitX=0.855;exitY=0.145;exitDx=0;exitDy=0;exitPerimeter=0;entryX=0.205;entryY=1.015;entryDx=0;entryDy=0;entryPerimeter=0;" parent="1" source="rvX-eDuPCvc2a1IursWo-422" target="rvX-eDuPCvc2a1IursWo-415" edge="1">
          <mxGeometry width="50" height="50" relative="1" as="geometry">
            <mxPoint x="1314.6950000000002" y="3251.45" as="sourcePoint" />
            <mxPoint x="1338" y="3180" as="targetPoint" />
          </mxGeometry>
        </mxCell>
        <mxCell id="rvX-eDuPCvc2a1IursWo-421" value="" style="strokeWidth=2;html=1;shape=mxgraph.flowchart.start_2;whiteSpace=wrap;movable=1;resizable=1;rotatable=1;deletable=1;editable=1;locked=0;connectable=1;container=0;" parent="1" vertex="1">
          <mxGeometry x="1329" y="3240" width="10" as="geometry" />
        </mxCell>
        <mxCell id="rvX-eDuPCvc2a1IursWo-422" value="" style="verticalLabelPosition=bottom;verticalAlign=top;html=1;shape=mxgraph.flowchart.on-page_reference;movable=1;resizable=1;rotatable=1;deletable=1;editable=1;locked=0;connectable=1;container=0;" parent="1" vertex="1">
          <mxGeometry x="1223.5" y="3250" width="9" height="10" as="geometry" />
        </mxCell>
        <mxCell id="rvX-eDuPCvc2a1IursWo-423" value="&lt;font style=&quot;font-size: 14px;&quot;&gt;原始数据&lt;/font&gt;" style="text;strokeColor=none;fillColor=none;html=1;fontSize=15;fontStyle=0;verticalAlign=middle;align=center;rotation=45;" parent="1" vertex="1">
          <mxGeometry x="1334" y="3219" width="51.5" height="40" as="geometry" />
        </mxCell>
        <mxCell id="rvX-eDuPCvc2a1IursWo-424" value="" style="endArrow=none;html=1;rounded=0;exitX=0.538;exitY=-0.008;exitDx=0;exitDy=0;exitPerimeter=0;entryX=0.401;entryY=1.015;entryDx=0;entryDy=0;entryPerimeter=0;" parent="1" source="rvX-eDuPCvc2a1IursWo-418" target="rvX-eDuPCvc2a1IursWo-415" edge="1">
          <mxGeometry width="50" height="50" relative="1" as="geometry">
            <mxPoint x="1293" y="3230" as="sourcePoint" />
            <mxPoint x="1343" y="3180" as="targetPoint" />
          </mxGeometry>
        </mxCell>
        <mxCell id="rvX-eDuPCvc2a1IursWo-425" value="" style="rounded=0;whiteSpace=wrap;html=1;" parent="1" vertex="1">
          <mxGeometry x="1359" y="3270" width="120" height="60" as="geometry" />
        </mxCell>
        <mxCell id="rvX-eDuPCvc2a1IursWo-426" value="编辑数据" style="text;strokeColor=none;fillColor=none;html=1;fontSize=15;fontStyle=0;verticalAlign=middle;align=center;" parent="1" vertex="1">
          <mxGeometry x="1369" y="3280" width="102" height="40" as="geometry" />
        </mxCell>
        <mxCell id="rvX-eDuPCvc2a1IursWo-427" value="" style="verticalLabelPosition=bottom;verticalAlign=top;html=1;shape=mxgraph.flowchart.on-page_reference;movable=1;resizable=1;rotatable=1;deletable=1;editable=1;locked=0;connectable=1;container=0;" parent="1" vertex="1">
          <mxGeometry x="1338" y="3190" width="9" height="10" as="geometry" />
        </mxCell>
        <mxCell id="rvX-eDuPCvc2a1IursWo-428" value="" style="endArrow=none;html=1;rounded=0;exitX=0.477;exitY=1.001;exitDx=0;exitDy=0;exitPerimeter=0;entryX=0.5;entryY=0;entryDx=0;entryDy=0;" parent="1" source="rvX-eDuPCvc2a1IursWo-415" target="rvX-eDuPCvc2a1IursWo-425" edge="1">
          <mxGeometry width="50" height="50" relative="1" as="geometry">
            <mxPoint x="1373" y="3240" as="sourcePoint" />
            <mxPoint x="1423" y="3190" as="targetPoint" />
          </mxGeometry>
        </mxCell>
        <mxCell id="rvX-eDuPCvc2a1IursWo-429" value="" style="endArrow=classic;html=1;rounded=0;exitX=0.855;exitY=0.855;exitDx=0;exitDy=0;exitPerimeter=0;" parent="1" source="rvX-eDuPCvc2a1IursWo-427" edge="1">
          <mxGeometry width="50" height="50" relative="1" as="geometry">
            <mxPoint x="1353" y="3209" as="sourcePoint" />
            <mxPoint x="1403.3" y="3270" as="targetPoint" />
          </mxGeometry>
        </mxCell>
        <mxCell id="rvX-eDuPCvc2a1IursWo-430" value="&lt;font style=&quot;font-size: 14px;&quot;&gt;原始数据&lt;/font&gt;" style="text;strokeColor=none;fillColor=none;html=1;fontSize=15;fontStyle=0;verticalAlign=middle;align=center;rotation=-40;" parent="1" vertex="1">
          <mxGeometry x="1223.5" y="3191" width="51.5" height="40" as="geometry" />
        </mxCell>
        <mxCell id="rvX-eDuPCvc2a1IursWo-431" value="" style="verticalLabelPosition=bottom;verticalAlign=top;html=1;shape=mxgraph.flowchart.on-page_reference;movable=1;resizable=1;rotatable=1;deletable=1;editable=1;locked=0;connectable=1;container=0;" parent="1" vertex="1">
          <mxGeometry x="1621" y="3010" width="9" height="10" as="geometry" />
        </mxCell>
        <mxCell id="rvX-eDuPCvc2a1IursWo-432" value="" style="verticalLabelPosition=bottom;verticalAlign=top;html=1;shape=mxgraph.flowchart.on-page_reference;movable=1;resizable=1;rotatable=1;deletable=1;editable=1;locked=0;connectable=1;container=0;" parent="1" vertex="1">
          <mxGeometry x="1423" y="3250" width="9" height="10" as="geometry" />
        </mxCell>
        <mxCell id="rvX-eDuPCvc2a1IursWo-433" value="" style="endArrow=classic;html=1;rounded=0;exitX=0.145;exitY=0.145;exitDx=0;exitDy=0;exitPerimeter=0;" parent="1" source="rvX-eDuPCvc2a1IursWo-432" edge="1">
          <mxGeometry width="50" height="50" relative="1" as="geometry">
            <mxPoint x="1417.9950000000001" y="3251.45" as="sourcePoint" />
            <mxPoint x="1367.79" y="3181" as="targetPoint" />
          </mxGeometry>
        </mxCell>
        <mxCell id="rvX-eDuPCvc2a1IursWo-434" value="&lt;span style=&quot;font-size: 14px;&quot;&gt;正确数据&lt;/span&gt;" style="text;strokeColor=none;fillColor=none;html=1;fontSize=15;fontStyle=0;verticalAlign=middle;align=center;rotation=45;" parent="1" vertex="1">
          <mxGeometry x="1391.5" y="3191" width="51.5" height="40" as="geometry" />
        </mxCell>
        <mxCell id="rvX-eDuPCvc2a1IursWo-435" value="&lt;font style=&quot;font-size: 14px;&quot;&gt;正确数据&lt;/font&gt;" style="text;strokeColor=none;fillColor=none;html=1;fontSize=15;fontStyle=0;verticalAlign=middle;align=center;" parent="1" vertex="1">
          <mxGeometry x="1570.5" y="3048" width="51.5" height="40" as="geometry" />
        </mxCell>
        <mxCell id="rvX-eDuPCvc2a1IursWo-436" value="" style="verticalLabelPosition=bottom;verticalAlign=top;html=1;shape=mxgraph.flowchart.on-page_reference;movable=1;resizable=1;rotatable=1;deletable=1;editable=1;locked=0;connectable=1;container=0;" parent="1" vertex="1">
          <mxGeometry x="1391.5" y="3088" width="9" height="10" as="geometry" />
        </mxCell>
        <mxCell id="rvX-eDuPCvc2a1IursWo-437" value="" style="endArrow=classic;html=1;rounded=0;exitX=0.91;exitY=0.284;exitDx=0;exitDy=0;exitPerimeter=0;" parent="1" source="rvX-eDuPCvc2a1IursWo-436" edge="1">
          <mxGeometry width="50" height="50" relative="1" as="geometry">
            <mxPoint x="1402.122" y="3092.76" as="sourcePoint" />
            <mxPoint x="1585" y="3000" as="targetPoint" />
          </mxGeometry>
        </mxCell>
        <mxCell id="rvX-eDuPCvc2a1IursWo-438" value="" style="endArrow=classic;html=1;rounded=0;entryX=0.333;entryY=-0.056;entryDx=0;entryDy=0;entryPerimeter=0;exitX=0.5;exitY=1;exitDx=0;exitDy=0;exitPerimeter=0;" parent="1" source="rvX-eDuPCvc2a1IursWo-431" target="rvX-eDuPCvc2a1IursWo-409" edge="1">
          <mxGeometry width="50" height="50" relative="1" as="geometry">
            <mxPoint x="1550" y="3100" as="sourcePoint" />
            <mxPoint x="1600" y="3050" as="targetPoint" />
          </mxGeometry>
        </mxCell>
        <mxCell id="rvX-eDuPCvc2a1IursWo-439" value="&lt;font style=&quot;font-size: 14px;&quot;&gt;正确数据&lt;/font&gt;" style="text;strokeColor=none;fillColor=none;html=1;fontSize=15;fontStyle=0;verticalAlign=middle;align=center;rotation=-30;" parent="1" vertex="1">
          <mxGeometry x="1432" y="3020" width="51.5" height="40" as="geometry" />
        </mxCell>
        <mxCell id="rvX-eDuPCvc2a1IursWo-440" value="" style="verticalLabelPosition=bottom;verticalAlign=top;html=1;shape=mxgraph.flowchart.on-page_reference;movable=1;resizable=1;rotatable=1;deletable=1;editable=1;locked=0;connectable=1;container=0;" parent="1" vertex="1">
          <mxGeometry x="1660" y="3103" width="9" height="9" as="geometry" />
        </mxCell>
        <mxCell id="rvX-eDuPCvc2a1IursWo-441" value="" style="endArrow=classic;html=1;rounded=0;entryX=0.658;entryY=1;entryDx=0;entryDy=0;entryPerimeter=0;exitX=0.5;exitY=0;exitDx=0;exitDy=0;exitPerimeter=0;" parent="1" target="rvX-eDuPCvc2a1IursWo-407" edge="1">
          <mxGeometry width="50" height="50" relative="1" as="geometry">
            <mxPoint x="1664" y="3103" as="sourcePoint" />
            <mxPoint x="1667.5" y="3012" as="targetPoint" />
          </mxGeometry>
        </mxCell>
        <mxCell id="rvX-eDuPCvc2a1IursWo-442" value="&lt;span style=&quot;font-size: 14px;&quot;&gt;解&lt;/span&gt;" style="text;strokeColor=none;fillColor=none;html=1;fontSize=15;fontStyle=0;verticalAlign=middle;align=center;rotation=0;" parent="1" vertex="1">
          <mxGeometry x="1669" y="3058" width="51.5" height="20" as="geometry" />
        </mxCell>
        <mxCell id="rvX-eDuPCvc2a1IursWo-443" value="" style="verticalLabelPosition=bottom;verticalAlign=top;html=1;shape=mxgraph.flowchart.on-page_reference;movable=1;resizable=1;rotatable=1;deletable=1;editable=1;locked=0;connectable=1;container=0;" parent="1" vertex="1">
          <mxGeometry x="1726" y="3000" width="9" height="10" as="geometry" />
        </mxCell>
        <mxCell id="rvX-eDuPCvc2a1IursWo-444" value="" style="endArrow=classic;html=1;rounded=0;exitX=0.883;exitY=0.694;exitDx=0;exitDy=0;exitPerimeter=0;entryX=0.585;entryY=-0.033;entryDx=0;entryDy=0;entryPerimeter=0;" parent="1" source="rvX-eDuPCvc2a1IursWo-443" target="rvX-eDuPCvc2a1IursWo-412" edge="1">
          <mxGeometry width="50" height="50" relative="1" as="geometry">
            <mxPoint x="1761.122" y="3004.76" as="sourcePoint" />
            <mxPoint x="1920" y="3060" as="targetPoint" />
          </mxGeometry>
        </mxCell>
        <mxCell id="rvX-eDuPCvc2a1IursWo-445" value="&lt;span style=&quot;font-size: 14px;&quot;&gt;解&lt;/span&gt;" style="text;strokeColor=none;fillColor=none;html=1;fontSize=15;fontStyle=0;verticalAlign=middle;align=center;rotation=30;" parent="1" vertex="1">
          <mxGeometry x="1820" y="3018" width="51.5" height="40" as="geometry" />
        </mxCell>
        <mxCell id="rvX-eDuPCvc2a1IursWo-446" value="" style="rounded=0;whiteSpace=wrap;html=1;" parent="1" vertex="1">
          <mxGeometry x="2016" y="3270" width="120" height="60" as="geometry" />
        </mxCell>
        <mxCell id="rvX-eDuPCvc2a1IursWo-447" value="打印输出" style="text;strokeColor=none;fillColor=none;html=1;fontSize=15;fontStyle=0;verticalAlign=middle;align=center;" parent="1" vertex="1">
          <mxGeometry x="2026" y="3280" width="102" height="40" as="geometry" />
        </mxCell>
        <mxCell id="rvX-eDuPCvc2a1IursWo-448" value="" style="rounded=0;whiteSpace=wrap;html=1;" parent="1" vertex="1">
          <mxGeometry x="1834" y="3270" width="120" height="60" as="geometry" />
        </mxCell>
        <mxCell id="rvX-eDuPCvc2a1IursWo-449" value="编辑格式" style="text;strokeColor=none;fillColor=none;html=1;fontSize=15;fontStyle=0;verticalAlign=middle;align=center;" parent="1" vertex="1">
          <mxGeometry x="1844" y="3280" width="102" height="40" as="geometry" />
        </mxCell>
        <mxCell id="rvX-eDuPCvc2a1IursWo-450" value="" style="verticalLabelPosition=bottom;verticalAlign=top;html=1;shape=mxgraph.flowchart.on-page_reference;movable=1;resizable=1;rotatable=1;deletable=1;editable=1;locked=0;connectable=1;container=0;" parent="1" vertex="1">
          <mxGeometry x="1920" y="3182" width="9" height="9" as="geometry" />
        </mxCell>
        <mxCell id="rvX-eDuPCvc2a1IursWo-451" value="" style="endArrow=classic;html=1;rounded=0;entryX=0.209;entryY=1.021;entryDx=0;entryDy=0;entryPerimeter=0;exitX=0.25;exitY=0.929;exitDx=0;exitDy=0;exitPerimeter=0;" parent="1" source="rvX-eDuPCvc2a1IursWo-450" edge="1">
          <mxGeometry width="50" height="50" relative="1" as="geometry">
            <mxPoint x="1920" y="3190" as="sourcePoint" />
            <mxPoint x="1878.8899999999999" y="3268" as="targetPoint" />
          </mxGeometry>
        </mxCell>
        <mxCell id="rvX-eDuPCvc2a1IursWo-452" value="" style="endArrow=none;html=1;rounded=0;entryX=0.31;entryY=1.028;entryDx=0;entryDy=0;entryPerimeter=0;" parent="1" target="rvX-eDuPCvc2a1IursWo-412" edge="1">
          <mxGeometry width="50" height="50" relative="1" as="geometry">
            <mxPoint x="1890" y="3270" as="sourcePoint" />
            <mxPoint x="1940" y="3220" as="targetPoint" />
          </mxGeometry>
        </mxCell>
        <mxCell id="rvX-eDuPCvc2a1IursWo-453" value="" style="endArrow=none;html=1;rounded=0;entryX=0.439;entryY=-0.028;entryDx=0;entryDy=0;entryPerimeter=0;exitX=0.782;exitY=1.035;exitDx=0;exitDy=0;exitPerimeter=0;" parent="1" source="rvX-eDuPCvc2a1IursWo-412" target="rvX-eDuPCvc2a1IursWo-446" edge="1">
          <mxGeometry width="50" height="50" relative="1" as="geometry">
            <mxPoint x="2010" y="3260" as="sourcePoint" />
            <mxPoint x="2060" y="3210" as="targetPoint" />
          </mxGeometry>
        </mxCell>
        <mxCell id="rvX-eDuPCvc2a1IursWo-454" value="&lt;span style=&quot;font-size: 14px;&quot;&gt;解&lt;/span&gt;" style="text;strokeColor=none;fillColor=none;html=1;fontSize=15;fontStyle=0;verticalAlign=middle;align=center;rotation=-60;" parent="1" vertex="1">
          <mxGeometry x="1862.5" y="3191" width="51.5" height="40" as="geometry" />
        </mxCell>
        <mxCell id="rvX-eDuPCvc2a1IursWo-455" value="" style="verticalLabelPosition=bottom;verticalAlign=top;html=1;shape=mxgraph.flowchart.on-page_reference;movable=1;resizable=1;rotatable=1;deletable=1;editable=1;locked=0;connectable=1;container=0;" parent="1" vertex="1">
          <mxGeometry x="1905" y="3261" width="9" height="9" as="geometry" />
        </mxCell>
        <mxCell id="rvX-eDuPCvc2a1IursWo-456" value="" style="endArrow=classic;html=1;rounded=0;entryX=0.391;entryY=1.039;entryDx=0;entryDy=0;entryPerimeter=0;exitX=0.5;exitY=0;exitDx=0;exitDy=0;exitPerimeter=0;" parent="1" target="rvX-eDuPCvc2a1IursWo-412" edge="1">
          <mxGeometry width="50" height="50" relative="1" as="geometry">
            <mxPoint x="1909" y="3261" as="sourcePoint" />
            <mxPoint x="1909" y="3158" as="targetPoint" />
          </mxGeometry>
        </mxCell>
        <mxCell id="rvX-eDuPCvc2a1IursWo-457" value="&lt;span style=&quot;font-size: 14px;&quot;&gt;格式化解&lt;/span&gt;" style="text;strokeColor=none;fillColor=none;html=1;fontSize=15;fontStyle=0;verticalAlign=middle;align=center;rotation=-60;" parent="1" vertex="1">
          <mxGeometry x="1914" y="3210" width="51.5" height="40" as="geometry" />
        </mxCell>
        <mxCell id="rvX-eDuPCvc2a1IursWo-458" value="" style="verticalLabelPosition=bottom;verticalAlign=top;html=1;shape=mxgraph.flowchart.on-page_reference;movable=1;resizable=1;rotatable=1;deletable=1;editable=1;locked=0;connectable=1;container=0;" parent="1" vertex="1">
          <mxGeometry x="2017" y="3181" width="9" height="9" as="geometry" />
        </mxCell>
        <mxCell id="rvX-eDuPCvc2a1IursWo-459" value="" style="endArrow=classic;html=1;rounded=0;exitX=0.5;exitY=0;exitDx=0;exitDy=0;exitPerimeter=0;" parent="1" edge="1">
          <mxGeometry width="50" height="50" relative="1" as="geometry">
            <mxPoint x="2026" y="3189" as="sourcePoint" />
            <mxPoint x="2092.5" y="3268" as="targetPoint" />
          </mxGeometry>
        </mxCell>
        <mxCell id="rvX-eDuPCvc2a1IursWo-460" value="&lt;span style=&quot;font-size: 14px;&quot;&gt;输出解&lt;/span&gt;" style="text;strokeColor=none;fillColor=none;html=1;fontSize=15;fontStyle=0;verticalAlign=middle;align=center;rotation=45;" parent="1" vertex="1">
          <mxGeometry x="2036" y="3191" width="51.5" height="40" as="geometry" />
        </mxCell>
        <mxCell id="8aWEn5WDfg_AD6E0mP8r-12" value="用户数据" style="edgeStyle=orthogonalEdgeStyle;rounded=0;orthogonalLoop=1;jettySize=auto;html=1;exitX=1;exitY=0.5;exitDx=0;exitDy=0;" parent="1" source="8aWEn5WDfg_AD6E0mP8r-10" target="8aWEn5WDfg_AD6E0mP8r-11" edge="1">
          <mxGeometry relative="1" as="geometry" />
        </mxCell>
        <mxCell id="8aWEn5WDfg_AD6E0mP8r-13" value="输入" style="edgeLabel;html=1;align=center;verticalAlign=middle;resizable=0;points=[];" parent="8aWEn5WDfg_AD6E0mP8r-12" vertex="1" connectable="0">
          <mxGeometry x="0.0145" y="3" relative="1" as="geometry">
            <mxPoint x="1" as="offset" />
          </mxGeometry>
        </mxCell>
        <mxCell id="8aWEn5WDfg_AD6E0mP8r-10" value="旅行社" style="rounded=0;whiteSpace=wrap;html=1;" parent="1" vertex="1">
          <mxGeometry x="480" y="3610" width="120" height="60" as="geometry" />
        </mxCell>
        <mxCell id="8aWEn5WDfg_AD6E0mP8r-11" value="输入系统" style="rounded=1;whiteSpace=wrap;html=1;" parent="1" vertex="1">
          <mxGeometry x="692" y="3610" width="120" height="60" as="geometry" />
        </mxCell>
        <mxCell id="8aWEn5WDfg_AD6E0mP8r-14" value="用户数据&lt;br&gt;" style="strokeWidth=2;html=1;shape=mxgraph.flowchart.database;whiteSpace=wrap;" parent="1" vertex="1">
          <mxGeometry x="722" y="3760" width="60" height="60" as="geometry" />
        </mxCell>
        <mxCell id="8aWEn5WDfg_AD6E0mP8r-15" style="edgeStyle=orthogonalEdgeStyle;rounded=0;orthogonalLoop=1;jettySize=auto;html=1;exitX=0.5;exitY=1;exitDx=0;exitDy=0;entryX=0.5;entryY=0;entryDx=0;entryDy=0;entryPerimeter=0;" parent="1" source="8aWEn5WDfg_AD6E0mP8r-11" target="8aWEn5WDfg_AD6E0mP8r-14" edge="1">
          <mxGeometry relative="1" as="geometry" />
        </mxCell>
        <mxCell id="8aWEn5WDfg_AD6E0mP8r-16" value="" style="rounded=1;whiteSpace=wrap;html=1;" parent="1" vertex="1">
          <mxGeometry x="610" y="3903.9999999999995" width="120" height="60" as="geometry" />
        </mxCell>
        <mxCell id="8aWEn5WDfg_AD6E0mP8r-17" value="" style="endArrow=classic;html=1;rounded=0;exitX=0.5;exitY=1;exitDx=0;exitDy=0;" parent="1" source="8aWEn5WDfg_AD6E0mP8r-16" edge="1">
          <mxGeometry width="50" height="50" relative="1" as="geometry">
            <mxPoint x="670" y="4063.9999999999995" as="sourcePoint" />
            <mxPoint x="670" y="4043.9999999999995" as="targetPoint" />
          </mxGeometry>
        </mxCell>
        <mxCell id="8aWEn5WDfg_AD6E0mP8r-18" value="&lt;span style=&quot;font-weight: normal;&quot;&gt;&lt;font style=&quot;font-size: 15px;&quot;&gt;复印命令&lt;/font&gt;&lt;/span&gt;" style="text;strokeColor=none;fillColor=none;html=1;fontSize=24;fontStyle=1;verticalAlign=middle;align=center;" parent="1" vertex="1">
          <mxGeometry x="667" y="3983.9999999999995" width="70" height="30" as="geometry" />
        </mxCell>
        <mxCell id="8aWEn5WDfg_AD6E0mP8r-19" value="" style="rounded=1;whiteSpace=wrap;html=1;" parent="1" vertex="1">
          <mxGeometry x="610" y="4043.9999999999995" width="120" height="80" as="geometry" />
        </mxCell>
        <mxCell id="8aWEn5WDfg_AD6E0mP8r-20" value="&lt;span style=&quot;font-weight: normal;&quot;&gt;&lt;font style=&quot;font-size: 17px;&quot;&gt;闲置&lt;/font&gt;&lt;/span&gt;" style="text;strokeColor=none;fillColor=none;html=1;fontSize=24;fontStyle=1;verticalAlign=middle;align=center;" parent="1" vertex="1">
          <mxGeometry x="630" y="3913.9999999999995" width="80" height="40" as="geometry" />
        </mxCell>
        <mxCell id="8aWEn5WDfg_AD6E0mP8r-21" value="&lt;span style=&quot;font-weight: normal;&quot;&gt;&lt;font style=&quot;font-size: 17px;&quot;&gt;复印&lt;/font&gt;&lt;/span&gt;" style="text;strokeColor=none;fillColor=none;html=1;fontSize=24;fontStyle=1;verticalAlign=middle;align=center;" parent="1" vertex="1">
          <mxGeometry x="630" y="4043.9999999999995" width="80" height="28" as="geometry" />
        </mxCell>
        <mxCell id="8aWEn5WDfg_AD6E0mP8r-22" value="" style="endArrow=none;html=1;rounded=0;" parent="1" edge="1">
          <mxGeometry width="50" height="50" relative="1" as="geometry">
            <mxPoint x="610" y="4074.9999999999995" as="sourcePoint" />
            <mxPoint x="730" y="4074.9999999999995" as="targetPoint" />
          </mxGeometry>
        </mxCell>
        <mxCell id="8aWEn5WDfg_AD6E0mP8r-23" value="&lt;span style=&quot;font-weight: normal;&quot;&gt;&lt;font style=&quot;font-size: 17px;&quot;&gt;do/复印&lt;/font&gt;&lt;/span&gt;" style="text;strokeColor=none;fillColor=none;html=1;fontSize=24;fontStyle=1;verticalAlign=middle;align=center;" parent="1" vertex="1">
          <mxGeometry x="630" y="4083.9999999999995" width="80" height="28" as="geometry" />
        </mxCell>
        <mxCell id="8aWEn5WDfg_AD6E0mP8r-24" value="&lt;span style=&quot;font-weight: normal;&quot;&gt;&lt;font style=&quot;font-size: 15px;&quot;&gt;复印成功&lt;/font&gt;&lt;/span&gt;" style="text;strokeColor=none;fillColor=none;html=1;fontSize=24;fontStyle=1;verticalAlign=middle;align=center;" parent="1" vertex="1">
          <mxGeometry x="510" y="4052.9999999999995" width="70" height="30" as="geometry" />
        </mxCell>
        <mxCell id="8aWEn5WDfg_AD6E0mP8r-25" value="" style="endArrow=classic;html=1;rounded=0;exitX=0.25;exitY=1;exitDx=0;exitDy=0;entryX=0.5;entryY=0;entryDx=0;entryDy=0;" parent="1" source="8aWEn5WDfg_AD6E0mP8r-19" edge="1">
          <mxGeometry width="50" height="50" relative="1" as="geometry">
            <mxPoint x="680" y="4194" as="sourcePoint" />
            <mxPoint x="580" y="4184" as="targetPoint" />
          </mxGeometry>
        </mxCell>
        <mxCell id="8aWEn5WDfg_AD6E0mP8r-26" value="&lt;span style=&quot;font-weight: normal;&quot;&gt;&lt;font style=&quot;font-size: 15px;&quot;&gt;机器缺纸&lt;/font&gt;&lt;/span&gt;" style="text;strokeColor=none;fillColor=none;html=1;fontSize=24;fontStyle=1;verticalAlign=middle;align=center;" parent="1" vertex="1">
          <mxGeometry x="548" y="4128" width="70" height="30" as="geometry" />
        </mxCell>
        <mxCell id="8aWEn5WDfg_AD6E0mP8r-27" value="" style="endArrow=classic;html=1;rounded=0;exitX=0;exitY=0.5;exitDx=0;exitDy=0;" parent="1" edge="1">
          <mxGeometry width="50" height="50" relative="1" as="geometry">
            <mxPoint x="520" y="4223" as="sourcePoint" />
            <mxPoint x="450" y="4223" as="targetPoint" />
          </mxGeometry>
        </mxCell>
        <mxCell id="8aWEn5WDfg_AD6E0mP8r-28" value="" style="endArrow=classic;html=1;rounded=0;exitX=0;exitY=0.5;exitDx=0;exitDy=0;" parent="1" source="8aWEn5WDfg_AD6E0mP8r-19" edge="1">
          <mxGeometry width="50" height="50" relative="1" as="geometry">
            <mxPoint x="570" y="4053.9999999999995" as="sourcePoint" />
            <mxPoint x="450" y="4083.9999999999995" as="targetPoint" />
          </mxGeometry>
        </mxCell>
        <mxCell id="8aWEn5WDfg_AD6E0mP8r-29" value="" style="endArrow=classic;html=1;rounded=0;entryX=0;entryY=0.5;entryDx=0;entryDy=0;" parent="1" target="8aWEn5WDfg_AD6E0mP8r-16" edge="1">
          <mxGeometry width="50" height="50" relative="1" as="geometry">
            <mxPoint x="450" y="4224" as="sourcePoint" />
            <mxPoint x="450" y="3933.9999999999995" as="targetPoint" />
            <Array as="points">
              <mxPoint x="450" y="3933.9999999999995" />
            </Array>
          </mxGeometry>
        </mxCell>
        <mxCell id="8aWEn5WDfg_AD6E0mP8r-30" value="" style="endArrow=classic;html=1;rounded=0;entryX=0.5;entryY=0;entryDx=0;entryDy=0;exitX=0.75;exitY=1;exitDx=0;exitDy=0;" parent="1" source="8aWEn5WDfg_AD6E0mP8r-19" edge="1">
          <mxGeometry width="50" height="50" relative="1" as="geometry">
            <mxPoint x="720" y="4164" as="sourcePoint" />
            <mxPoint x="770" y="4184" as="targetPoint" />
          </mxGeometry>
        </mxCell>
        <mxCell id="8aWEn5WDfg_AD6E0mP8r-31" value="" style="rounded=1;whiteSpace=wrap;html=1;" parent="1" vertex="1">
          <mxGeometry x="520" y="4184" width="120" height="80" as="geometry" />
        </mxCell>
        <mxCell id="8aWEn5WDfg_AD6E0mP8r-32" value="&lt;span style=&quot;font-weight: normal;&quot;&gt;&lt;font style=&quot;font-size: 17px;&quot;&gt;缺纸&lt;/font&gt;&lt;/span&gt;" style="text;strokeColor=none;fillColor=none;html=1;fontSize=24;fontStyle=1;verticalAlign=middle;align=center;" parent="1" vertex="1">
          <mxGeometry x="540" y="4184" width="80" height="28" as="geometry" />
        </mxCell>
        <mxCell id="8aWEn5WDfg_AD6E0mP8r-33" value="" style="endArrow=none;html=1;rounded=0;" parent="1" edge="1">
          <mxGeometry width="50" height="50" relative="1" as="geometry">
            <mxPoint x="520" y="4215" as="sourcePoint" />
            <mxPoint x="640" y="4215" as="targetPoint" />
          </mxGeometry>
        </mxCell>
        <mxCell id="8aWEn5WDfg_AD6E0mP8r-34" value="&lt;span style=&quot;font-weight: normal;&quot;&gt;&lt;font style=&quot;font-size: 17px;&quot;&gt;do/缺纸警告&lt;/font&gt;&lt;/span&gt;" style="text;strokeColor=none;fillColor=none;html=1;fontSize=24;fontStyle=1;verticalAlign=middle;align=center;" parent="1" vertex="1">
          <mxGeometry x="540" y="4224" width="80" height="28" as="geometry" />
        </mxCell>
        <mxCell id="8aWEn5WDfg_AD6E0mP8r-35" value="" style="rounded=1;whiteSpace=wrap;html=1;" parent="1" vertex="1">
          <mxGeometry x="710" y="4184" width="120" height="80" as="geometry" />
        </mxCell>
        <mxCell id="8aWEn5WDfg_AD6E0mP8r-36" value="&lt;span style=&quot;font-weight: normal;&quot;&gt;&lt;font style=&quot;font-size: 17px;&quot;&gt;卡纸&lt;/font&gt;&lt;/span&gt;" style="text;strokeColor=none;fillColor=none;html=1;fontSize=24;fontStyle=1;verticalAlign=middle;align=center;" parent="1" vertex="1">
          <mxGeometry x="730" y="4184" width="80" height="28" as="geometry" />
        </mxCell>
        <mxCell id="8aWEn5WDfg_AD6E0mP8r-37" value="" style="endArrow=none;html=1;rounded=0;" parent="1" edge="1">
          <mxGeometry width="50" height="50" relative="1" as="geometry">
            <mxPoint x="710" y="4215" as="sourcePoint" />
            <mxPoint x="829.9999999999999" y="4215" as="targetPoint" />
          </mxGeometry>
        </mxCell>
        <mxCell id="8aWEn5WDfg_AD6E0mP8r-38" value="&lt;span style=&quot;font-weight: normal;&quot;&gt;&lt;font style=&quot;font-size: 17px;&quot;&gt;do/故障警告&lt;/font&gt;&lt;/span&gt;" style="text;strokeColor=none;fillColor=none;html=1;fontSize=24;fontStyle=1;verticalAlign=middle;align=center;" parent="1" vertex="1">
          <mxGeometry x="730" y="4224" width="80" height="28" as="geometry" />
        </mxCell>
        <mxCell id="8aWEn5WDfg_AD6E0mP8r-39" value="&lt;span style=&quot;font-weight: normal;&quot;&gt;&lt;font style=&quot;font-size: 15px;&quot;&gt;机器卡纸&lt;/font&gt;&lt;/span&gt;" style="text;strokeColor=none;fillColor=none;html=1;fontSize=24;fontStyle=1;verticalAlign=middle;align=center;" parent="1" vertex="1">
          <mxGeometry x="733" y="4129" width="70" height="30" as="geometry" />
        </mxCell>
        <mxCell id="8aWEn5WDfg_AD6E0mP8r-40" value="" style="endArrow=classic;html=1;rounded=0;" parent="1" edge="1">
          <mxGeometry width="50" height="50" relative="1" as="geometry">
            <mxPoint x="829.9999999999999" y="4224" as="sourcePoint" />
            <mxPoint x="909.9999999999999" y="4224" as="targetPoint" />
          </mxGeometry>
        </mxCell>
        <mxCell id="8aWEn5WDfg_AD6E0mP8r-41" value="&lt;span style=&quot;font-weight: normal;&quot;&gt;&lt;font style=&quot;font-size: 15px;&quot;&gt;装纸&lt;/font&gt;&lt;/span&gt;" style="text;strokeColor=none;fillColor=none;html=1;fontSize=24;fontStyle=1;verticalAlign=middle;align=center;" parent="1" vertex="1">
          <mxGeometry x="454" y="4195" width="70" height="30" as="geometry" />
        </mxCell>
        <mxCell id="8aWEn5WDfg_AD6E0mP8r-42" value="" style="endArrow=classic;html=1;rounded=0;entryX=1;entryY=0.5;entryDx=0;entryDy=0;" parent="1" target="8aWEn5WDfg_AD6E0mP8r-16" edge="1">
          <mxGeometry width="50" height="50" relative="1" as="geometry">
            <mxPoint x="909.9999999999999" y="4224" as="sourcePoint" />
            <mxPoint x="909.9999999999999" y="3864" as="targetPoint" />
            <Array as="points">
              <mxPoint x="909.9999999999999" y="3933.9999999999995" />
            </Array>
          </mxGeometry>
        </mxCell>
        <mxCell id="8aWEn5WDfg_AD6E0mP8r-43" value="&lt;span style=&quot;font-weight: normal;&quot;&gt;&lt;font style=&quot;font-size: 15px;&quot;&gt;排除故障&lt;/font&gt;&lt;/span&gt;" style="text;strokeColor=none;fillColor=none;html=1;fontSize=24;fontStyle=1;verticalAlign=middle;align=center;" parent="1" vertex="1">
          <mxGeometry x="829.9999999999999" y="4194" width="70" height="30" as="geometry" />
        </mxCell>
        <mxCell id="8aWEn5WDfg_AD6E0mP8r-44" value="四状态图" style="text;strokeColor=none;fillColor=none;html=1;fontSize=24;fontStyle=1;verticalAlign=middle;align=center;" parent="1" vertex="1">
          <mxGeometry x="610" y="4334" width="100" height="40" as="geometry" />
        </mxCell>
        <mxCell id="8aWEn5WDfg_AD6E0mP8r-45" value="" style="rounded=0;whiteSpace=wrap;html=1;" parent="1" vertex="1">
          <mxGeometry x="818" y="5029" width="120" height="60" as="geometry" />
        </mxCell>
        <mxCell id="8aWEn5WDfg_AD6E0mP8r-46" value="&lt;span style=&quot;font-weight: normal;&quot;&gt;&lt;font style=&quot;font-size: 17px;&quot;&gt;旅客&lt;/font&gt;&lt;/span&gt;" style="text;strokeColor=none;fillColor=none;html=1;fontSize=24;fontStyle=1;verticalAlign=middle;align=center;" parent="1" vertex="1">
          <mxGeometry x="837.9999999999999" y="5039" width="80" height="40" as="geometry" />
        </mxCell>
        <mxCell id="8aWEn5WDfg_AD6E0mP8r-47" value="" style="endArrow=none;html=1;rounded=0;" parent="1" edge="1">
          <mxGeometry width="50" height="50" relative="1" as="geometry">
            <mxPoint x="747" y="5004" as="sourcePoint" />
            <mxPoint x="817" y="5064" as="targetPoint" />
          </mxGeometry>
        </mxCell>
        <mxCell id="8aWEn5WDfg_AD6E0mP8r-48" value="" style="rounded=1;whiteSpace=wrap;html=1;" parent="1" vertex="1">
          <mxGeometry x="687" y="4944" width="120" height="60" as="geometry" />
        </mxCell>
        <mxCell id="8aWEn5WDfg_AD6E0mP8r-49" value="&lt;span style=&quot;font-weight: normal;&quot;&gt;&lt;font style=&quot;font-size: 17px;&quot;&gt;身份证号&lt;/font&gt;&lt;/span&gt;" style="text;strokeColor=none;fillColor=none;html=1;fontSize=24;fontStyle=1;verticalAlign=middle;align=center;" parent="1" vertex="1">
          <mxGeometry x="707" y="4954" width="80" height="40" as="geometry" />
        </mxCell>
        <mxCell id="8aWEn5WDfg_AD6E0mP8r-50" value="" style="rounded=1;whiteSpace=wrap;html=1;" parent="1" vertex="1">
          <mxGeometry x="748" y="4844" width="120" height="60" as="geometry" />
        </mxCell>
        <mxCell id="8aWEn5WDfg_AD6E0mP8r-51" value="&lt;span style=&quot;font-weight: normal;&quot;&gt;&lt;font style=&quot;font-size: 17px;&quot;&gt;姓名&lt;/font&gt;&lt;/span&gt;" style="text;strokeColor=none;fillColor=none;html=1;fontSize=24;fontStyle=1;verticalAlign=middle;align=center;" parent="1" vertex="1">
          <mxGeometry x="768" y="4854" width="80" height="40" as="geometry" />
        </mxCell>
        <mxCell id="8aWEn5WDfg_AD6E0mP8r-52" value="" style="rounded=1;whiteSpace=wrap;html=1;" parent="1" vertex="1">
          <mxGeometry x="887.9999999999999" y="4844" width="120" height="60" as="geometry" />
        </mxCell>
        <mxCell id="8aWEn5WDfg_AD6E0mP8r-53" value="&lt;span style=&quot;font-weight: normal;&quot;&gt;&lt;font style=&quot;font-size: 17px;&quot;&gt;性别&lt;/font&gt;&lt;/span&gt;" style="text;strokeColor=none;fillColor=none;html=1;fontSize=24;fontStyle=1;verticalAlign=middle;align=center;" parent="1" vertex="1">
          <mxGeometry x="907.9999999999999" y="4854" width="80" height="40" as="geometry" />
        </mxCell>
        <mxCell id="8aWEn5WDfg_AD6E0mP8r-54" value="" style="rounded=1;whiteSpace=wrap;html=1;" parent="1" vertex="1">
          <mxGeometry x="977.9999999999999" y="4919" width="120" height="60" as="geometry" />
        </mxCell>
        <mxCell id="8aWEn5WDfg_AD6E0mP8r-55" value="&lt;span style=&quot;font-weight: normal;&quot;&gt;&lt;font style=&quot;font-size: 17px;&quot;&gt;联系方式&lt;/font&gt;&lt;/span&gt;" style="text;strokeColor=none;fillColor=none;html=1;fontSize=24;fontStyle=1;verticalAlign=middle;align=center;" parent="1" vertex="1">
          <mxGeometry x="997.9999999999999" y="4929" width="80" height="40" as="geometry" />
        </mxCell>
        <mxCell id="8aWEn5WDfg_AD6E0mP8r-56" value="" style="endArrow=none;html=1;rounded=0;entryX=0.5;entryY=1;entryDx=0;entryDy=0;exitX=0.333;exitY=0;exitDx=0;exitDy=0;exitPerimeter=0;" parent="1" source="8aWEn5WDfg_AD6E0mP8r-45" target="8aWEn5WDfg_AD6E0mP8r-50" edge="1">
          <mxGeometry width="50" height="50" relative="1" as="geometry">
            <mxPoint x="847.9999999999999" y="4949" as="sourcePoint" />
            <mxPoint x="897.9999999999999" y="4899" as="targetPoint" />
          </mxGeometry>
        </mxCell>
        <mxCell id="8aWEn5WDfg_AD6E0mP8r-57" value="" style="endArrow=none;html=1;rounded=0;entryX=0.5;entryY=1;entryDx=0;entryDy=0;exitX=0.333;exitY=0;exitDx=0;exitDy=0;exitPerimeter=0;" parent="1" target="8aWEn5WDfg_AD6E0mP8r-52" edge="1">
          <mxGeometry width="50" height="50" relative="1" as="geometry">
            <mxPoint x="900.0399999999998" y="5029" as="sourcePoint" />
            <mxPoint x="862.0399999999998" y="4884" as="targetPoint" />
          </mxGeometry>
        </mxCell>
        <mxCell id="8aWEn5WDfg_AD6E0mP8r-58" value="" style="endArrow=none;html=1;rounded=0;exitX=1;exitY=0.25;exitDx=0;exitDy=0;" parent="1" source="8aWEn5WDfg_AD6E0mP8r-45" edge="1">
          <mxGeometry width="50" height="50" relative="1" as="geometry">
            <mxPoint x="987.9999999999999" y="5029" as="sourcePoint" />
            <mxPoint x="1038" y="4979" as="targetPoint" />
          </mxGeometry>
        </mxCell>
        <mxCell id="8aWEn5WDfg_AD6E0mP8r-59" value="" style="rounded=0;whiteSpace=wrap;html=1;" parent="1" vertex="1">
          <mxGeometry x="858.9999999999999" y="5449" width="120" height="60" as="geometry" />
        </mxCell>
        <mxCell id="8aWEn5WDfg_AD6E0mP8r-60" value="&lt;span style=&quot;font-weight: normal;&quot;&gt;&lt;font style=&quot;font-size: 17px;&quot;&gt;机票&lt;/font&gt;&lt;/span&gt;" style="text;strokeColor=none;fillColor=none;html=1;fontSize=24;fontStyle=1;verticalAlign=middle;align=center;" parent="1" vertex="1">
          <mxGeometry x="878.9999999999999" y="5459" width="80" height="40" as="geometry" />
        </mxCell>
        <mxCell id="8aWEn5WDfg_AD6E0mP8r-61" value="" style="endArrow=none;html=1;rounded=0;exitX=1;exitY=0.5;exitDx=0;exitDy=0;" parent="1" source="8aWEn5WDfg_AD6E0mP8r-62" edge="1">
          <mxGeometry width="50" height="50" relative="1" as="geometry">
            <mxPoint x="789" y="5399" as="sourcePoint" />
            <mxPoint x="858.9999999999999" y="5459" as="targetPoint" />
          </mxGeometry>
        </mxCell>
        <mxCell id="8aWEn5WDfg_AD6E0mP8r-62" value="" style="rounded=1;whiteSpace=wrap;html=1;" parent="1" vertex="1">
          <mxGeometry x="667" y="5407" width="120" height="60" as="geometry" />
        </mxCell>
        <mxCell id="8aWEn5WDfg_AD6E0mP8r-63" value="&lt;span style=&quot;font-weight: normal;&quot;&gt;&lt;font style=&quot;font-size: 17px;&quot;&gt;订票编号&lt;/font&gt;&lt;/span&gt;" style="text;strokeColor=none;fillColor=none;html=1;fontSize=24;fontStyle=1;verticalAlign=middle;align=center;" parent="1" vertex="1">
          <mxGeometry x="687" y="5417" width="80" height="40" as="geometry" />
        </mxCell>
        <mxCell id="8aWEn5WDfg_AD6E0mP8r-64" value="" style="rounded=1;whiteSpace=wrap;html=1;" parent="1" vertex="1">
          <mxGeometry x="699" y="5289" width="120" height="60" as="geometry" />
        </mxCell>
        <mxCell id="8aWEn5WDfg_AD6E0mP8r-65" value="&lt;span style=&quot;font-weight: normal;&quot;&gt;&lt;font style=&quot;font-size: 17px;&quot;&gt;身份证号&lt;/font&gt;&lt;/span&gt;" style="text;strokeColor=none;fillColor=none;html=1;fontSize=24;fontStyle=1;verticalAlign=middle;align=center;" parent="1" vertex="1">
          <mxGeometry x="719" y="5299" width="80" height="40" as="geometry" />
        </mxCell>
        <mxCell id="8aWEn5WDfg_AD6E0mP8r-66" value="" style="rounded=1;whiteSpace=wrap;html=1;" parent="1" vertex="1">
          <mxGeometry x="939.9999999999999" y="5264" width="120" height="60" as="geometry" />
        </mxCell>
        <mxCell id="8aWEn5WDfg_AD6E0mP8r-67" value="&lt;span style=&quot;font-size: 17px; font-weight: 400;&quot;&gt;机票价格&lt;/span&gt;" style="text;strokeColor=none;fillColor=none;html=1;fontSize=24;fontStyle=1;verticalAlign=middle;align=center;" parent="1" vertex="1">
          <mxGeometry x="959.9999999999999" y="5274" width="80" height="40" as="geometry" />
        </mxCell>
        <mxCell id="8aWEn5WDfg_AD6E0mP8r-68" value="" style="rounded=1;whiteSpace=wrap;html=1;" parent="1" vertex="1">
          <mxGeometry x="1018.9999999999999" y="5339" width="120" height="60" as="geometry" />
        </mxCell>
        <mxCell id="8aWEn5WDfg_AD6E0mP8r-69" value="&lt;span style=&quot;font-weight: normal;&quot;&gt;&lt;font style=&quot;font-size: 17px;&quot;&gt;航班号&lt;/font&gt;&lt;/span&gt;" style="text;strokeColor=none;fillColor=none;html=1;fontSize=24;fontStyle=1;verticalAlign=middle;align=center;" parent="1" vertex="1">
          <mxGeometry x="1039" y="5349" width="80" height="40" as="geometry" />
        </mxCell>
        <mxCell id="8aWEn5WDfg_AD6E0mP8r-70" value="" style="endArrow=none;html=1;rounded=0;exitX=1;exitY=0.25;exitDx=0;exitDy=0;" parent="1" source="8aWEn5WDfg_AD6E0mP8r-59" edge="1">
          <mxGeometry width="50" height="50" relative="1" as="geometry">
            <mxPoint x="1029" y="5449" as="sourcePoint" />
            <mxPoint x="1079" y="5399" as="targetPoint" />
          </mxGeometry>
        </mxCell>
        <mxCell id="8aWEn5WDfg_AD6E0mP8r-71" value="" style="rounded=1;whiteSpace=wrap;html=1;" parent="1" vertex="1">
          <mxGeometry x="1016.9999999999999" y="5562" width="120" height="60" as="geometry" />
        </mxCell>
        <mxCell id="8aWEn5WDfg_AD6E0mP8r-72" value="&lt;span style=&quot;font-size: 17px; font-weight: 400;&quot;&gt;起飞地点&lt;/span&gt;" style="text;strokeColor=none;fillColor=none;html=1;fontSize=24;fontStyle=1;verticalAlign=middle;align=center;" parent="1" vertex="1">
          <mxGeometry x="1037" y="5572" width="80" height="40" as="geometry" />
        </mxCell>
        <mxCell id="8aWEn5WDfg_AD6E0mP8r-73" value="" style="rounded=1;whiteSpace=wrap;html=1;" parent="1" vertex="1">
          <mxGeometry x="919.9999999999999" y="5646" width="120" height="60" as="geometry" />
        </mxCell>
        <mxCell id="8aWEn5WDfg_AD6E0mP8r-74" value="&lt;span style=&quot;font-size: 17px; font-weight: 400;&quot;&gt;抵达地点&lt;/span&gt;" style="text;strokeColor=none;fillColor=none;html=1;fontSize=24;fontStyle=1;verticalAlign=middle;align=center;" parent="1" vertex="1">
          <mxGeometry x="952.9999999999999" y="5656" width="80" height="40" as="geometry" />
        </mxCell>
        <mxCell id="8aWEn5WDfg_AD6E0mP8r-75" value="" style="rounded=1;whiteSpace=wrap;html=1;" parent="1" vertex="1">
          <mxGeometry x="733" y="5562" width="120" height="60" as="geometry" />
        </mxCell>
        <mxCell id="8aWEn5WDfg_AD6E0mP8r-76" value="&lt;span style=&quot;font-size: 17px; font-weight: 400;&quot;&gt;抵达时间&lt;/span&gt;" style="text;strokeColor=none;fillColor=none;html=1;fontSize=24;fontStyle=1;verticalAlign=middle;align=center;" parent="1" vertex="1">
          <mxGeometry x="753" y="5572" width="80" height="40" as="geometry" />
        </mxCell>
        <mxCell id="8aWEn5WDfg_AD6E0mP8r-77" value="" style="rounded=1;whiteSpace=wrap;html=1;" parent="1" vertex="1">
          <mxGeometry x="780" y="5646" width="120" height="60" as="geometry" />
        </mxCell>
        <mxCell id="8aWEn5WDfg_AD6E0mP8r-78" value="&lt;span style=&quot;font-size: 17px; font-weight: 400;&quot;&gt;起飞时间&lt;/span&gt;" style="text;strokeColor=none;fillColor=none;html=1;fontSize=24;fontStyle=1;verticalAlign=middle;align=center;" parent="1" vertex="1">
          <mxGeometry x="813" y="5656" width="80" height="40" as="geometry" />
        </mxCell>
        <mxCell id="8aWEn5WDfg_AD6E0mP8r-79" value="" style="endArrow=none;html=1;rounded=0;entryX=0.5;entryY=1;entryDx=0;entryDy=0;exitX=0.333;exitY=0;exitDx=0;exitDy=0;exitPerimeter=0;" parent="1" target="8aWEn5WDfg_AD6E0mP8r-66" edge="1">
          <mxGeometry width="50" height="50" relative="1" as="geometry">
            <mxPoint x="940.9999999999999" y="5449" as="sourcePoint" />
            <mxPoint x="1000.9599999999999" y="5304" as="targetPoint" />
          </mxGeometry>
        </mxCell>
        <mxCell id="8aWEn5WDfg_AD6E0mP8r-80" value="" style="endArrow=none;html=1;rounded=0;exitX=0.333;exitY=0;exitDx=0;exitDy=0;exitPerimeter=0;entryX=0.567;entryY=0.985;entryDx=0;entryDy=0;entryPerimeter=0;" parent="1" target="8aWEn5WDfg_AD6E0mP8r-64" edge="1">
          <mxGeometry width="50" height="50" relative="1" as="geometry">
            <mxPoint x="901.0399999999998" y="5449" as="sourcePoint" />
            <mxPoint x="767" y="5354" as="targetPoint" />
          </mxGeometry>
        </mxCell>
        <mxCell id="8aWEn5WDfg_AD6E0mP8r-81" value="" style="endArrow=none;html=1;rounded=0;exitX=0.5;exitY=0;exitDx=0;exitDy=0;" parent="1" source="8aWEn5WDfg_AD6E0mP8r-75" edge="1">
          <mxGeometry width="50" height="50" relative="1" as="geometry">
            <mxPoint x="809" y="5554" as="sourcePoint" />
            <mxPoint x="858.9999999999999" y="5504" as="targetPoint" />
          </mxGeometry>
        </mxCell>
        <mxCell id="8aWEn5WDfg_AD6E0mP8r-82" value="" style="endArrow=none;html=1;rounded=0;entryX=0.291;entryY=0.993;entryDx=0;entryDy=0;entryPerimeter=0;exitX=0.75;exitY=0;exitDx=0;exitDy=0;" parent="1" source="8aWEn5WDfg_AD6E0mP8r-77" target="8aWEn5WDfg_AD6E0mP8r-59" edge="1">
          <mxGeometry width="50" height="50" relative="1" as="geometry">
            <mxPoint x="854.4399999999999" y="5670.200000000001" as="sourcePoint" />
            <mxPoint x="898.9999999999999" y="5514" as="targetPoint" />
          </mxGeometry>
        </mxCell>
        <mxCell id="8aWEn5WDfg_AD6E0mP8r-83" value="" style="endArrow=none;html=1;rounded=0;exitX=0.5;exitY=0;exitDx=0;exitDy=0;entryX=0.624;entryY=1.002;entryDx=0;entryDy=0;entryPerimeter=0;" parent="1" source="8aWEn5WDfg_AD6E0mP8r-73" target="8aWEn5WDfg_AD6E0mP8r-59" edge="1">
          <mxGeometry width="50" height="50" relative="1" as="geometry">
            <mxPoint x="998.9999999999999" y="5672" as="sourcePoint" />
            <mxPoint x="938.9999999999999" y="5534" as="targetPoint" />
          </mxGeometry>
        </mxCell>
        <mxCell id="8aWEn5WDfg_AD6E0mP8r-84" value="" style="endArrow=none;html=1;rounded=0;exitX=1.004;exitY=0.863;exitDx=0;exitDy=0;exitPerimeter=0;entryX=0.5;entryY=0;entryDx=0;entryDy=0;" parent="1" source="8aWEn5WDfg_AD6E0mP8r-59" target="8aWEn5WDfg_AD6E0mP8r-71" edge="1">
          <mxGeometry width="50" height="50" relative="1" as="geometry">
            <mxPoint x="1029" y="5534" as="sourcePoint" />
            <mxPoint x="1079" y="5484" as="targetPoint" />
          </mxGeometry>
        </mxCell>
        <mxCell id="8aWEn5WDfg_AD6E0mP8r-85" value="" style="rounded=0;whiteSpace=wrap;html=1;" parent="1" vertex="1">
          <mxGeometry x="1414" y="5607.5" width="120" height="60" as="geometry" />
        </mxCell>
        <mxCell id="8aWEn5WDfg_AD6E0mP8r-86" value="&lt;span style=&quot;font-weight: normal;&quot;&gt;&lt;font style=&quot;font-size: 17px;&quot;&gt;航空公司&lt;/font&gt;&lt;/span&gt;" style="text;strokeColor=none;fillColor=none;html=1;fontSize=24;fontStyle=1;verticalAlign=middle;align=center;" parent="1" vertex="1">
          <mxGeometry x="1430" y="5616" width="80" height="40" as="geometry" />
        </mxCell>
        <mxCell id="8aWEn5WDfg_AD6E0mP8r-87" value="" style="endArrow=none;html=1;rounded=0;entryX=0.167;entryY=0.023;entryDx=0;entryDy=0;entryPerimeter=0;exitX=0.473;exitY=1.04;exitDx=0;exitDy=0;exitPerimeter=0;" parent="1" edge="1">
          <mxGeometry width="50" height="50" relative="1" as="geometry">
            <mxPoint x="1508" y="5667.5" as="sourcePoint" />
            <mxPoint x="1591.2800000000002" y="5721.48" as="targetPoint" />
          </mxGeometry>
        </mxCell>
        <mxCell id="8aWEn5WDfg_AD6E0mP8r-88" value="" style="rounded=1;whiteSpace=wrap;html=1;" parent="1" vertex="1">
          <mxGeometry x="1264" y="5754" width="120" height="60" as="geometry" />
        </mxCell>
        <mxCell id="8aWEn5WDfg_AD6E0mP8r-89" value="&lt;span style=&quot;font-weight: normal;&quot;&gt;&lt;font style=&quot;font-size: 17px;&quot;&gt;公司编号&lt;/font&gt;&lt;/span&gt;" style="text;strokeColor=none;fillColor=none;html=1;fontSize=24;fontStyle=1;verticalAlign=middle;align=center;" parent="1" vertex="1">
          <mxGeometry x="1284" y="5764" width="80" height="40" as="geometry" />
        </mxCell>
        <mxCell id="8aWEn5WDfg_AD6E0mP8r-90" value="" style="rounded=1;whiteSpace=wrap;html=1;" parent="1" vertex="1">
          <mxGeometry x="1424" y="5804" width="120" height="60" as="geometry" />
        </mxCell>
        <mxCell id="8aWEn5WDfg_AD6E0mP8r-91" value="&lt;span style=&quot;font-weight: normal;&quot;&gt;&lt;font style=&quot;font-size: 17px;&quot;&gt;公司名&lt;/font&gt;&lt;/span&gt;" style="text;strokeColor=none;fillColor=none;html=1;fontSize=24;fontStyle=1;verticalAlign=middle;align=center;" parent="1" vertex="1">
          <mxGeometry x="1444" y="5814" width="80" height="40" as="geometry" />
        </mxCell>
        <mxCell id="8aWEn5WDfg_AD6E0mP8r-92" value="" style="rounded=1;whiteSpace=wrap;html=1;" parent="1" vertex="1">
          <mxGeometry x="1534" y="5724" width="120" height="60" as="geometry" />
        </mxCell>
        <mxCell id="8aWEn5WDfg_AD6E0mP8r-93" value="&lt;span style=&quot;font-weight: normal;&quot;&gt;&lt;font style=&quot;font-size: 17px;&quot;&gt;地址&lt;/font&gt;&lt;/span&gt;" style="text;strokeColor=none;fillColor=none;html=1;fontSize=24;fontStyle=1;verticalAlign=middle;align=center;" parent="1" vertex="1">
          <mxGeometry x="1554" y="5734" width="80" height="40" as="geometry" />
        </mxCell>
        <mxCell id="8aWEn5WDfg_AD6E0mP8r-94" value="" style="endArrow=none;html=1;rounded=0;entryX=0.5;entryY=1;entryDx=0;entryDy=0;exitX=0.333;exitY=0;exitDx=0;exitDy=0;exitPerimeter=0;" parent="1" edge="1">
          <mxGeometry width="50" height="50" relative="1" as="geometry">
            <mxPoint x="1478.0000000000005" y="5802.5" as="sourcePoint" />
            <mxPoint x="1478.04" y="5667.5" as="targetPoint" />
          </mxGeometry>
        </mxCell>
        <mxCell id="8aWEn5WDfg_AD6E0mP8r-95" value="" style="endArrow=none;html=1;rounded=0;entryX=0.5;entryY=1;entryDx=0;entryDy=0;exitX=0.333;exitY=0;exitDx=0;exitDy=0;exitPerimeter=0;" parent="1" edge="1">
          <mxGeometry width="50" height="50" relative="1" as="geometry">
            <mxPoint x="1330.04" y="5752.5" as="sourcePoint" />
            <mxPoint x="1438" y="5667.5" as="targetPoint" />
          </mxGeometry>
        </mxCell>
        <mxCell id="8aWEn5WDfg_AD6E0mP8r-96" value="" style="rounded=0;whiteSpace=wrap;html=1;" parent="1" vertex="1">
          <mxGeometry x="1504" y="5269" width="120" height="60" as="geometry" />
        </mxCell>
        <mxCell id="8aWEn5WDfg_AD6E0mP8r-97" value="&lt;span style=&quot;font-weight: normal;&quot;&gt;&lt;font style=&quot;font-size: 17px;&quot;&gt;航班&lt;/font&gt;&lt;/span&gt;" style="text;strokeColor=none;fillColor=none;html=1;fontSize=24;fontStyle=1;verticalAlign=middle;align=center;" parent="1" vertex="1">
          <mxGeometry x="1524" y="5279" width="80" height="40" as="geometry" />
        </mxCell>
        <mxCell id="8aWEn5WDfg_AD6E0mP8r-98" value="" style="endArrow=none;html=1;rounded=0;" parent="1" edge="1">
          <mxGeometry width="50" height="50" relative="1" as="geometry">
            <mxPoint x="1434" y="5219" as="sourcePoint" />
            <mxPoint x="1504" y="5279" as="targetPoint" />
          </mxGeometry>
        </mxCell>
        <mxCell id="8aWEn5WDfg_AD6E0mP8r-99" value="" style="rounded=1;whiteSpace=wrap;html=1;" parent="1" vertex="1">
          <mxGeometry x="1374" y="5159" width="120" height="60" as="geometry" />
        </mxCell>
        <mxCell id="8aWEn5WDfg_AD6E0mP8r-100" value="&lt;span style=&quot;font-weight: normal;&quot;&gt;&lt;font style=&quot;font-size: 17px;&quot;&gt;航班号&lt;/font&gt;&lt;/span&gt;" style="text;strokeColor=none;fillColor=none;html=1;fontSize=24;fontStyle=1;verticalAlign=middle;align=center;" parent="1" vertex="1">
          <mxGeometry x="1394" y="5169" width="80" height="40" as="geometry" />
        </mxCell>
        <mxCell id="8aWEn5WDfg_AD6E0mP8r-101" value="" style="rounded=1;whiteSpace=wrap;html=1;" parent="1" vertex="1">
          <mxGeometry x="1464" y="5064" width="120" height="60" as="geometry" />
        </mxCell>
        <mxCell id="8aWEn5WDfg_AD6E0mP8r-102" value="&lt;span style=&quot;font-weight: normal;&quot;&gt;&lt;font style=&quot;font-size: 17px;&quot;&gt;航程&lt;/font&gt;&lt;/span&gt;" style="text;strokeColor=none;fillColor=none;html=1;fontSize=24;fontStyle=1;verticalAlign=middle;align=center;" parent="1" vertex="1">
          <mxGeometry x="1484" y="5074" width="80" height="40" as="geometry" />
        </mxCell>
        <mxCell id="8aWEn5WDfg_AD6E0mP8r-103" value="" style="rounded=1;whiteSpace=wrap;html=1;" parent="1" vertex="1">
          <mxGeometry x="1624" y="5109" width="120" height="60" as="geometry" />
        </mxCell>
        <mxCell id="8aWEn5WDfg_AD6E0mP8r-104" value="&lt;span style=&quot;font-size: 17px; font-weight: 400;&quot;&gt;起飞地点&lt;/span&gt;" style="text;strokeColor=none;fillColor=none;html=1;fontSize=24;fontStyle=1;verticalAlign=middle;align=center;" parent="1" vertex="1">
          <mxGeometry x="1644" y="5119" width="80" height="40" as="geometry" />
        </mxCell>
        <mxCell id="8aWEn5WDfg_AD6E0mP8r-105" value="" style="rounded=1;whiteSpace=wrap;html=1;" parent="1" vertex="1">
          <mxGeometry x="1650" y="5357" width="120" height="60" as="geometry" />
        </mxCell>
        <mxCell id="8aWEn5WDfg_AD6E0mP8r-106" value="&lt;span style=&quot;font-size: 17px; font-weight: 400;&quot;&gt;抵达地点&lt;/span&gt;" style="text;strokeColor=none;fillColor=none;html=1;fontSize=24;fontStyle=1;verticalAlign=middle;align=center;" parent="1" vertex="1">
          <mxGeometry x="1670" y="5367" width="76" height="40" as="geometry" />
        </mxCell>
        <mxCell id="8aWEn5WDfg_AD6E0mP8r-107" value="" style="rounded=1;whiteSpace=wrap;html=1;" parent="1" vertex="1">
          <mxGeometry x="1424" y="5412" width="120" height="60" as="geometry" />
        </mxCell>
        <mxCell id="8aWEn5WDfg_AD6E0mP8r-108" value="&lt;span style=&quot;font-size: 17px; font-weight: 400;&quot;&gt;抵达时间&lt;/span&gt;" style="text;strokeColor=none;fillColor=none;html=1;fontSize=24;fontStyle=1;verticalAlign=middle;align=center;" parent="1" vertex="1">
          <mxGeometry x="1444" y="5422" width="80" height="40" as="geometry" />
        </mxCell>
        <mxCell id="8aWEn5WDfg_AD6E0mP8r-109" value="" style="rounded=1;whiteSpace=wrap;html=1;" parent="1" vertex="1">
          <mxGeometry x="1514" y="5482" width="120" height="60" as="geometry" />
        </mxCell>
        <mxCell id="8aWEn5WDfg_AD6E0mP8r-110" value="&lt;span style=&quot;font-size: 17px; font-weight: 400;&quot;&gt;起飞时间&lt;/span&gt;" style="text;strokeColor=none;fillColor=none;html=1;fontSize=24;fontStyle=1;verticalAlign=middle;align=center;" parent="1" vertex="1">
          <mxGeometry x="1534" y="5492" width="80" height="40" as="geometry" />
        </mxCell>
        <mxCell id="8aWEn5WDfg_AD6E0mP8r-111" value="" style="endArrow=none;html=1;rounded=0;entryX=0.5;entryY=1;entryDx=0;entryDy=0;exitX=0.333;exitY=0;exitDx=0;exitDy=0;exitPerimeter=0;" parent="1" edge="1">
          <mxGeometry width="50" height="50" relative="1" as="geometry">
            <mxPoint x="1556.04" y="5269" as="sourcePoint" />
            <mxPoint x="1518.04" y="5124" as="targetPoint" />
          </mxGeometry>
        </mxCell>
        <mxCell id="8aWEn5WDfg_AD6E0mP8r-112" value="" style="endArrow=none;html=1;rounded=0;exitX=0.5;exitY=0;exitDx=0;exitDy=0;" parent="1" source="8aWEn5WDfg_AD6E0mP8r-107" edge="1">
          <mxGeometry width="50" height="50" relative="1" as="geometry">
            <mxPoint x="1454" y="5374" as="sourcePoint" />
            <mxPoint x="1504" y="5324" as="targetPoint" />
          </mxGeometry>
        </mxCell>
        <mxCell id="8aWEn5WDfg_AD6E0mP8r-113" value="" style="endArrow=none;html=1;rounded=0;entryX=0.291;entryY=0.993;entryDx=0;entryDy=0;entryPerimeter=0;exitX=0.5;exitY=0;exitDx=0;exitDy=0;" parent="1" source="8aWEn5WDfg_AD6E0mP8r-109" edge="1">
          <mxGeometry width="50" height="50" relative="1" as="geometry">
            <mxPoint x="1515.44" y="5490.200000000001" as="sourcePoint" />
            <mxPoint x="1554.92" y="5328.58" as="targetPoint" />
          </mxGeometry>
        </mxCell>
        <mxCell id="8aWEn5WDfg_AD6E0mP8r-114" value="" style="endArrow=none;html=1;rounded=0;exitX=0.5;exitY=0;exitDx=0;exitDy=0;entryX=0.624;entryY=1.002;entryDx=0;entryDy=0;entryPerimeter=0;" parent="1" source="8aWEn5WDfg_AD6E0mP8r-105" target="8aWEn5WDfg_AD6E0mP8r-96" edge="1">
          <mxGeometry width="50" height="50" relative="1" as="geometry">
            <mxPoint x="1574" y="5414" as="sourcePoint" />
            <mxPoint x="1584" y="5354" as="targetPoint" />
          </mxGeometry>
        </mxCell>
        <mxCell id="8aWEn5WDfg_AD6E0mP8r-115" value="" style="endArrow=none;html=1;rounded=0;exitX=0.75;exitY=0;exitDx=0;exitDy=0;entryX=0.5;entryY=1;entryDx=0;entryDy=0;" parent="1" source="8aWEn5WDfg_AD6E0mP8r-96" target="8aWEn5WDfg_AD6E0mP8r-103" edge="1">
          <mxGeometry width="50" height="50" relative="1" as="geometry">
            <mxPoint x="1624" y="5215.780000000001" as="sourcePoint" />
            <mxPoint x="1721.5200000000004" y="5277" as="targetPoint" />
          </mxGeometry>
        </mxCell>
        <mxCell id="8aWEn5WDfg_AD6E0mP8r-116" value="&lt;font style=&quot;font-size: 17px;&quot;&gt;购买&lt;/font&gt;" style="rhombus;whiteSpace=wrap;html=1;" parent="1" vertex="1">
          <mxGeometry x="812" y="5170" width="118" height="80" as="geometry" />
        </mxCell>
        <mxCell id="8aWEn5WDfg_AD6E0mP8r-117" value="&lt;font style=&quot;font-size: 17px;&quot;&gt;提供&lt;/font&gt;" style="rhombus;whiteSpace=wrap;html=1;" parent="1" vertex="1">
          <mxGeometry x="1200" y="5405" width="118" height="80" as="geometry" />
        </mxCell>
        <mxCell id="8aWEn5WDfg_AD6E0mP8r-118" value="" style="endArrow=none;html=1;rounded=0;entryX=0.5;entryY=1;entryDx=0;entryDy=0;exitX=0.536;exitY=-0.032;exitDx=0;exitDy=0;exitPerimeter=0;" parent="1" source="8aWEn5WDfg_AD6E0mP8r-59" target="8aWEn5WDfg_AD6E0mP8r-116" edge="1">
          <mxGeometry width="50" height="50" relative="1" as="geometry">
            <mxPoint x="829.9999999999999" y="5274" as="sourcePoint" />
            <mxPoint x="879.9999999999999" y="5224" as="targetPoint" />
          </mxGeometry>
        </mxCell>
        <mxCell id="8aWEn5WDfg_AD6E0mP8r-119" value="" style="endArrow=none;html=1;rounded=0;entryX=0.477;entryY=0.992;entryDx=0;entryDy=0;entryPerimeter=0;exitX=0.5;exitY=0;exitDx=0;exitDy=0;" parent="1" source="8aWEn5WDfg_AD6E0mP8r-116" target="8aWEn5WDfg_AD6E0mP8r-45" edge="1">
          <mxGeometry width="50" height="50" relative="1" as="geometry">
            <mxPoint x="839.9999999999999" y="5114" as="sourcePoint" />
            <mxPoint x="889.9999999999999" y="5064" as="targetPoint" />
          </mxGeometry>
        </mxCell>
        <mxCell id="8aWEn5WDfg_AD6E0mP8r-120" value="&lt;span style=&quot;font-weight: normal;&quot;&gt;&lt;font style=&quot;font-size: 15px;&quot;&gt;1&lt;/font&gt;&lt;/span&gt;" style="text;strokeColor=none;fillColor=none;html=1;fontSize=24;fontStyle=1;verticalAlign=middle;align=center;" parent="1" vertex="1">
          <mxGeometry x="826" y="5095" width="70" height="30" as="geometry" />
        </mxCell>
        <mxCell id="8aWEn5WDfg_AD6E0mP8r-121" value="&lt;span style=&quot;font-weight: normal;&quot;&gt;&lt;font style=&quot;font-size: 15px;&quot;&gt;N&lt;/font&gt;&lt;/span&gt;" style="text;strokeColor=none;fillColor=none;html=1;fontSize=24;fontStyle=1;verticalAlign=middle;align=center;" parent="1" vertex="1">
          <mxGeometry x="867.9999999999999" y="5382" width="70" height="30" as="geometry" />
        </mxCell>
        <mxCell id="8aWEn5WDfg_AD6E0mP8r-122" value="" style="endArrow=none;html=1;rounded=0;entryX=0;entryY=0.5;entryDx=0;entryDy=0;" parent="1" target="8aWEn5WDfg_AD6E0mP8r-117" edge="1">
          <mxGeometry width="50" height="50" relative="1" as="geometry">
            <mxPoint x="979.9999999999999" y="5484" as="sourcePoint" />
            <mxPoint x="1030" y="5434" as="targetPoint" />
          </mxGeometry>
        </mxCell>
        <mxCell id="8aWEn5WDfg_AD6E0mP8r-123" value="" style="endArrow=none;html=1;rounded=0;entryX=0.346;entryY=0.025;entryDx=0;entryDy=0;entryPerimeter=0;exitX=0.5;exitY=1;exitDx=0;exitDy=0;" parent="1" source="8aWEn5WDfg_AD6E0mP8r-117" target="8aWEn5WDfg_AD6E0mP8r-85" edge="1">
          <mxGeometry width="50" height="50" relative="1" as="geometry">
            <mxPoint x="1250" y="5344" as="sourcePoint" />
            <mxPoint x="1300" y="5294" as="targetPoint" />
          </mxGeometry>
        </mxCell>
        <mxCell id="8aWEn5WDfg_AD6E0mP8r-124" value="" style="endArrow=none;html=1;rounded=0;exitX=1;exitY=0.5;exitDx=0;exitDy=0;entryX=0;entryY=0.5;entryDx=0;entryDy=0;" parent="1" source="8aWEn5WDfg_AD6E0mP8r-117" target="8aWEn5WDfg_AD6E0mP8r-96" edge="1">
          <mxGeometry width="50" height="50" relative="1" as="geometry">
            <mxPoint x="1340" y="5484" as="sourcePoint" />
            <mxPoint x="1390" y="5434" as="targetPoint" />
          </mxGeometry>
        </mxCell>
        <mxCell id="8aWEn5WDfg_AD6E0mP8r-125" value="&lt;span style=&quot;font-weight: normal;&quot;&gt;&lt;font style=&quot;font-size: 15px;&quot;&gt;M&lt;/font&gt;&lt;/span&gt;" style="text;strokeColor=none;fillColor=none;html=1;fontSize=24;fontStyle=1;verticalAlign=middle;align=center;" parent="1" vertex="1">
          <mxGeometry x="1424" y="5273" width="70" height="30" as="geometry" />
        </mxCell>
        <mxCell id="8aWEn5WDfg_AD6E0mP8r-126" value="&lt;span style=&quot;font-weight: normal;&quot;&gt;&lt;font style=&quot;font-size: 15px;&quot;&gt;M&lt;/font&gt;&lt;/span&gt;" style="text;strokeColor=none;fillColor=none;html=1;fontSize=24;fontStyle=1;verticalAlign=middle;align=center;" parent="1" vertex="1">
          <mxGeometry x="1018.9999999999999" y="5455" width="70" height="30" as="geometry" />
        </mxCell>
        <mxCell id="8aWEn5WDfg_AD6E0mP8r-127" value="&lt;span style=&quot;font-weight: normal;&quot;&gt;&lt;font style=&quot;font-size: 15px;&quot;&gt;N&lt;/font&gt;&lt;/span&gt;" style="text;strokeColor=none;fillColor=none;html=1;fontSize=24;fontStyle=1;verticalAlign=middle;align=center;" parent="1" vertex="1">
          <mxGeometry x="1424" y="5559.75" width="70" height="30" as="geometry" />
        </mxCell>
        <mxCell id="8aWEn5WDfg_AD6E0mP8r-128" value="二E-R图" style="text;strokeColor=none;fillColor=none;html=1;fontSize=24;fontStyle=1;verticalAlign=middle;align=center;" parent="1" vertex="1">
          <mxGeometry x="1129" y="5864" width="100" height="40" as="geometry" />
        </mxCell>
        <mxCell id="8aWEn5WDfg_AD6E0mP8r-129" value="&lt;font style=&quot;font-size: 17px;&quot;&gt;存取款&lt;/font&gt;" style="rhombus;whiteSpace=wrap;html=1;" parent="1" vertex="1">
          <mxGeometry x="2700" y="5884" width="118" height="80" as="geometry" />
        </mxCell>
        <mxCell id="8aWEn5WDfg_AD6E0mP8r-130" value="" style="rounded=0;whiteSpace=wrap;html=1;" parent="1" vertex="1">
          <mxGeometry x="2366" y="3815" width="120" height="60" as="geometry" />
        </mxCell>
        <mxCell id="8aWEn5WDfg_AD6E0mP8r-131" value="&lt;span style=&quot;font-size: 17px; font-weight: 400;&quot;&gt;零件&lt;/span&gt;" style="text;strokeColor=none;fillColor=none;html=1;fontSize=24;fontStyle=1;verticalAlign=middle;align=center;" parent="1" vertex="1">
          <mxGeometry x="2386" y="3825" width="80" height="40" as="geometry" />
        </mxCell>
        <mxCell id="8aWEn5WDfg_AD6E0mP8r-132" value="" style="rounded=0;whiteSpace=wrap;html=1;" parent="1" vertex="1">
          <mxGeometry x="2112" y="4000.9999999999995" width="120" height="60" as="geometry" />
        </mxCell>
        <mxCell id="8aWEn5WDfg_AD6E0mP8r-133" value="&lt;span style=&quot;font-weight: normal;&quot;&gt;&lt;font style=&quot;font-size: 17px;&quot;&gt;工程项目&lt;/font&gt;&lt;/span&gt;" style="text;strokeColor=none;fillColor=none;html=1;fontSize=24;fontStyle=1;verticalAlign=middle;align=center;" parent="1" vertex="1">
          <mxGeometry x="2132" y="4010.9999999999995" width="80" height="40" as="geometry" />
        </mxCell>
        <mxCell id="8aWEn5WDfg_AD6E0mP8r-134" value="" style="rounded=0;whiteSpace=wrap;html=1;" parent="1" vertex="1">
          <mxGeometry x="2645" y="3994.9999999999995" width="120" height="60" as="geometry" />
        </mxCell>
        <mxCell id="8aWEn5WDfg_AD6E0mP8r-135" value="&lt;span style=&quot;font-weight: normal;&quot;&gt;&lt;font style=&quot;font-size: 17px;&quot;&gt;供应商&lt;/font&gt;&lt;/span&gt;" style="text;strokeColor=none;fillColor=none;html=1;fontSize=24;fontStyle=1;verticalAlign=middle;align=center;" parent="1" vertex="1">
          <mxGeometry x="2665" y="4004.9999999999995" width="80" height="40" as="geometry" />
        </mxCell>
        <mxCell id="8aWEn5WDfg_AD6E0mP8r-136" value="&lt;font style=&quot;font-size: 17px;&quot;&gt;供应&lt;/font&gt;" style="rhombus;whiteSpace=wrap;html=1;" parent="1" vertex="1">
          <mxGeometry x="2113" y="3815" width="118" height="80" as="geometry" />
        </mxCell>
        <mxCell id="8aWEn5WDfg_AD6E0mP8r-137" value="&lt;font style=&quot;font-size: 17px;&quot;&gt;订购&lt;/font&gt;" style="rhombus;whiteSpace=wrap;html=1;" parent="1" vertex="1">
          <mxGeometry x="2649" y="3815" width="118" height="80" as="geometry" />
        </mxCell>
        <mxCell id="8aWEn5WDfg_AD6E0mP8r-138" value="" style="endArrow=none;html=1;rounded=0;entryX=0.5;entryY=1;entryDx=0;entryDy=0;exitX=0.5;exitY=0;exitDx=0;exitDy=0;" parent="1" source="8aWEn5WDfg_AD6E0mP8r-132" target="8aWEn5WDfg_AD6E0mP8r-136" edge="1">
          <mxGeometry width="50" height="50" relative="1" as="geometry">
            <mxPoint x="2122" y="3974.9999999999995" as="sourcePoint" />
            <mxPoint x="2172" y="3924.9999999999995" as="targetPoint" />
          </mxGeometry>
        </mxCell>
        <mxCell id="8aWEn5WDfg_AD6E0mP8r-139" value="" style="endArrow=none;html=1;rounded=0;exitX=0.5;exitY=0;exitDx=0;exitDy=0;entryX=1.031;entryY=0.631;entryDx=0;entryDy=0;entryPerimeter=0;" parent="1" edge="1">
          <mxGeometry width="50" height="50" relative="1" as="geometry">
            <mxPoint x="2651" y="3854" as="sourcePoint" />
            <mxPoint x="2484.7200000000003" y="3852.86" as="targetPoint" />
          </mxGeometry>
        </mxCell>
        <mxCell id="8aWEn5WDfg_AD6E0mP8r-140" value="" style="endArrow=none;html=1;rounded=0;entryX=0.5;entryY=1;entryDx=0;entryDy=0;exitX=0.5;exitY=0;exitDx=0;exitDy=0;" parent="1" source="8aWEn5WDfg_AD6E0mP8r-134" target="8aWEn5WDfg_AD6E0mP8r-137" edge="1">
          <mxGeometry width="50" height="50" relative="1" as="geometry">
            <mxPoint x="2658" y="3954.9999999999995" as="sourcePoint" />
            <mxPoint x="2708" y="3904.9999999999995" as="targetPoint" />
          </mxGeometry>
        </mxCell>
        <mxCell id="8aWEn5WDfg_AD6E0mP8r-141" value="&lt;span style=&quot;font-size: 17px; font-weight: 400;&quot;&gt;N&lt;/span&gt;" style="text;strokeColor=none;fillColor=none;html=1;fontSize=24;fontStyle=1;verticalAlign=middle;align=center;" parent="1" vertex="1">
          <mxGeometry x="2284" y="3825" width="80" height="40" as="geometry" />
        </mxCell>
        <mxCell id="8aWEn5WDfg_AD6E0mP8r-142" value="&lt;span style=&quot;font-size: 17px; font-weight: 400;&quot;&gt;N&lt;/span&gt;" style="text;strokeColor=none;fillColor=none;html=1;fontSize=24;fontStyle=1;verticalAlign=middle;align=center;" parent="1" vertex="1">
          <mxGeometry x="2084" y="3960.9999999999995" width="80" height="40" as="geometry" />
        </mxCell>
        <mxCell id="8aWEn5WDfg_AD6E0mP8r-143" value="&lt;span style=&quot;font-size: 17px; font-weight: 400;&quot;&gt;N&lt;/span&gt;" style="text;strokeColor=none;fillColor=none;html=1;fontSize=24;fontStyle=1;verticalAlign=middle;align=center;" parent="1" vertex="1">
          <mxGeometry x="2511" y="3822" width="80" height="40" as="geometry" />
        </mxCell>
        <mxCell id="8aWEn5WDfg_AD6E0mP8r-144" value="&lt;span style=&quot;font-size: 17px; font-weight: 400;&quot;&gt;N&lt;/span&gt;" style="text;strokeColor=none;fillColor=none;html=1;fontSize=24;fontStyle=1;verticalAlign=middle;align=center;" parent="1" vertex="1">
          <mxGeometry x="2624" y="3944.9999999999995" width="80" height="40" as="geometry" />
        </mxCell>
        <mxCell id="8aWEn5WDfg_AD6E0mP8r-145" value="" style="endArrow=none;html=1;rounded=0;entryX=0.167;entryY=0.023;entryDx=0;entryDy=0;entryPerimeter=0;exitX=0.473;exitY=1.04;exitDx=0;exitDy=0;exitPerimeter=0;" parent="1" edge="1">
          <mxGeometry width="50" height="50" relative="1" as="geometry">
            <mxPoint x="2309.76" y="3760.3999999999996" as="sourcePoint" />
            <mxPoint x="2393.04" y="3814.38" as="targetPoint" />
          </mxGeometry>
        </mxCell>
        <mxCell id="8aWEn5WDfg_AD6E0mP8r-146" value="" style="rounded=1;whiteSpace=wrap;html=1;" parent="1" vertex="1">
          <mxGeometry x="2228" y="3700" width="120" height="60" as="geometry" />
        </mxCell>
        <mxCell id="8aWEn5WDfg_AD6E0mP8r-147" value="&lt;span style=&quot;font-size: 17px; font-weight: 400;&quot;&gt;零件编号&lt;/span&gt;" style="text;strokeColor=none;fillColor=none;html=1;fontSize=24;fontStyle=1;verticalAlign=middle;align=center;" parent="1" vertex="1">
          <mxGeometry x="2248" y="3710" width="80" height="40" as="geometry" />
        </mxCell>
        <mxCell id="8aWEn5WDfg_AD6E0mP8r-148" value="" style="rounded=1;whiteSpace=wrap;html=1;" parent="1" vertex="1">
          <mxGeometry x="2292" y="3615" width="120" height="60" as="geometry" />
        </mxCell>
        <mxCell id="8aWEn5WDfg_AD6E0mP8r-149" value="&lt;span style=&quot;font-weight: normal;&quot;&gt;&lt;font style=&quot;font-size: 17px;&quot;&gt;零件名称&lt;/font&gt;&lt;/span&gt;" style="text;strokeColor=none;fillColor=none;html=1;fontSize=24;fontStyle=1;verticalAlign=middle;align=center;" parent="1" vertex="1">
          <mxGeometry x="2312" y="3625" width="79" height="40" as="geometry" />
        </mxCell>
        <mxCell id="8aWEn5WDfg_AD6E0mP8r-150" value="" style="rounded=1;whiteSpace=wrap;html=1;" parent="1" vertex="1">
          <mxGeometry x="2408" y="3680" width="120" height="60" as="geometry" />
        </mxCell>
        <mxCell id="8aWEn5WDfg_AD6E0mP8r-151" value="&lt;span style=&quot;font-weight: normal;&quot;&gt;&lt;font style=&quot;font-size: 17px;&quot;&gt;颜色&lt;/font&gt;&lt;/span&gt;" style="text;strokeColor=none;fillColor=none;html=1;fontSize=24;fontStyle=1;verticalAlign=middle;align=center;" parent="1" vertex="1">
          <mxGeometry x="2428" y="3690" width="80" height="40" as="geometry" />
        </mxCell>
        <mxCell id="8aWEn5WDfg_AD6E0mP8r-152" value="" style="endArrow=none;html=1;rounded=0;entryX=0.5;entryY=1;entryDx=0;entryDy=0;exitX=0.333;exitY=0;exitDx=0;exitDy=0;exitPerimeter=0;" parent="1" target="8aWEn5WDfg_AD6E0mP8r-148" edge="1">
          <mxGeometry width="50" height="50" relative="1" as="geometry">
            <mxPoint x="2422.96" y="3815" as="sourcePoint" />
            <mxPoint x="2463" y="3685" as="targetPoint" />
          </mxGeometry>
        </mxCell>
        <mxCell id="8aWEn5WDfg_AD6E0mP8r-153" value="" style="endArrow=none;html=1;rounded=0;entryX=0.5;entryY=1;entryDx=0;entryDy=0;exitX=0.333;exitY=0;exitDx=0;exitDy=0;exitPerimeter=0;" parent="1" target="8aWEn5WDfg_AD6E0mP8r-150" edge="1">
          <mxGeometry width="50" height="50" relative="1" as="geometry">
            <mxPoint x="2455.04" y="3815" as="sourcePoint" />
            <mxPoint x="2417.04" y="3670" as="targetPoint" />
          </mxGeometry>
        </mxCell>
        <mxCell id="8aWEn5WDfg_AD6E0mP8r-154" value="" style="endArrow=none;html=1;rounded=0;entryX=0;entryY=0.5;entryDx=0;entryDy=0;exitX=1;exitY=0.5;exitDx=0;exitDy=0;" parent="1" source="8aWEn5WDfg_AD6E0mP8r-155" target="8aWEn5WDfg_AD6E0mP8r-136" edge="1">
          <mxGeometry width="50" height="50" relative="1" as="geometry">
            <mxPoint x="2042" y="3855" as="sourcePoint" />
            <mxPoint x="2112" y="3855" as="targetPoint" />
          </mxGeometry>
        </mxCell>
        <mxCell id="8aWEn5WDfg_AD6E0mP8r-155" value="" style="rounded=1;whiteSpace=wrap;html=1;" parent="1" vertex="1">
          <mxGeometry x="1945" y="3825" width="120" height="60" as="geometry" />
        </mxCell>
        <mxCell id="8aWEn5WDfg_AD6E0mP8r-156" value="&lt;span style=&quot;font-size: 17px; font-weight: 400;&quot;&gt;供应量&lt;/span&gt;" style="text;strokeColor=none;fillColor=none;html=1;fontSize=24;fontStyle=1;verticalAlign=middle;align=center;" parent="1" vertex="1">
          <mxGeometry x="1965" y="3835" width="80" height="40" as="geometry" />
        </mxCell>
        <mxCell id="8aWEn5WDfg_AD6E0mP8r-157" value="" style="rounded=1;whiteSpace=wrap;html=1;" parent="1" vertex="1">
          <mxGeometry x="2784" y="4105" width="120" height="60" as="geometry" />
        </mxCell>
        <mxCell id="8aWEn5WDfg_AD6E0mP8r-158" value="&lt;span style=&quot;font-size: 17px; font-weight: 400;&quot;&gt;地址&lt;/span&gt;" style="text;strokeColor=none;fillColor=none;html=1;fontSize=24;fontStyle=1;verticalAlign=middle;align=center;" parent="1" vertex="1">
          <mxGeometry x="2804" y="4115" width="80" height="40" as="geometry" />
        </mxCell>
        <mxCell id="8aWEn5WDfg_AD6E0mP8r-159" value="" style="endArrow=none;html=1;rounded=0;entryX=0.167;entryY=0;entryDx=0;entryDy=0;entryPerimeter=0;" parent="1" target="8aWEn5WDfg_AD6E0mP8r-157" edge="1">
          <mxGeometry width="50" height="50" relative="1" as="geometry">
            <mxPoint x="2745" y="4054.9999999999995" as="sourcePoint" />
            <mxPoint x="2795" y="4004.9999999999995" as="targetPoint" />
          </mxGeometry>
        </mxCell>
        <mxCell id="8aWEn5WDfg_AD6E0mP8r-160" value="" style="rounded=1;whiteSpace=wrap;html=1;" parent="1" vertex="1">
          <mxGeometry x="2654" y="4165" width="120" height="60" as="geometry" />
        </mxCell>
        <mxCell id="8aWEn5WDfg_AD6E0mP8r-161" value="&lt;span style=&quot;font-size: 17px; font-weight: 400;&quot;&gt;供应商名&lt;/span&gt;" style="text;strokeColor=none;fillColor=none;html=1;fontSize=24;fontStyle=1;verticalAlign=middle;align=center;" parent="1" vertex="1">
          <mxGeometry x="2674" y="4175" width="80" height="40" as="geometry" />
        </mxCell>
        <mxCell id="8aWEn5WDfg_AD6E0mP8r-162" value="" style="rounded=1;whiteSpace=wrap;html=1;" parent="1" vertex="1">
          <mxGeometry x="2545" y="4098" width="120" height="60" as="geometry" />
        </mxCell>
        <mxCell id="8aWEn5WDfg_AD6E0mP8r-163" value="&lt;span style=&quot;font-size: 17px; font-weight: 400;&quot;&gt;供应商编号&lt;/span&gt;" style="text;strokeColor=none;fillColor=none;html=1;fontSize=24;fontStyle=1;verticalAlign=middle;align=center;" parent="1" vertex="1">
          <mxGeometry x="2565" y="4108" width="80" height="40" as="geometry" />
        </mxCell>
        <mxCell id="8aWEn5WDfg_AD6E0mP8r-164" value="" style="endArrow=none;html=1;rounded=0;entryX=0.12;entryY=1.018;entryDx=0;entryDy=0;entryPerimeter=0;exitX=0.67;exitY=-0.027;exitDx=0;exitDy=0;exitPerimeter=0;" parent="1" source="8aWEn5WDfg_AD6E0mP8r-162" target="8aWEn5WDfg_AD6E0mP8r-134" edge="1">
          <mxGeometry width="50" height="50" relative="1" as="geometry">
            <mxPoint x="2595" y="4084.9999999999995" as="sourcePoint" />
            <mxPoint x="2645" y="4034.9999999999995" as="targetPoint" />
          </mxGeometry>
        </mxCell>
        <mxCell id="8aWEn5WDfg_AD6E0mP8r-165" value="" style="endArrow=none;html=1;rounded=0;exitX=0.5;exitY=0;exitDx=0;exitDy=0;" parent="1" source="8aWEn5WDfg_AD6E0mP8r-160" edge="1">
          <mxGeometry width="50" height="50" relative="1" as="geometry">
            <mxPoint x="2642.84" y="4173.4400000000005" as="sourcePoint" />
            <mxPoint x="2686" y="4054.9999999999995" as="targetPoint" />
          </mxGeometry>
        </mxCell>
        <mxCell id="8aWEn5WDfg_AD6E0mP8r-166" value="" style="rounded=1;whiteSpace=wrap;html=1;" parent="1" vertex="1">
          <mxGeometry x="1949" y="4087.9999999999995" width="120" height="60" as="geometry" />
        </mxCell>
        <mxCell id="8aWEn5WDfg_AD6E0mP8r-167" value="&lt;span style=&quot;font-size: 17px; font-weight: 400;&quot;&gt;项目编号&lt;/span&gt;" style="text;strokeColor=none;fillColor=none;html=1;fontSize=24;fontStyle=1;verticalAlign=middle;align=center;" parent="1" vertex="1">
          <mxGeometry x="1969" y="4098" width="80" height="40" as="geometry" />
        </mxCell>
        <mxCell id="8aWEn5WDfg_AD6E0mP8r-168" value="" style="rounded=1;whiteSpace=wrap;html=1;" parent="1" vertex="1">
          <mxGeometry x="2064" y="4161" width="120" height="60" as="geometry" />
        </mxCell>
        <mxCell id="8aWEn5WDfg_AD6E0mP8r-169" value="&lt;span style=&quot;font-size: 17px; font-weight: 400;&quot;&gt;启动日期&lt;/span&gt;" style="text;strokeColor=none;fillColor=none;html=1;fontSize=24;fontStyle=1;verticalAlign=middle;align=center;" parent="1" vertex="1">
          <mxGeometry x="2084" y="4171" width="80" height="40" as="geometry" />
        </mxCell>
        <mxCell id="8aWEn5WDfg_AD6E0mP8r-170" value="" style="rounded=1;whiteSpace=wrap;html=1;" parent="1" vertex="1">
          <mxGeometry x="2212" y="4158" width="120" height="60" as="geometry" />
        </mxCell>
        <mxCell id="8aWEn5WDfg_AD6E0mP8r-171" value="&lt;span style=&quot;font-size: 17px; font-weight: 400;&quot;&gt;项目名称&lt;/span&gt;" style="text;strokeColor=none;fillColor=none;html=1;fontSize=24;fontStyle=1;verticalAlign=middle;align=center;" parent="1" vertex="1">
          <mxGeometry x="2232" y="4168" width="80" height="40" as="geometry" />
        </mxCell>
        <mxCell id="8aWEn5WDfg_AD6E0mP8r-172" value="" style="endArrow=none;html=1;rounded=0;exitX=0.832;exitY=-0.026;exitDx=0;exitDy=0;exitPerimeter=0;" parent="1" source="8aWEn5WDfg_AD6E0mP8r-166" edge="1">
          <mxGeometry width="50" height="50" relative="1" as="geometry">
            <mxPoint x="2064" y="4080.9999999999995" as="sourcePoint" />
            <mxPoint x="2114" y="4030.9999999999995" as="targetPoint" />
          </mxGeometry>
        </mxCell>
        <mxCell id="8aWEn5WDfg_AD6E0mP8r-173" value="" style="endArrow=none;html=1;rounded=0;exitX=0.5;exitY=0;exitDx=0;exitDy=0;" parent="1" edge="1">
          <mxGeometry width="50" height="50" relative="1" as="geometry">
            <mxPoint x="2124" y="4161" as="sourcePoint" />
            <mxPoint x="2164" y="4060.9999999999995" as="targetPoint" />
          </mxGeometry>
        </mxCell>
        <mxCell id="8aWEn5WDfg_AD6E0mP8r-174" value="" style="endArrow=none;html=1;rounded=0;entryX=0.599;entryY=1.023;entryDx=0;entryDy=0;entryPerimeter=0;exitX=0.282;exitY=-0.011;exitDx=0;exitDy=0;exitPerimeter=0;" parent="1" source="8aWEn5WDfg_AD6E0mP8r-170" target="8aWEn5WDfg_AD6E0mP8r-132" edge="1">
          <mxGeometry width="50" height="50" relative="1" as="geometry">
            <mxPoint x="2154" y="4121" as="sourcePoint" />
            <mxPoint x="2204" y="4070.9999999999995" as="targetPoint" />
          </mxGeometry>
        </mxCell>
        <mxCell id="8aWEn5WDfg_AD6E0mP8r-175" value="" style="endArrow=none;html=1;rounded=0;exitX=1;exitY=0.5;exitDx=0;exitDy=0;" parent="1" source="8aWEn5WDfg_AD6E0mP8r-136" edge="1">
          <mxGeometry width="50" height="50" relative="1" as="geometry">
            <mxPoint x="2315" y="3894.9999999999995" as="sourcePoint" />
            <mxPoint x="2365" y="3855" as="targetPoint" />
          </mxGeometry>
        </mxCell>
        <mxCell id="8aWEn5WDfg_AD6E0mP8r-176" value="" style="endArrow=none;html=1;rounded=0;entryX=0;entryY=0.5;entryDx=0;entryDy=0;exitX=1;exitY=0.5;exitDx=0;exitDy=0;" parent="1" target="8aWEn5WDfg_AD6E0mP8r-177" edge="1">
          <mxGeometry width="50" height="50" relative="1" as="geometry">
            <mxPoint x="2766" y="3855" as="sourcePoint" />
            <mxPoint x="2814" y="3855" as="targetPoint" />
          </mxGeometry>
        </mxCell>
        <mxCell id="8aWEn5WDfg_AD6E0mP8r-177" value="" style="rounded=1;whiteSpace=wrap;html=1;" parent="1" vertex="1">
          <mxGeometry x="2843" y="3825" width="120" height="60" as="geometry" />
        </mxCell>
        <mxCell id="8aWEn5WDfg_AD6E0mP8r-178" value="&lt;span style=&quot;font-size: 17px; font-weight: 400;&quot;&gt;订购量&lt;/span&gt;" style="text;strokeColor=none;fillColor=none;html=1;fontSize=24;fontStyle=1;verticalAlign=middle;align=center;" parent="1" vertex="1">
          <mxGeometry x="2863" y="3835" width="80" height="40" as="geometry" />
        </mxCell>
        <mxCell id="8aWEn5WDfg_AD6E0mP8r-179" value="" style="rounded=1;whiteSpace=wrap;html=1;" parent="1" vertex="1">
          <mxGeometry x="2529" y="3610" width="120" height="60" as="geometry" />
        </mxCell>
        <mxCell id="8aWEn5WDfg_AD6E0mP8r-180" value="&lt;span style=&quot;font-size: 17px; font-weight: 400;&quot;&gt;重量&lt;/span&gt;" style="text;strokeColor=none;fillColor=none;html=1;fontSize=24;fontStyle=1;verticalAlign=middle;align=center;" parent="1" vertex="1">
          <mxGeometry x="2549" y="3620" width="76.04" height="40" as="geometry" />
        </mxCell>
        <mxCell id="8aWEn5WDfg_AD6E0mP8r-181" value="" style="endArrow=none;html=1;rounded=0;entryX=0.5;entryY=1;entryDx=0;entryDy=0;exitX=1;exitY=0;exitDx=0;exitDy=0;" parent="1" source="8aWEn5WDfg_AD6E0mP8r-130" target="8aWEn5WDfg_AD6E0mP8r-179" edge="1">
          <mxGeometry width="50" height="50" relative="1" as="geometry">
            <mxPoint x="2593" y="3822" as="sourcePoint" />
            <mxPoint x="2555" y="3677" as="targetPoint" />
          </mxGeometry>
        </mxCell>
        <mxCell id="8aWEn5WDfg_AD6E0mP8r-182" value="" style="rounded=1;whiteSpace=wrap;html=1;" parent="1" vertex="1">
          <mxGeometry x="2604" y="5728" width="120" height="60" as="geometry" />
        </mxCell>
        <mxCell id="8aWEn5WDfg_AD6E0mP8r-183" value="&lt;span style=&quot;font-size: 17px; font-weight: 400;&quot;&gt;数额&lt;/span&gt;" style="text;strokeColor=none;fillColor=none;html=1;fontSize=24;fontStyle=1;verticalAlign=middle;align=center;" parent="1" vertex="1">
          <mxGeometry x="2624" y="5738" width="80" height="40" as="geometry" />
        </mxCell>
        <mxCell id="8aWEn5WDfg_AD6E0mP8r-184" value="" style="endArrow=none;html=1;rounded=0;entryX=0.231;entryY=0.247;entryDx=0;entryDy=0;exitX=0.624;exitY=0.993;exitDx=0;exitDy=0;exitPerimeter=0;entryPerimeter=0;" parent="1" source="8aWEn5WDfg_AD6E0mP8r-182" target="8aWEn5WDfg_AD6E0mP8r-129" edge="1">
          <mxGeometry width="50" height="50" relative="1" as="geometry">
            <mxPoint x="2648.5" y="5964" as="sourcePoint" />
            <mxPoint x="2713.5" y="5944" as="targetPoint" />
          </mxGeometry>
        </mxCell>
        <mxCell id="8aWEn5WDfg_AD6E0mP8r-185" value="" style="rounded=1;whiteSpace=wrap;html=1;" parent="1" vertex="1">
          <mxGeometry x="2760" y="5728" width="120" height="60" as="geometry" />
        </mxCell>
        <mxCell id="8aWEn5WDfg_AD6E0mP8r-186" value="&lt;span style=&quot;font-size: 17px; font-weight: 400;&quot;&gt;密码&lt;/span&gt;" style="text;strokeColor=none;fillColor=none;html=1;fontSize=24;fontStyle=1;verticalAlign=middle;align=center;" parent="1" vertex="1">
          <mxGeometry x="2780" y="5738" width="80" height="40" as="geometry" />
        </mxCell>
        <mxCell id="8aWEn5WDfg_AD6E0mP8r-187" value="" style="endArrow=none;html=1;rounded=0;exitX=0.5;exitY=1;exitDx=0;exitDy=0;entryX=0.882;entryY=0.361;entryDx=0;entryDy=0;entryPerimeter=0;" parent="1" source="8aWEn5WDfg_AD6E0mP8r-185" target="8aWEn5WDfg_AD6E0mP8r-129" edge="1">
          <mxGeometry width="50" height="50" relative="1" as="geometry">
            <mxPoint x="2909" y="5984" as="sourcePoint" />
            <mxPoint x="2820" y="5954" as="targetPoint" />
          </mxGeometry>
        </mxCell>
        <mxCell id="8aWEn5WDfg_AD6E0mP8r-188" value="" style="rounded=1;whiteSpace=wrap;html=1;" parent="1" vertex="1">
          <mxGeometry x="2590" y="6044" width="120" height="60" as="geometry" />
        </mxCell>
        <mxCell id="8aWEn5WDfg_AD6E0mP8r-189" value="&lt;span style=&quot;font-size: 17px; font-weight: 400;&quot;&gt;类型&lt;/span&gt;" style="text;strokeColor=none;fillColor=none;html=1;fontSize=24;fontStyle=1;verticalAlign=middle;align=center;" parent="1" vertex="1">
          <mxGeometry x="2610" y="6054" width="80" height="40" as="geometry" />
        </mxCell>
        <mxCell id="8aWEn5WDfg_AD6E0mP8r-190" value="" style="endArrow=none;html=1;rounded=0;entryX=0.328;entryY=0.854;entryDx=0;entryDy=0;entryPerimeter=0;exitX=0.596;exitY=-0.019;exitDx=0;exitDy=0;exitPerimeter=0;" parent="1" source="8aWEn5WDfg_AD6E0mP8r-188" target="8aWEn5WDfg_AD6E0mP8r-129" edge="1">
          <mxGeometry width="50" height="50" relative="1" as="geometry">
            <mxPoint x="2688.5" y="6044" as="sourcePoint" />
            <mxPoint x="2758" y="6014" as="targetPoint" />
          </mxGeometry>
        </mxCell>
        <mxCell id="8aWEn5WDfg_AD6E0mP8r-191" value="" style="rounded=1;whiteSpace=wrap;html=1;" parent="1" vertex="1">
          <mxGeometry x="2709" y="6124" width="120" height="60" as="geometry" />
        </mxCell>
        <mxCell id="8aWEn5WDfg_AD6E0mP8r-192" value="&lt;span style=&quot;font-size: 17px; font-weight: 400;&quot;&gt;到期日期&lt;/span&gt;" style="text;strokeColor=none;fillColor=none;html=1;fontSize=24;fontStyle=1;verticalAlign=middle;align=center;" parent="1" vertex="1">
          <mxGeometry x="2733" y="6134" width="74" height="40" as="geometry" />
        </mxCell>
        <mxCell id="8aWEn5WDfg_AD6E0mP8r-193" value="" style="endArrow=none;html=1;rounded=0;exitX=0.596;exitY=-0.019;exitDx=0;exitDy=0;exitPerimeter=0;entryX=0.5;entryY=1;entryDx=0;entryDy=0;" parent="1" source="8aWEn5WDfg_AD6E0mP8r-191" target="8aWEn5WDfg_AD6E0mP8r-129" edge="1">
          <mxGeometry width="50" height="50" relative="1" as="geometry">
            <mxPoint x="2891" y="6064" as="sourcePoint" />
            <mxPoint x="2789" y="6011" as="targetPoint" />
          </mxGeometry>
        </mxCell>
        <mxCell id="8aWEn5WDfg_AD6E0mP8r-194" value="" style="rounded=1;whiteSpace=wrap;html=1;" parent="1" vertex="1">
          <mxGeometry x="2818" y="6034" width="120" height="60" as="geometry" />
        </mxCell>
        <mxCell id="8aWEn5WDfg_AD6E0mP8r-195" value="&lt;span style=&quot;font-size: 17px; font-weight: 400;&quot;&gt;利率&lt;/span&gt;" style="text;strokeColor=none;fillColor=none;html=1;fontSize=24;fontStyle=1;verticalAlign=middle;align=center;" parent="1" vertex="1">
          <mxGeometry x="2838" y="6044" width="80" height="40" as="geometry" />
        </mxCell>
        <mxCell id="8aWEn5WDfg_AD6E0mP8r-196" value="" style="endArrow=none;html=1;rounded=0;exitX=0.307;exitY=-0.033;exitDx=0;exitDy=0;exitPerimeter=0;entryX=0.695;entryY=0.788;entryDx=0;entryDy=0;entryPerimeter=0;" parent="1" source="8aWEn5WDfg_AD6E0mP8r-194" target="8aWEn5WDfg_AD6E0mP8r-129" edge="1">
          <mxGeometry width="50" height="50" relative="1" as="geometry">
            <mxPoint x="2882" y="6077" as="sourcePoint" />
            <mxPoint x="2780" y="6024" as="targetPoint" />
          </mxGeometry>
        </mxCell>
        <mxCell id="8aWEn5WDfg_AD6E0mP8r-197" value="" style="rounded=0;whiteSpace=wrap;html=1;" parent="1" vertex="1">
          <mxGeometry x="3130" y="5893.5" width="120" height="60" as="geometry" />
        </mxCell>
        <mxCell id="8aWEn5WDfg_AD6E0mP8r-198" value="&lt;span style=&quot;font-weight: normal;&quot;&gt;&lt;font style=&quot;font-size: 17px;&quot;&gt;系统&lt;/font&gt;&lt;/span&gt;" style="text;strokeColor=none;fillColor=none;html=1;fontSize=24;fontStyle=1;verticalAlign=middle;align=center;" parent="1" vertex="1">
          <mxGeometry x="3150" y="5903.5" width="80" height="40" as="geometry" />
        </mxCell>
        <mxCell id="8aWEn5WDfg_AD6E0mP8r-199" value="" style="rounded=1;whiteSpace=wrap;html=1;" parent="1" vertex="1">
          <mxGeometry x="2980" y="5791" width="120" height="60" as="geometry" />
        </mxCell>
        <mxCell id="8aWEn5WDfg_AD6E0mP8r-200" value="&lt;span style=&quot;font-size: 17px; font-weight: 400;&quot;&gt;名称&lt;/span&gt;" style="text;strokeColor=none;fillColor=none;html=1;fontSize=24;fontStyle=1;verticalAlign=middle;align=center;" parent="1" vertex="1">
          <mxGeometry x="3000" y="5801" width="80" height="40" as="geometry" />
        </mxCell>
        <mxCell id="8aWEn5WDfg_AD6E0mP8r-201" value="" style="rounded=1;whiteSpace=wrap;html=1;" parent="1" vertex="1">
          <mxGeometry x="3260" y="5741" width="120" height="60" as="geometry" />
        </mxCell>
        <mxCell id="8aWEn5WDfg_AD6E0mP8r-202" value="&lt;span style=&quot;font-size: 17px; font-weight: 400;&quot;&gt;地址&lt;/span&gt;" style="text;strokeColor=none;fillColor=none;html=1;fontSize=24;fontStyle=1;verticalAlign=middle;align=center;" parent="1" vertex="1">
          <mxGeometry x="3280" y="5751" width="80" height="40" as="geometry" />
        </mxCell>
        <mxCell id="8aWEn5WDfg_AD6E0mP8r-203" value="" style="rounded=1;whiteSpace=wrap;html=1;" parent="1" vertex="1">
          <mxGeometry x="3110" y="5706" width="120" height="60" as="geometry" />
        </mxCell>
        <mxCell id="8aWEn5WDfg_AD6E0mP8r-204" value="&lt;span style=&quot;font-size: 17px; font-weight: 400;&quot;&gt;电话号码&lt;/span&gt;" style="text;strokeColor=none;fillColor=none;html=1;fontSize=24;fontStyle=1;verticalAlign=middle;align=center;" parent="1" vertex="1">
          <mxGeometry x="3130" y="5716" width="80" height="40" as="geometry" />
        </mxCell>
        <mxCell id="8aWEn5WDfg_AD6E0mP8r-205" value="" style="endArrow=none;html=1;rounded=0;exitX=0.27;exitY=0.017;exitDx=0;exitDy=0;exitPerimeter=0;" parent="1" source="8aWEn5WDfg_AD6E0mP8r-197" edge="1">
          <mxGeometry width="50" height="50" relative="1" as="geometry">
            <mxPoint x="3003" y="5901.5" as="sourcePoint" />
            <mxPoint x="3053" y="5851.5" as="targetPoint" />
          </mxGeometry>
        </mxCell>
        <mxCell id="8aWEn5WDfg_AD6E0mP8r-206" value="" style="endArrow=none;html=1;rounded=0;entryX=0.75;entryY=1;entryDx=0;entryDy=0;exitX=0.5;exitY=0;exitDx=0;exitDy=0;" parent="1" source="8aWEn5WDfg_AD6E0mP8r-197" target="8aWEn5WDfg_AD6E0mP8r-203" edge="1">
          <mxGeometry width="50" height="50" relative="1" as="geometry">
            <mxPoint x="3020" y="5913.5" as="sourcePoint" />
            <mxPoint x="3070" y="5863.5" as="targetPoint" />
          </mxGeometry>
        </mxCell>
        <mxCell id="8aWEn5WDfg_AD6E0mP8r-207" value="" style="endArrow=none;html=1;rounded=0;entryX=0.425;entryY=0.993;entryDx=0;entryDy=0;entryPerimeter=0;exitX=0.728;exitY=-0.007;exitDx=0;exitDy=0;exitPerimeter=0;" parent="1" source="8aWEn5WDfg_AD6E0mP8r-197" target="8aWEn5WDfg_AD6E0mP8r-201" edge="1">
          <mxGeometry width="50" height="50" relative="1" as="geometry">
            <mxPoint x="3030" y="5923.5" as="sourcePoint" />
            <mxPoint x="3080" y="5873.5" as="targetPoint" />
          </mxGeometry>
        </mxCell>
        <mxCell id="8aWEn5WDfg_AD6E0mP8r-208" value="" style="endArrow=none;html=1;rounded=0;exitX=1;exitY=0.5;exitDx=0;exitDy=0;entryX=0;entryY=0.5;entryDx=0;entryDy=0;" parent="1" source="8aWEn5WDfg_AD6E0mP8r-129" target="8aWEn5WDfg_AD6E0mP8r-197" edge="1">
          <mxGeometry width="50" height="50" relative="1" as="geometry">
            <mxPoint x="2820" y="5934" as="sourcePoint" />
            <mxPoint x="2870" y="5884" as="targetPoint" />
          </mxGeometry>
        </mxCell>
        <mxCell id="8aWEn5WDfg_AD6E0mP8r-209" value="&lt;span style=&quot;font-weight: normal;&quot;&gt;&lt;font style=&quot;font-size: 15px;&quot;&gt;N&lt;/font&gt;&lt;/span&gt;" style="text;strokeColor=none;fillColor=none;html=1;fontSize=24;fontStyle=1;verticalAlign=middle;align=center;" parent="1" vertex="1">
          <mxGeometry x="3005" y="5893.5" width="70" height="30" as="geometry" />
        </mxCell>
        <mxCell id="8aWEn5WDfg_AD6E0mP8r-210" value="" style="rounded=0;whiteSpace=wrap;html=1;" parent="1" vertex="1">
          <mxGeometry x="2328" y="5893.5" width="120" height="60" as="geometry" />
        </mxCell>
        <mxCell id="8aWEn5WDfg_AD6E0mP8r-211" value="&lt;span style=&quot;font-weight: normal;&quot;&gt;&lt;font style=&quot;font-size: 17px;&quot;&gt;系统&lt;/font&gt;&lt;/span&gt;" style="text;strokeColor=none;fillColor=none;html=1;fontSize=24;fontStyle=1;verticalAlign=middle;align=center;" parent="1" vertex="1">
          <mxGeometry x="2348" y="5903.5" width="80" height="40" as="geometry" />
        </mxCell>
        <mxCell id="8aWEn5WDfg_AD6E0mP8r-212" value="" style="rounded=1;whiteSpace=wrap;html=1;" parent="1" vertex="1">
          <mxGeometry x="2178" y="5791" width="120" height="60" as="geometry" />
        </mxCell>
        <mxCell id="8aWEn5WDfg_AD6E0mP8r-213" value="&lt;span style=&quot;font-size: 17px; font-weight: 400;&quot;&gt;姓名&lt;/span&gt;" style="text;strokeColor=none;fillColor=none;html=1;fontSize=24;fontStyle=1;verticalAlign=middle;align=center;" parent="1" vertex="1">
          <mxGeometry x="2198" y="5801" width="80" height="40" as="geometry" />
        </mxCell>
        <mxCell id="8aWEn5WDfg_AD6E0mP8r-214" value="" style="rounded=1;whiteSpace=wrap;html=1;" parent="1" vertex="1">
          <mxGeometry x="2389" y="5709.5" width="120" height="60" as="geometry" />
        </mxCell>
        <mxCell id="8aWEn5WDfg_AD6E0mP8r-215" value="&lt;span style=&quot;font-size: 17px; font-weight: 400;&quot;&gt;住址&lt;/span&gt;" style="text;strokeColor=none;fillColor=none;html=1;fontSize=24;fontStyle=1;verticalAlign=middle;align=center;" parent="1" vertex="1">
          <mxGeometry x="2409" y="5719.5" width="80" height="40" as="geometry" />
        </mxCell>
        <mxCell id="8aWEn5WDfg_AD6E0mP8r-216" value="" style="rounded=1;whiteSpace=wrap;html=1;" parent="1" vertex="1">
          <mxGeometry x="2459" y="5779.5" width="120" height="60" as="geometry" />
        </mxCell>
        <mxCell id="8aWEn5WDfg_AD6E0mP8r-217" value="&lt;span style=&quot;font-size: 17px; font-weight: 400;&quot;&gt;身份证号码&lt;/span&gt;" style="text;strokeColor=none;fillColor=none;html=1;fontSize=24;fontStyle=1;verticalAlign=middle;align=center;" parent="1" vertex="1">
          <mxGeometry x="2479" y="5789.5" width="80" height="40" as="geometry" />
        </mxCell>
        <mxCell id="8aWEn5WDfg_AD6E0mP8r-218" value="" style="rounded=1;whiteSpace=wrap;html=1;" parent="1" vertex="1">
          <mxGeometry x="2248" y="5706" width="120" height="60" as="geometry" />
        </mxCell>
        <mxCell id="8aWEn5WDfg_AD6E0mP8r-219" value="&lt;span style=&quot;font-size: 17px; font-weight: 400;&quot;&gt;电话号码&lt;/span&gt;" style="text;strokeColor=none;fillColor=none;html=1;fontSize=24;fontStyle=1;verticalAlign=middle;align=center;" parent="1" vertex="1">
          <mxGeometry x="2268" y="5716" width="80" height="40" as="geometry" />
        </mxCell>
        <mxCell id="8aWEn5WDfg_AD6E0mP8r-220" value="" style="endArrow=none;html=1;rounded=0;exitX=0.27;exitY=0.017;exitDx=0;exitDy=0;exitPerimeter=0;" parent="1" source="8aWEn5WDfg_AD6E0mP8r-210" edge="1">
          <mxGeometry width="50" height="50" relative="1" as="geometry">
            <mxPoint x="2201" y="5901.5" as="sourcePoint" />
            <mxPoint x="2251" y="5851.5" as="targetPoint" />
          </mxGeometry>
        </mxCell>
        <mxCell id="8aWEn5WDfg_AD6E0mP8r-221" value="" style="endArrow=none;html=1;rounded=0;entryX=0.75;entryY=1;entryDx=0;entryDy=0;exitX=0.5;exitY=0;exitDx=0;exitDy=0;" parent="1" source="8aWEn5WDfg_AD6E0mP8r-210" target="8aWEn5WDfg_AD6E0mP8r-218" edge="1">
          <mxGeometry width="50" height="50" relative="1" as="geometry">
            <mxPoint x="2218" y="5913.5" as="sourcePoint" />
            <mxPoint x="2268" y="5863.5" as="targetPoint" />
          </mxGeometry>
        </mxCell>
        <mxCell id="8aWEn5WDfg_AD6E0mP8r-222" value="" style="endArrow=none;html=1;rounded=0;entryX=0.425;entryY=0.993;entryDx=0;entryDy=0;entryPerimeter=0;exitX=0.728;exitY=-0.007;exitDx=0;exitDy=0;exitPerimeter=0;" parent="1" source="8aWEn5WDfg_AD6E0mP8r-210" target="8aWEn5WDfg_AD6E0mP8r-214" edge="1">
          <mxGeometry width="50" height="50" relative="1" as="geometry">
            <mxPoint x="2228" y="5923.5" as="sourcePoint" />
            <mxPoint x="2278" y="5873.5" as="targetPoint" />
          </mxGeometry>
        </mxCell>
        <mxCell id="8aWEn5WDfg_AD6E0mP8r-223" value="" style="endArrow=none;html=1;rounded=0;entryX=0.439;entryY=1.005;entryDx=0;entryDy=0;entryPerimeter=0;exitX=0.889;exitY=0.021;exitDx=0;exitDy=0;exitPerimeter=0;" parent="1" source="8aWEn5WDfg_AD6E0mP8r-210" target="8aWEn5WDfg_AD6E0mP8r-216" edge="1">
          <mxGeometry width="50" height="50" relative="1" as="geometry">
            <mxPoint x="2238" y="5933.5" as="sourcePoint" />
            <mxPoint x="2288" y="5883.5" as="targetPoint" />
          </mxGeometry>
        </mxCell>
        <mxCell id="8aWEn5WDfg_AD6E0mP8r-224" value="" style="endArrow=none;html=1;rounded=0;exitX=0.998;exitY=0.449;exitDx=0;exitDy=0;exitPerimeter=0;entryX=0;entryY=0.5;entryDx=0;entryDy=0;" parent="1" source="8aWEn5WDfg_AD6E0mP8r-210" target="8aWEn5WDfg_AD6E0mP8r-129" edge="1">
          <mxGeometry width="50" height="50" relative="1" as="geometry">
            <mxPoint x="2460" y="5934" as="sourcePoint" />
            <mxPoint x="2510" y="5884" as="targetPoint" />
          </mxGeometry>
        </mxCell>
        <mxCell id="8aWEn5WDfg_AD6E0mP8r-225" value="&lt;span style=&quot;font-weight: normal;&quot;&gt;&lt;font style=&quot;font-size: 15px;&quot;&gt;M&lt;/font&gt;&lt;/span&gt;" style="text;strokeColor=none;fillColor=none;html=1;fontSize=24;fontStyle=1;verticalAlign=middle;align=center;" parent="1" vertex="1">
          <mxGeometry x="2495" y="5893.5" width="70" height="30" as="geometry" />
        </mxCell>
        <mxCell id="8aWEn5WDfg_AD6E0mP8r-226" value="三E-R图" style="text;strokeColor=none;fillColor=none;html=1;fontSize=24;fontStyle=1;verticalAlign=middle;align=center;" parent="1" vertex="1">
          <mxGeometry x="2704" y="6254" width="100" height="40" as="geometry" />
        </mxCell>
        <mxCell id="8aWEn5WDfg_AD6E0mP8r-227" value="一E-R图" style="text;strokeColor=none;fillColor=none;html=1;fontSize=24;fontStyle=1;verticalAlign=middle;align=center;" parent="1" vertex="1">
          <mxGeometry x="2366" y="4294" width="100" height="40" as="geometry" />
        </mxCell>
        <mxCell id="8aWEn5WDfg_AD6E0mP8r-243" value="" style="edgeStyle=orthogonalEdgeStyle;rounded=0;orthogonalLoop=1;jettySize=auto;html=1;" parent="1" source="8aWEn5WDfg_AD6E0mP8r-233" target="8aWEn5WDfg_AD6E0mP8r-236" edge="1">
          <mxGeometry relative="1" as="geometry" />
        </mxCell>
        <mxCell id="8aWEn5WDfg_AD6E0mP8r-233" value="" style="rounded=0;whiteSpace=wrap;html=1;" parent="1" vertex="1">
          <mxGeometry x="1223.5" y="6640" width="120" height="60" as="geometry" />
        </mxCell>
        <mxCell id="8aWEn5WDfg_AD6E0mP8r-235" value="" style="rounded=1;whiteSpace=wrap;html=1;" parent="1" vertex="1">
          <mxGeometry x="1314" y="6770" width="120" height="60" as="geometry" />
        </mxCell>
        <mxCell id="8aWEn5WDfg_AD6E0mP8r-236" value="" style="rounded=1;whiteSpace=wrap;html=1;" parent="1" vertex="1">
          <mxGeometry x="1139" y="6770" width="120" height="60" as="geometry" />
        </mxCell>
        <mxCell id="8aWEn5WDfg_AD6E0mP8r-237" value="" style="rounded=0;whiteSpace=wrap;html=1;" parent="1" vertex="1">
          <mxGeometry x="1219" y="6480" width="120" height="60" as="geometry" />
        </mxCell>
        <mxCell id="8aWEn5WDfg_AD6E0mP8r-238" value="" style="rounded=1;whiteSpace=wrap;html=1;" parent="1" vertex="1">
          <mxGeometry x="1139" y="6370" width="120" height="60" as="geometry" />
        </mxCell>
        <mxCell id="8aWEn5WDfg_AD6E0mP8r-239" value="" style="rounded=1;whiteSpace=wrap;html=1;" parent="1" vertex="1">
          <mxGeometry x="1308" y="6370" width="120" height="60" as="geometry" />
        </mxCell>
        <mxCell id="8aWEn5WDfg_AD6E0mP8r-240" value="" style="rounded=0;whiteSpace=wrap;html=1;" parent="1" vertex="1">
          <mxGeometry x="1571" y="6570" width="120" height="60" as="geometry" />
        </mxCell>
        <mxCell id="8aWEn5WDfg_AD6E0mP8r-241" value="" style="rounded=1;whiteSpace=wrap;html=1;" parent="1" vertex="1">
          <mxGeometry x="1735" y="6480" width="120" height="60" as="geometry" />
        </mxCell>
        <mxCell id="8aWEn5WDfg_AD6E0mP8r-242" value="" style="rounded=1;whiteSpace=wrap;html=1;" parent="1" vertex="1">
          <mxGeometry x="1735" y="6680" width="120" height="60" as="geometry" />
        </mxCell>
      </root>
    </mxGraphModel>
  </diagram>
  <diagram id="hPc_p8pwiPY1f09FmQdY" name="第 2 页">
    <mxGraphModel dx="2827" dy="1237" grid="0" gridSize="10" guides="1" tooltips="1" connect="1" arrows="1" fold="1" page="0" pageScale="1" pageWidth="827" pageHeight="1169" math="0" shadow="0">
      <root>
        <mxCell id="0" />
        <mxCell id="1" parent="0" />
        <mxCell id="yEQ2idmZSXznNU5Q38Bc-1" value="" style="ellipse;html=1;shape=startState;fillColor=#000000;strokeColor=#ff0000;" parent="1" vertex="1">
          <mxGeometry x="95" y="34" width="30" height="30" as="geometry" />
        </mxCell>
        <mxCell id="yEQ2idmZSXznNU5Q38Bc-2" value="" style="edgeStyle=orthogonalEdgeStyle;html=1;verticalAlign=bottom;endArrow=open;endSize=8;strokeColor=#ff0000;rounded=0;fontSize=12;curved=1;" parent="1" source="yEQ2idmZSXznNU5Q38Bc-1" target="yEQ2idmZSXznNU5Q38Bc-6" edge="1">
          <mxGeometry relative="1" as="geometry">
            <mxPoint x="110" y="114" as="targetPoint" />
            <Array as="points">
              <mxPoint x="110" y="89" />
              <mxPoint x="111" y="89" />
            </Array>
          </mxGeometry>
        </mxCell>
        <mxCell id="yEQ2idmZSXznNU5Q38Bc-3" value="" style="ellipse;html=1;shape=endState;fillColor=#000000;strokeColor=#ff0000;" parent="1" vertex="1">
          <mxGeometry x="101" y="569" width="30" height="30" as="geometry" />
        </mxCell>
        <mxCell id="yEQ2idmZSXznNU5Q38Bc-11" style="edgeStyle=none;curved=1;rounded=0;orthogonalLoop=1;jettySize=auto;html=1;exitX=0.75;exitY=1;exitDx=0;exitDy=0;entryX=0;entryY=0.25;entryDx=0;entryDy=0;fontSize=12;startSize=8;endSize=8;" parent="1" source="yEQ2idmZSXznNU5Q38Bc-4" target="yEQ2idmZSXznNU5Q38Bc-8" edge="1">
          <mxGeometry relative="1" as="geometry" />
        </mxCell>
        <mxCell id="yEQ2idmZSXznNU5Q38Bc-4" value="注册账户" style="html=1;whiteSpace=wrap;" parent="1" vertex="1">
          <mxGeometry x="-51" y="231" width="110" height="50" as="geometry" />
        </mxCell>
        <mxCell id="yEQ2idmZSXznNU5Q38Bc-9" style="edgeStyle=none;curved=1;rounded=0;orthogonalLoop=1;jettySize=auto;html=1;exitX=1;exitY=1;exitDx=0;exitDy=0;fontSize=12;startSize=8;endSize=8;" parent="1" source="yEQ2idmZSXznNU5Q38Bc-6" target="yEQ2idmZSXznNU5Q38Bc-8" edge="1">
          <mxGeometry relative="1" as="geometry" />
        </mxCell>
        <mxCell id="yEQ2idmZSXznNU5Q38Bc-13" value="true" style="edgeLabel;html=1;align=center;verticalAlign=middle;resizable=0;points=[];fontSize=12;" parent="yEQ2idmZSXznNU5Q38Bc-9" vertex="1" connectable="0">
          <mxGeometry x="-0.0626" y="2" relative="1" as="geometry">
            <mxPoint as="offset" />
          </mxGeometry>
        </mxCell>
        <mxCell id="yEQ2idmZSXznNU5Q38Bc-6" value="是否有账户" style="rhombus;whiteSpace=wrap;html=1;" parent="1" vertex="1">
          <mxGeometry x="70" y="114" width="80" height="80" as="geometry" />
        </mxCell>
        <mxCell id="yEQ2idmZSXznNU5Q38Bc-17" style="edgeStyle=none;curved=1;rounded=0;orthogonalLoop=1;jettySize=auto;html=1;exitX=0.5;exitY=1;exitDx=0;exitDy=0;fontSize=12;startSize=8;endSize=8;" parent="1" source="yEQ2idmZSXznNU5Q38Bc-8" target="yEQ2idmZSXznNU5Q38Bc-16" edge="1">
          <mxGeometry relative="1" as="geometry" />
        </mxCell>
        <mxCell id="yEQ2idmZSXznNU5Q38Bc-8" value="登录账户" style="html=1;whiteSpace=wrap;" parent="1" vertex="1">
          <mxGeometry x="78" y="362" width="110" height="50" as="geometry" />
        </mxCell>
        <mxCell id="yEQ2idmZSXznNU5Q38Bc-10" style="edgeStyle=none;curved=1;rounded=0;orthogonalLoop=1;jettySize=auto;html=1;exitX=0;exitY=1;exitDx=0;exitDy=0;entryX=0.372;entryY=0.04;entryDx=0;entryDy=0;entryPerimeter=0;fontSize=12;startSize=8;endSize=8;" parent="1" source="yEQ2idmZSXznNU5Q38Bc-6" target="yEQ2idmZSXznNU5Q38Bc-4" edge="1">
          <mxGeometry relative="1" as="geometry" />
        </mxCell>
        <mxCell id="yEQ2idmZSXznNU5Q38Bc-12" value="false" style="edgeLabel;html=1;align=center;verticalAlign=middle;resizable=0;points=[];fontSize=12;" parent="yEQ2idmZSXznNU5Q38Bc-10" vertex="1" connectable="0">
          <mxGeometry x="-0.0451" y="-2" relative="1" as="geometry">
            <mxPoint as="offset" />
          </mxGeometry>
        </mxCell>
        <mxCell id="yEQ2idmZSXznNU5Q38Bc-19" style="edgeStyle=none;curved=1;rounded=0;orthogonalLoop=1;jettySize=auto;html=1;exitX=0.25;exitY=1;exitDx=0;exitDy=0;entryX=0.5;entryY=0;entryDx=0;entryDy=0;fontSize=12;startSize=8;endSize=8;" parent="1" source="yEQ2idmZSXznNU5Q38Bc-16" target="yEQ2idmZSXznNU5Q38Bc-3" edge="1">
          <mxGeometry relative="1" as="geometry" />
        </mxCell>
        <mxCell id="yEQ2idmZSXznNU5Q38Bc-16" value="进入点餐界面,开始点餐" style="rounded=0;whiteSpace=wrap;html=1;" parent="1" vertex="1">
          <mxGeometry x="73" y="452" width="120" height="60" as="geometry" />
        </mxCell>
        <mxCell id="yEQ2idmZSXznNU5Q38Bc-21" value="" style="ellipse;html=1;shape=startState;fillColor=#000000;strokeColor=#ff0000;" parent="1" vertex="1">
          <mxGeometry x="602" y="38" width="30" height="30" as="geometry" />
        </mxCell>
        <mxCell id="yEQ2idmZSXznNU5Q38Bc-22" value="" style="edgeStyle=orthogonalEdgeStyle;html=1;verticalAlign=bottom;endArrow=open;endSize=8;strokeColor=#ff0000;rounded=0;fontSize=12;curved=1;" parent="1" source="yEQ2idmZSXznNU5Q38Bc-21" target="yEQ2idmZSXznNU5Q38Bc-28" edge="1">
          <mxGeometry relative="1" as="geometry">
            <mxPoint x="617" y="118" as="targetPoint" />
            <Array as="points">
              <mxPoint x="617" y="93" />
              <mxPoint x="618" y="93" />
            </Array>
          </mxGeometry>
        </mxCell>
        <mxCell id="yEQ2idmZSXznNU5Q38Bc-23" value="" style="ellipse;html=1;shape=endState;fillColor=#000000;strokeColor=#ff0000;" parent="1" vertex="1">
          <mxGeometry x="957" y="201" width="30" height="30" as="geometry" />
        </mxCell>
        <mxCell id="yEQ2idmZSXznNU5Q38Bc-24" style="edgeStyle=none;curved=1;rounded=0;orthogonalLoop=1;jettySize=auto;html=1;exitX=0.75;exitY=1;exitDx=0;exitDy=0;entryX=0;entryY=0.25;entryDx=0;entryDy=0;fontSize=12;startSize=8;endSize=8;" parent="1" source="yEQ2idmZSXznNU5Q38Bc-25" target="yEQ2idmZSXznNU5Q38Bc-30" edge="1">
          <mxGeometry relative="1" as="geometry" />
        </mxCell>
        <mxCell id="yEQ2idmZSXznNU5Q38Bc-25" value="注册账户" style="html=1;whiteSpace=wrap;" parent="1" vertex="1">
          <mxGeometry x="456" y="235" width="110" height="50" as="geometry" />
        </mxCell>
        <mxCell id="yEQ2idmZSXznNU5Q38Bc-26" style="edgeStyle=none;curved=1;rounded=0;orthogonalLoop=1;jettySize=auto;html=1;exitX=1;exitY=1;exitDx=0;exitDy=0;fontSize=12;startSize=8;endSize=8;" parent="1" source="yEQ2idmZSXznNU5Q38Bc-28" target="yEQ2idmZSXznNU5Q38Bc-30" edge="1">
          <mxGeometry relative="1" as="geometry" />
        </mxCell>
        <mxCell id="yEQ2idmZSXznNU5Q38Bc-27" value="true" style="edgeLabel;html=1;align=center;verticalAlign=middle;resizable=0;points=[];fontSize=12;" parent="yEQ2idmZSXznNU5Q38Bc-26" vertex="1" connectable="0">
          <mxGeometry x="-0.0626" y="2" relative="1" as="geometry">
            <mxPoint as="offset" />
          </mxGeometry>
        </mxCell>
        <mxCell id="yEQ2idmZSXznNU5Q38Bc-28" value="是否有账户" style="rhombus;whiteSpace=wrap;html=1;" parent="1" vertex="1">
          <mxGeometry x="577" y="118" width="80" height="80" as="geometry" />
        </mxCell>
        <mxCell id="yEQ2idmZSXznNU5Q38Bc-41" style="edgeStyle=none;curved=1;rounded=0;orthogonalLoop=1;jettySize=auto;html=1;exitX=1;exitY=0;exitDx=0;exitDy=0;fontSize=12;startSize=8;endSize=8;" parent="1" source="yEQ2idmZSXznNU5Q38Bc-30" target="yEQ2idmZSXznNU5Q38Bc-34" edge="1">
          <mxGeometry relative="1" as="geometry" />
        </mxCell>
        <mxCell id="yEQ2idmZSXznNU5Q38Bc-30" value="登录账户" style="html=1;whiteSpace=wrap;" parent="1" vertex="1">
          <mxGeometry x="585" y="366" width="110" height="50" as="geometry" />
        </mxCell>
        <mxCell id="yEQ2idmZSXznNU5Q38Bc-31" style="edgeStyle=none;curved=1;rounded=0;orthogonalLoop=1;jettySize=auto;html=1;exitX=0;exitY=1;exitDx=0;exitDy=0;entryX=0.372;entryY=0.04;entryDx=0;entryDy=0;entryPerimeter=0;fontSize=12;startSize=8;endSize=8;" parent="1" source="yEQ2idmZSXznNU5Q38Bc-28" target="yEQ2idmZSXznNU5Q38Bc-25" edge="1">
          <mxGeometry relative="1" as="geometry" />
        </mxCell>
        <mxCell id="yEQ2idmZSXznNU5Q38Bc-32" value="false" style="edgeLabel;html=1;align=center;verticalAlign=middle;resizable=0;points=[];fontSize=12;" parent="yEQ2idmZSXznNU5Q38Bc-31" vertex="1" connectable="0">
          <mxGeometry x="-0.0451" y="-2" relative="1" as="geometry">
            <mxPoint as="offset" />
          </mxGeometry>
        </mxCell>
        <mxCell id="yEQ2idmZSXznNU5Q38Bc-42" style="edgeStyle=none;curved=1;rounded=0;orthogonalLoop=1;jettySize=auto;html=1;exitX=0.75;exitY=1;exitDx=0;exitDy=0;fontSize=12;startSize=8;endSize=8;" parent="1" source="yEQ2idmZSXznNU5Q38Bc-34" target="yEQ2idmZSXznNU5Q38Bc-38" edge="1">
          <mxGeometry relative="1" as="geometry" />
        </mxCell>
        <mxCell id="yEQ2idmZSXznNU5Q38Bc-34" value="进入投诉界面,开始投诉" style="rounded=0;whiteSpace=wrap;html=1;" parent="1" vertex="1">
          <mxGeometry x="731" y="176" width="120" height="61" as="geometry" />
        </mxCell>
        <mxCell id="yEQ2idmZSXznNU5Q38Bc-43" style="edgeStyle=none;curved=1;rounded=0;orthogonalLoop=1;jettySize=auto;html=1;exitX=1;exitY=0.25;exitDx=0;exitDy=0;entryX=0;entryY=1;entryDx=0;entryDy=0;fontSize=12;startSize=8;endSize=8;" parent="1" source="yEQ2idmZSXznNU5Q38Bc-38" target="yEQ2idmZSXznNU5Q38Bc-23" edge="1">
          <mxGeometry relative="1" as="geometry" />
        </mxCell>
        <mxCell id="yEQ2idmZSXznNU5Q38Bc-38" value="员工处理投诉" style="rounded=0;whiteSpace=wrap;html=1;" parent="1" vertex="1">
          <mxGeometry x="777" y="356" width="120" height="60" as="geometry" />
        </mxCell>
        <mxCell id="yEQ2idmZSXznNU5Q38Bc-65" style="edgeStyle=none;curved=1;rounded=0;orthogonalLoop=1;jettySize=auto;html=1;exitX=1;exitY=0.3333333333333333;exitDx=0;exitDy=0;exitPerimeter=0;entryX=0;entryY=1;entryDx=0;entryDy=0;fontSize=12;startSize=8;endSize=8;" parent="1" source="yEQ2idmZSXznNU5Q38Bc-70" target="yEQ2idmZSXznNU5Q38Bc-75" edge="1">
          <mxGeometry relative="1" as="geometry" />
        </mxCell>
        <mxCell id="yEQ2idmZSXznNU5Q38Bc-66" style="edgeStyle=none;curved=1;rounded=0;orthogonalLoop=1;jettySize=auto;html=1;exitX=1;exitY=0.3333333333333333;exitDx=0;exitDy=0;exitPerimeter=0;entryX=0;entryY=1;entryDx=0;entryDy=0;fontSize=12;startSize=8;endSize=8;" parent="1" source="yEQ2idmZSXznNU5Q38Bc-70" target="yEQ2idmZSXznNU5Q38Bc-71" edge="1">
          <mxGeometry relative="1" as="geometry" />
        </mxCell>
        <mxCell id="yEQ2idmZSXznNU5Q38Bc-67" style="edgeStyle=none;curved=1;rounded=0;orthogonalLoop=1;jettySize=auto;html=1;exitX=1;exitY=0.3333333333333333;exitDx=0;exitDy=0;exitPerimeter=0;entryX=0;entryY=0.5;entryDx=0;entryDy=0;fontSize=12;startSize=8;endSize=8;" parent="1" source="yEQ2idmZSXznNU5Q38Bc-70" target="yEQ2idmZSXznNU5Q38Bc-72" edge="1">
          <mxGeometry relative="1" as="geometry" />
        </mxCell>
        <mxCell id="yEQ2idmZSXznNU5Q38Bc-68" style="edgeStyle=none;curved=1;rounded=0;orthogonalLoop=1;jettySize=auto;html=1;exitX=1;exitY=0.3333333333333333;exitDx=0;exitDy=0;exitPerimeter=0;entryX=0;entryY=0.5;entryDx=0;entryDy=0;fontSize=12;startSize=8;endSize=8;" parent="1" source="yEQ2idmZSXznNU5Q38Bc-70" target="yEQ2idmZSXznNU5Q38Bc-73" edge="1">
          <mxGeometry relative="1" as="geometry" />
        </mxCell>
        <mxCell id="yEQ2idmZSXznNU5Q38Bc-69" style="edgeStyle=none;curved=1;rounded=0;orthogonalLoop=1;jettySize=auto;html=1;exitX=1;exitY=0.3333333333333333;exitDx=0;exitDy=0;exitPerimeter=0;fontSize=12;startSize=8;endSize=8;" parent="1" source="yEQ2idmZSXznNU5Q38Bc-70" target="yEQ2idmZSXznNU5Q38Bc-74" edge="1">
          <mxGeometry relative="1" as="geometry" />
        </mxCell>
        <mxCell id="yEQ2idmZSXznNU5Q38Bc-70" value="管理员" style="shape=umlActor;verticalLabelPosition=bottom;verticalAlign=top;html=1;outlineConnect=0;" parent="1" vertex="1">
          <mxGeometry x="305" y="988" width="51" height="104" as="geometry" />
        </mxCell>
        <mxCell id="yEQ2idmZSXznNU5Q38Bc-71" value="角色管理" style="ellipse;whiteSpace=wrap;html=1;" parent="1" vertex="1">
          <mxGeometry x="456" y="944" width="106" height="40" as="geometry" />
        </mxCell>
        <mxCell id="yEQ2idmZSXznNU5Q38Bc-72" value="人员管理" style="ellipse;whiteSpace=wrap;html=1;" parent="1" vertex="1">
          <mxGeometry x="451" y="1020" width="106" height="40" as="geometry" />
        </mxCell>
        <mxCell id="yEQ2idmZSXznNU5Q38Bc-73" value="菜单管理" style="ellipse;whiteSpace=wrap;html=1;" parent="1" vertex="1">
          <mxGeometry x="453" y="1100" width="106" height="40" as="geometry" />
        </mxCell>
        <mxCell id="yEQ2idmZSXznNU5Q38Bc-74" value="部门管理" style="ellipse;whiteSpace=wrap;html=1;" parent="1" vertex="1">
          <mxGeometry x="421" y="1180" width="106" height="40" as="geometry" />
        </mxCell>
        <mxCell id="yEQ2idmZSXznNU5Q38Bc-75" value="日志管理" style="ellipse;whiteSpace=wrap;html=1;" parent="1" vertex="1">
          <mxGeometry x="421" y="883" width="106" height="40" as="geometry" />
        </mxCell>
        <mxCell id="yEQ2idmZSXznNU5Q38Bc-87" style="edgeStyle=none;curved=1;rounded=0;orthogonalLoop=1;jettySize=auto;html=1;exitX=1;exitY=0.3333333333333333;exitDx=0;exitDy=0;exitPerimeter=0;entryX=0;entryY=1;entryDx=0;entryDy=0;fontSize=12;startSize=8;endSize=8;" parent="1" source="yEQ2idmZSXznNU5Q38Bc-92" target="yEQ2idmZSXznNU5Q38Bc-97" edge="1">
          <mxGeometry relative="1" as="geometry" />
        </mxCell>
        <mxCell id="yEQ2idmZSXznNU5Q38Bc-88" style="edgeStyle=none;curved=1;rounded=0;orthogonalLoop=1;jettySize=auto;html=1;exitX=1;exitY=0.3333333333333333;exitDx=0;exitDy=0;exitPerimeter=0;entryX=0;entryY=1;entryDx=0;entryDy=0;fontSize=12;startSize=8;endSize=8;" parent="1" source="yEQ2idmZSXznNU5Q38Bc-92" target="yEQ2idmZSXznNU5Q38Bc-93" edge="1">
          <mxGeometry relative="1" as="geometry" />
        </mxCell>
        <mxCell id="yEQ2idmZSXznNU5Q38Bc-89" style="edgeStyle=none;curved=1;rounded=0;orthogonalLoop=1;jettySize=auto;html=1;exitX=1;exitY=0.3333333333333333;exitDx=0;exitDy=0;exitPerimeter=0;entryX=0;entryY=0.5;entryDx=0;entryDy=0;fontSize=12;startSize=8;endSize=8;" parent="1" source="yEQ2idmZSXznNU5Q38Bc-92" target="yEQ2idmZSXznNU5Q38Bc-94" edge="1">
          <mxGeometry relative="1" as="geometry" />
        </mxCell>
        <mxCell id="yEQ2idmZSXznNU5Q38Bc-90" style="edgeStyle=none;curved=1;rounded=0;orthogonalLoop=1;jettySize=auto;html=1;exitX=1;exitY=0.3333333333333333;exitDx=0;exitDy=0;exitPerimeter=0;entryX=0;entryY=0.5;entryDx=0;entryDy=0;fontSize=12;startSize=8;endSize=8;" parent="1" source="yEQ2idmZSXznNU5Q38Bc-92" target="yEQ2idmZSXznNU5Q38Bc-95" edge="1">
          <mxGeometry relative="1" as="geometry" />
        </mxCell>
        <mxCell id="yEQ2idmZSXznNU5Q38Bc-91" style="edgeStyle=none;curved=1;rounded=0;orthogonalLoop=1;jettySize=auto;html=1;exitX=1;exitY=0.3333333333333333;exitDx=0;exitDy=0;exitPerimeter=0;fontSize=12;startSize=8;endSize=8;" parent="1" source="yEQ2idmZSXznNU5Q38Bc-92" target="yEQ2idmZSXznNU5Q38Bc-96" edge="1">
          <mxGeometry relative="1" as="geometry" />
        </mxCell>
        <mxCell id="yEQ2idmZSXznNU5Q38Bc-92" value="店长" style="shape=umlActor;verticalLabelPosition=bottom;verticalAlign=top;html=1;outlineConnect=0;" parent="1" vertex="1">
          <mxGeometry x="747" y="1004" width="51" height="104" as="geometry" />
        </mxCell>
        <mxCell id="yEQ2idmZSXznNU5Q38Bc-93" value="订单管理" style="ellipse;whiteSpace=wrap;html=1;" parent="1" vertex="1">
          <mxGeometry x="898" y="960" width="106" height="40" as="geometry" />
        </mxCell>
        <mxCell id="yEQ2idmZSXznNU5Q38Bc-94" value="考勤管理" style="ellipse;whiteSpace=wrap;html=1;" parent="1" vertex="1">
          <mxGeometry x="893" y="1036" width="106" height="40" as="geometry" />
        </mxCell>
        <mxCell id="yEQ2idmZSXznNU5Q38Bc-95" value="财务管理" style="ellipse;whiteSpace=wrap;html=1;" parent="1" vertex="1">
          <mxGeometry x="895" y="1116" width="106" height="40" as="geometry" />
        </mxCell>
        <mxCell id="yEQ2idmZSXznNU5Q38Bc-96" value="客户管理" style="ellipse;whiteSpace=wrap;html=1;" parent="1" vertex="1">
          <mxGeometry x="863" y="1196" width="106" height="40" as="geometry" />
        </mxCell>
        <mxCell id="yEQ2idmZSXznNU5Q38Bc-97" value="活动促销管理" style="ellipse;whiteSpace=wrap;html=1;" parent="1" vertex="1">
          <mxGeometry x="863" y="899" width="106" height="40" as="geometry" />
        </mxCell>
        <mxCell id="yEQ2idmZSXznNU5Q38Bc-109" style="edgeStyle=none;curved=1;rounded=0;orthogonalLoop=1;jettySize=auto;html=1;exitX=1;exitY=0.3333333333333333;exitDx=0;exitDy=0;exitPerimeter=0;entryX=0;entryY=1;entryDx=0;entryDy=0;fontSize=12;startSize=8;endSize=8;" parent="1" source="yEQ2idmZSXznNU5Q38Bc-114" target="yEQ2idmZSXznNU5Q38Bc-119" edge="1">
          <mxGeometry relative="1" as="geometry" />
        </mxCell>
        <mxCell id="yEQ2idmZSXznNU5Q38Bc-110" style="edgeStyle=none;curved=1;rounded=0;orthogonalLoop=1;jettySize=auto;html=1;exitX=1;exitY=0.3333333333333333;exitDx=0;exitDy=0;exitPerimeter=0;entryX=0;entryY=1;entryDx=0;entryDy=0;fontSize=12;startSize=8;endSize=8;" parent="1" source="yEQ2idmZSXznNU5Q38Bc-114" target="yEQ2idmZSXznNU5Q38Bc-115" edge="1">
          <mxGeometry relative="1" as="geometry" />
        </mxCell>
        <mxCell id="yEQ2idmZSXznNU5Q38Bc-111" style="edgeStyle=none;curved=1;rounded=0;orthogonalLoop=1;jettySize=auto;html=1;exitX=1;exitY=0.3333333333333333;exitDx=0;exitDy=0;exitPerimeter=0;entryX=0;entryY=0.5;entryDx=0;entryDy=0;fontSize=12;startSize=8;endSize=8;" parent="1" source="yEQ2idmZSXznNU5Q38Bc-114" target="yEQ2idmZSXznNU5Q38Bc-116" edge="1">
          <mxGeometry relative="1" as="geometry" />
        </mxCell>
        <mxCell id="yEQ2idmZSXznNU5Q38Bc-112" style="edgeStyle=none;curved=1;rounded=0;orthogonalLoop=1;jettySize=auto;html=1;exitX=1;exitY=0.3333333333333333;exitDx=0;exitDy=0;exitPerimeter=0;entryX=0;entryY=0.5;entryDx=0;entryDy=0;fontSize=12;startSize=8;endSize=8;" parent="1" source="yEQ2idmZSXznNU5Q38Bc-114" target="yEQ2idmZSXznNU5Q38Bc-117" edge="1">
          <mxGeometry relative="1" as="geometry" />
        </mxCell>
        <mxCell id="yEQ2idmZSXznNU5Q38Bc-113" style="edgeStyle=none;curved=1;rounded=0;orthogonalLoop=1;jettySize=auto;html=1;exitX=1;exitY=0.3333333333333333;exitDx=0;exitDy=0;exitPerimeter=0;fontSize=12;startSize=8;endSize=8;" parent="1" source="yEQ2idmZSXznNU5Q38Bc-114" target="yEQ2idmZSXznNU5Q38Bc-118" edge="1">
          <mxGeometry relative="1" as="geometry" />
        </mxCell>
        <mxCell id="yEQ2idmZSXznNU5Q38Bc-114" value="员工" style="shape=umlActor;verticalLabelPosition=bottom;verticalAlign=top;html=1;outlineConnect=0;" parent="1" vertex="1">
          <mxGeometry x="451" y="1386" width="51" height="104" as="geometry" />
        </mxCell>
        <mxCell id="yEQ2idmZSXznNU5Q38Bc-115" value="积分管理" style="ellipse;whiteSpace=wrap;html=1;" parent="1" vertex="1">
          <mxGeometry x="602" y="1342" width="106" height="40" as="geometry" />
        </mxCell>
        <mxCell id="yEQ2idmZSXznNU5Q38Bc-116" value="客户反馈管理" style="ellipse;whiteSpace=wrap;html=1;" parent="1" vertex="1">
          <mxGeometry x="597" y="1418" width="106" height="40" as="geometry" />
        </mxCell>
        <mxCell id="yEQ2idmZSXznNU5Q38Bc-117" value="库存管理" style="ellipse;whiteSpace=wrap;html=1;" parent="1" vertex="1">
          <mxGeometry x="599" y="1498" width="106" height="40" as="geometry" />
        </mxCell>
        <mxCell id="yEQ2idmZSXznNU5Q38Bc-118" value="咖啡配方管理" style="ellipse;whiteSpace=wrap;html=1;" parent="1" vertex="1">
          <mxGeometry x="567" y="1578" width="106" height="40" as="geometry" />
        </mxCell>
        <mxCell id="yEQ2idmZSXznNU5Q38Bc-119" value="供应商管理" style="ellipse;whiteSpace=wrap;html=1;" parent="1" vertex="1">
          <mxGeometry x="567" y="1281" width="106" height="40" as="geometry" />
        </mxCell>
        <mxCell id="yEQ2idmZSXznNU5Q38Bc-120" style="edgeStyle=none;curved=1;rounded=0;orthogonalLoop=1;jettySize=auto;html=1;exitX=1;exitY=0.3333333333333333;exitDx=0;exitDy=0;exitPerimeter=0;entryX=0;entryY=1;entryDx=0;entryDy=0;fontSize=12;startSize=8;endSize=8;" parent="1" source="yEQ2idmZSXznNU5Q38Bc-125" target="yEQ2idmZSXznNU5Q38Bc-130" edge="1">
          <mxGeometry relative="1" as="geometry" />
        </mxCell>
        <mxCell id="yEQ2idmZSXznNU5Q38Bc-121" style="edgeStyle=none;curved=1;rounded=0;orthogonalLoop=1;jettySize=auto;html=1;exitX=1;exitY=0.3333333333333333;exitDx=0;exitDy=0;exitPerimeter=0;entryX=0;entryY=1;entryDx=0;entryDy=0;fontSize=12;startSize=8;endSize=8;" parent="1" source="yEQ2idmZSXznNU5Q38Bc-125" target="yEQ2idmZSXznNU5Q38Bc-126" edge="1">
          <mxGeometry relative="1" as="geometry" />
        </mxCell>
        <mxCell id="yEQ2idmZSXznNU5Q38Bc-122" style="edgeStyle=none;curved=1;rounded=0;orthogonalLoop=1;jettySize=auto;html=1;exitX=1;exitY=0.3333333333333333;exitDx=0;exitDy=0;exitPerimeter=0;entryX=0;entryY=0.5;entryDx=0;entryDy=0;fontSize=12;startSize=8;endSize=8;" parent="1" source="yEQ2idmZSXznNU5Q38Bc-125" target="yEQ2idmZSXznNU5Q38Bc-127" edge="1">
          <mxGeometry relative="1" as="geometry" />
        </mxCell>
        <mxCell id="yEQ2idmZSXznNU5Q38Bc-123" style="edgeStyle=none;curved=1;rounded=0;orthogonalLoop=1;jettySize=auto;html=1;exitX=1;exitY=0.3333333333333333;exitDx=0;exitDy=0;exitPerimeter=0;entryX=0;entryY=0.5;entryDx=0;entryDy=0;fontSize=12;startSize=8;endSize=8;" parent="1" source="yEQ2idmZSXznNU5Q38Bc-125" target="yEQ2idmZSXznNU5Q38Bc-128" edge="1">
          <mxGeometry relative="1" as="geometry" />
        </mxCell>
        <mxCell id="yEQ2idmZSXznNU5Q38Bc-124" style="edgeStyle=none;curved=1;rounded=0;orthogonalLoop=1;jettySize=auto;html=1;exitX=1;exitY=0.3333333333333333;exitDx=0;exitDy=0;exitPerimeter=0;fontSize=12;startSize=8;endSize=8;" parent="1" source="yEQ2idmZSXznNU5Q38Bc-125" target="yEQ2idmZSXznNU5Q38Bc-129" edge="1">
          <mxGeometry relative="1" as="geometry" />
        </mxCell>
        <mxCell id="yEQ2idmZSXznNU5Q38Bc-125" value="顾客" style="shape=umlActor;verticalLabelPosition=bottom;verticalAlign=top;html=1;outlineConnect=0;" parent="1" vertex="1">
          <mxGeometry x="833" y="1416" width="51" height="104" as="geometry" />
        </mxCell>
        <mxCell id="yEQ2idmZSXznNU5Q38Bc-126" value="顾客点餐" style="ellipse;whiteSpace=wrap;html=1;" parent="1" vertex="1">
          <mxGeometry x="984" y="1372" width="106" height="40" as="geometry" />
        </mxCell>
        <mxCell id="yEQ2idmZSXznNU5Q38Bc-127" value="活动参与" style="ellipse;whiteSpace=wrap;html=1;" parent="1" vertex="1">
          <mxGeometry x="979" y="1448" width="106" height="40" as="geometry" />
        </mxCell>
        <mxCell id="yEQ2idmZSXznNU5Q38Bc-128" value="积分消费" style="ellipse;whiteSpace=wrap;html=1;" parent="1" vertex="1">
          <mxGeometry x="981" y="1528" width="106" height="40" as="geometry" />
        </mxCell>
        <mxCell id="yEQ2idmZSXznNU5Q38Bc-129" value="评论投诉" style="ellipse;whiteSpace=wrap;html=1;" parent="1" vertex="1">
          <mxGeometry x="949" y="1608" width="106" height="40" as="geometry" />
        </mxCell>
        <mxCell id="yEQ2idmZSXznNU5Q38Bc-130" value="登录注册" style="ellipse;whiteSpace=wrap;html=1;" parent="1" vertex="1">
          <mxGeometry x="949" y="1311" width="106" height="40" as="geometry" />
        </mxCell>
        <mxCell id="yEQ2idmZSXznNU5Q38Bc-138" style="edgeStyle=none;curved=1;rounded=0;orthogonalLoop=1;jettySize=auto;html=1;exitX=0.75;exitY=1;exitDx=0;exitDy=0;fontSize=12;startSize=8;endSize=8;" parent="1" source="yEQ2idmZSXznNU5Q38Bc-131" target="yEQ2idmZSXznNU5Q38Bc-133" edge="1">
          <mxGeometry relative="1" as="geometry" />
        </mxCell>
        <mxCell id="yEQ2idmZSXznNU5Q38Bc-131" value="后台界面" style="rounded=0;whiteSpace=wrap;html=1;" parent="1" vertex="1">
          <mxGeometry x="311" y="2135" width="120" height="60" as="geometry" />
        </mxCell>
        <mxCell id="yEQ2idmZSXznNU5Q38Bc-139" style="edgeStyle=none;curved=1;rounded=0;orthogonalLoop=1;jettySize=auto;html=1;exitX=0.5;exitY=1;exitDx=0;exitDy=0;fontSize=12;startSize=8;endSize=8;" parent="1" source="yEQ2idmZSXznNU5Q38Bc-132" target="yEQ2idmZSXznNU5Q38Bc-133" edge="1">
          <mxGeometry relative="1" as="geometry" />
        </mxCell>
        <mxCell id="yEQ2idmZSXznNU5Q38Bc-132" value="H5前台界面" style="rounded=0;whiteSpace=wrap;html=1;" parent="1" vertex="1">
          <mxGeometry x="557" y="2135" width="120" height="60" as="geometry" />
        </mxCell>
        <mxCell id="yEQ2idmZSXznNU5Q38Bc-141" style="edgeStyle=none;curved=1;rounded=0;orthogonalLoop=1;jettySize=auto;html=1;exitX=0.75;exitY=1;exitDx=0;exitDy=0;entryX=0.5;entryY=0;entryDx=0;entryDy=0;fontSize=12;startSize=8;endSize=8;" parent="1" source="yEQ2idmZSXznNU5Q38Bc-133" target="yEQ2idmZSXznNU5Q38Bc-135" edge="1">
          <mxGeometry relative="1" as="geometry" />
        </mxCell>
        <mxCell id="yEQ2idmZSXznNU5Q38Bc-142" style="edgeStyle=none;curved=1;rounded=0;orthogonalLoop=1;jettySize=auto;html=1;exitX=1;exitY=1;exitDx=0;exitDy=0;entryX=0.5;entryY=0;entryDx=0;entryDy=0;fontSize=12;startSize=8;endSize=8;" parent="1" source="yEQ2idmZSXznNU5Q38Bc-133" target="yEQ2idmZSXznNU5Q38Bc-137" edge="1">
          <mxGeometry relative="1" as="geometry" />
        </mxCell>
        <mxCell id="yEQ2idmZSXznNU5Q38Bc-133" value="业务逻辑功能实现API" style="rounded=0;whiteSpace=wrap;html=1;" parent="1" vertex="1">
          <mxGeometry x="393" y="2280" width="248" height="60" as="geometry" />
        </mxCell>
        <mxCell id="yEQ2idmZSXznNU5Q38Bc-134" value="数据库" style="shape=cylinder3;whiteSpace=wrap;html=1;boundedLbl=1;backgroundOutline=1;size=15;" parent="1" vertex="1">
          <mxGeometry x="305" y="2412" width="83" height="91" as="geometry" />
        </mxCell>
        <mxCell id="yEQ2idmZSXznNU5Q38Bc-135" value="实体类" style="rounded=0;whiteSpace=wrap;html=1;" parent="1" vertex="1">
          <mxGeometry x="537" y="2425" width="120" height="60" as="geometry" />
        </mxCell>
        <mxCell id="yEQ2idmZSXznNU5Q38Bc-137" value="工具类" style="rounded=0;whiteSpace=wrap;html=1;" parent="1" vertex="1">
          <mxGeometry x="723" y="2425" width="120" height="60" as="geometry" />
        </mxCell>
        <mxCell id="yEQ2idmZSXznNU5Q38Bc-140" style="edgeStyle=none;curved=1;rounded=0;orthogonalLoop=1;jettySize=auto;html=1;exitX=0.25;exitY=1;exitDx=0;exitDy=0;entryX=0.855;entryY=0;entryDx=0;entryDy=4.35;entryPerimeter=0;fontSize=12;startSize=8;endSize=8;" parent="1" source="yEQ2idmZSXznNU5Q38Bc-133" target="yEQ2idmZSXznNU5Q38Bc-134" edge="1">
          <mxGeometry relative="1" as="geometry" />
        </mxCell>
        <mxCell id="yEQ2idmZSXznNU5Q38Bc-149" value="" style="edgeStyle=none;curved=1;rounded=0;orthogonalLoop=1;jettySize=auto;html=1;fontSize=12;startSize=8;endSize=8;" parent="1" source="yEQ2idmZSXznNU5Q38Bc-143" target="yEQ2idmZSXznNU5Q38Bc-145" edge="1">
          <mxGeometry relative="1" as="geometry" />
        </mxCell>
        <mxCell id="yEQ2idmZSXznNU5Q38Bc-143" value="硬件设备层" style="rounded=0;whiteSpace=wrap;html=1;" parent="1" vertex="1">
          <mxGeometry x="451" y="2674" width="120" height="60" as="geometry" />
        </mxCell>
        <mxCell id="yEQ2idmZSXznNU5Q38Bc-150" value="" style="edgeStyle=none;curved=1;rounded=0;orthogonalLoop=1;jettySize=auto;html=1;fontSize=12;startSize=8;endSize=8;" parent="1" source="yEQ2idmZSXznNU5Q38Bc-145" target="yEQ2idmZSXznNU5Q38Bc-146" edge="1">
          <mxGeometry relative="1" as="geometry" />
        </mxCell>
        <mxCell id="yEQ2idmZSXznNU5Q38Bc-145" value="数据存储层" style="rounded=0;whiteSpace=wrap;html=1;" parent="1" vertex="1">
          <mxGeometry x="648" y="2674" width="129" height="60" as="geometry" />
        </mxCell>
        <mxCell id="yEQ2idmZSXznNU5Q38Bc-151" value="" style="edgeStyle=none;curved=1;rounded=0;orthogonalLoop=1;jettySize=auto;html=1;fontSize=12;startSize=8;endSize=8;" parent="1" source="yEQ2idmZSXznNU5Q38Bc-146" target="yEQ2idmZSXznNU5Q38Bc-147" edge="1">
          <mxGeometry relative="1" as="geometry" />
        </mxCell>
        <mxCell id="yEQ2idmZSXznNU5Q38Bc-146" value="DAO层" style="rounded=0;whiteSpace=wrap;html=1;" parent="1" vertex="1">
          <mxGeometry x="851" y="2678" width="120" height="60" as="geometry" />
        </mxCell>
        <mxCell id="yEQ2idmZSXznNU5Q38Bc-152" value="" style="edgeStyle=none;curved=1;rounded=0;orthogonalLoop=1;jettySize=auto;html=1;fontSize=12;startSize=8;endSize=8;" parent="1" source="yEQ2idmZSXznNU5Q38Bc-147" target="yEQ2idmZSXznNU5Q38Bc-148" edge="1">
          <mxGeometry relative="1" as="geometry" />
        </mxCell>
        <mxCell id="yEQ2idmZSXznNU5Q38Bc-147" value="业务层" style="rounded=0;whiteSpace=wrap;html=1;" parent="1" vertex="1">
          <mxGeometry x="1060" y="2668" width="120" height="60" as="geometry" />
        </mxCell>
        <mxCell id="yEQ2idmZSXznNU5Q38Bc-148" value="表现层" style="rounded=0;whiteSpace=wrap;html=1;" parent="1" vertex="1">
          <mxGeometry x="1255" y="2668" width="120" height="60" as="geometry" />
        </mxCell>
      </root>
    </mxGraphModel>
  </diagram>
</mxfile>
